/* XPM */
static char * top_xpm[] = {
"24 24 5 1",
" 	c None",
".	c #FFFFFF",
"+	c #909090",
"@	c #F5F5F5",
"#	c #F9F9F9",
"                        ",
"                        ",
"                        ",
"                        ",
"      ............      ",
"      ............      ",
"           ++           ",
"           ..           ",
"          @..#          ",
"          ....          ",
"         ......         ",
"        #......#        ",
"        ........        ",
"       ..........       ",
"      @#.......##@      ",
"         ......         ",
"         ......         ",
"         ......         ",
"         ......         ",
"                        ",
"                        ",
"                        ",
"                        ",
"                        "};
