/* XPM */
static char *desktop_xpm[] = {
"24 24 2 1",
" 	c None",
"1	c #000000",
"                        ",
"                        ",
"   111111111111111111   ",
"  1                     ",
"  1 1111111111111111  1 ",
"  1 1              1 11 ",
"  1 1 11            11  ",
"  1 1              11   ",
"  1 1 11          11 1  ",
"  1 1            11  1  ",
"  1 1 11        11 1 1  ",
"  1 1          11  1 1  ",
"  1 1 11      11   1 1  ",
"  1 1        11    1 1  ",
"  1 1       11     1 1  ",
"  1 1      11      1 1  ",
"  1 1     11       1 1  ",
"  1 1              1 1  ",
"  1 1              1 1  ",
"  1 1111111111111111 1  ",
"  1                  1  ",
"   111111111111111111   ",
"                        ",
"                        "
};
