/* XPM */
static char *desktop_xpm[] = {
"32 32 3 1",
" 	c None",
"1	c #000000",
"2	c #FFFFFF",
"                                ",
"  111111111111111111111111111   ",
" 1                              ",
" 1 1111111111111111111111111   1",
" 1 1                          11",
" 1 1                         111",
" 1 1  111                   111 ",
" 1 1  111                  111  ",
" 1 1                      111   ",
" 1 1  111                111  1 ",
" 1 1  111               111   1 ",
" 1 1                   111  1 1 ",
" 1 1  111             111   1 1 ",
" 1 1  111            111    1 1 ",
" 1 1                111     1 1 ",
" 1 1               111      1 1 ",
" 1 1              111       1 1 ",
" 1 1             111        1 1 ",
" 1 1            111         1 1 ",
" 1 1           111          1 1 ",
" 1 1          111           1 1 ",
" 1 1         111            1 1 ",
" 1 1        111             1 1 ",
" 1 1       111              1 1 ",
" 1 1      111               1 1 ",
" 1 1      11                1 1 ",
" 1 1                        1 1 ",
" 1 1                        1 1 ",
" 1 11111111111111111111111111 1 ",
" 1                            1 ",
"  1111111111111111111111111111  ",
"                                "
};
