<?xml version="1.0" encoding="UTF-8" standalone="no"?>
<!-- Created with Inkscape (http://www.inkscape.org/) -->

<svg
   xmlns:dc="http://purl.org/dc/elements/1.1/"
   xmlns:cc="http://creativecommons.org/ns#"
   xmlns:rdf="http://www.w3.org/1999/02/22-rdf-syntax-ns#"
   xmlns:svg="http://www.w3.org/2000/svg"
   xmlns="http://www.w3.org/2000/svg"
   xmlns:xlink="http://www.w3.org/1999/xlink"
   xmlns:sodipodi="http://sodipodi.sourceforge.net/DTD/sodipodi-0.dtd"
   xmlns:inkscape="http://www.inkscape.org/namespaces/inkscape"
   version="1.0"
   width="96"
   height="96"
   id="svg2408"
   inkscape:version="0.48.0 r9654"
   sodipodi:docname="gwget.svg">
  <sodipodi:namedview
     pagecolor="#ffffff"
     bordercolor="#666666"
     borderopacity="1"
     objecttolerance="10"
     gridtolerance="10"
     guidetolerance="10"
     inkscape:pageopacity="0"
     inkscape:pageshadow="2"
     inkscape:window-width="640"
     inkscape:window-height="480"
     id="namedview121"
     showgrid="false"
     inkscape:zoom="2.8541667"
     inkscape:cx="48"
     inkscape:cy="48"
     inkscape:window-x="0"
     inkscape:window-y="25"
     inkscape:window-maximized="0"
     inkscape:current-layer="svg2408" />
  <defs
     id="defs2410">
    <linearGradient
       x1="45.447727"
       y1="92.539597"
       x2="45.447727"
       y2="7.0165396"
       id="ButtonShadow"
       gradientUnits="userSpaceOnUse"
       gradientTransform="scale(1.0058652,0.994169)">
      <stop
         id="stop3750"
         style="stop-color:#000000;stop-opacity:1"
         offset="0" />
      <stop
         id="stop3752"
         style="stop-color:#000000;stop-opacity:0.58823532"
         offset="1" />
    </linearGradient>
    <linearGradient
       id="linearGradient3737">
      <stop
         id="stop3739"
         style="stop-color:#ffffff;stop-opacity:1"
         offset="0" />
      <stop
         id="stop3741"
         style="stop-color:#ffffff;stop-opacity:0"
         offset="1" />
    </linearGradient>
    <filter
       color-interpolation-filters="sRGB"
       id="filter3174">
      <feGaussianBlur
         stdDeviation="1.71"
         id="feGaussianBlur3176" />
    </filter>
    <linearGradient
       x1="45.447727"
       y1="92.539597"
       x2="45.447727"
       y2="7.0165396"
       id="ButtonShadow-0"
       gradientUnits="userSpaceOnUse"
       gradientTransform="matrix(1.0058652,0,0,0.994169,100,0)">
      <stop
         id="stop3750-8"
         style="stop-color:#000000;stop-opacity:1"
         offset="0" />
      <stop
         id="stop3752-5"
         style="stop-color:#000000;stop-opacity:0.58823532"
         offset="1" />
    </linearGradient>
    <linearGradient
       x1="32.251034"
       y1="6.1317081"
       x2="32.251034"
       y2="90.238609"
       id="linearGradient3780"
       xlink:href="#ButtonShadow-0"
       gradientUnits="userSpaceOnUse"
       gradientTransform="matrix(1.0238095,0,0,1.0119048,-1.1428571,-98.071429)" />
    <linearGradient
       x1="32.251034"
       y1="6.1317081"
       x2="32.251034"
       y2="90.238609"
       id="linearGradient3772"
       xlink:href="#ButtonShadow-0"
       gradientUnits="userSpaceOnUse"
       gradientTransform="matrix(1.0238095,0,0,1.0119048,-1.1428571,-98.071429)" />
    <linearGradient
       x1="32.251034"
       y1="6.1317081"
       x2="32.251034"
       y2="90.238609"
       id="linearGradient3725"
       xlink:href="#ButtonShadow-0"
       gradientUnits="userSpaceOnUse"
       gradientTransform="matrix(1.0238095,0,0,1.0119048,-1.1428571,-98.071429)" />
    <linearGradient
       x1="32.251034"
       y1="6.1317081"
       x2="32.251034"
       y2="90.238609"
       id="linearGradient3721"
       xlink:href="#ButtonShadow-0"
       gradientUnits="userSpaceOnUse"
       gradientTransform="translate(0,-97)" />
    <linearGradient
       x1="32.251034"
       y1="6.1317081"
       x2="32.251034"
       y2="90.238609"
       id="linearGradient3026"
       xlink:href="#ButtonShadow-0"
       gradientUnits="userSpaceOnUse"
       gradientTransform="matrix(1.0238095,0,0,1.0119048,-1.1428571,-98.071429)" />
    <radialGradient
       cx="48"
       cy="90.171875"
       r="42"
       fx="48"
       fy="90.171875"
       id="radialGradient3076"
       xlink:href="#linearGradient3737"
       gradientUnits="userSpaceOnUse"
       gradientTransform="matrix(1.1573129,0,0,0.99590774,-7.5510206,0.19713193)" />
    <linearGradient
       x1="36.357143"
       y1="6"
       x2="36.357143"
       y2="63.893143"
       id="linearGradient3079"
       xlink:href="#linearGradient3737"
       gradientUnits="userSpaceOnUse" />
    <linearGradient
       id="linearGradient4019-7">
      <stop
         id="stop4025-9"
         style="stop-color:#4f0505;stop-opacity:1"
         offset="0" />
      <stop
         id="stop4035-0"
         style="stop-color:#ad1111;stop-opacity:1"
         offset="0.401779" />
      <stop
         id="stop4033-2"
         style="stop-color:#c3420f;stop-opacity:1"
         offset="0.6918757" />
      <stop
         id="stop4027-9"
         style="stop-color:#cd460f;stop-opacity:1"
         offset="1" />
    </linearGradient>
    <linearGradient
       id="linearGradient3694-0">
      <stop
         id="stop3696-4"
         style="stop-color:#b2b2b2;stop-opacity:1"
         offset="0" />
      <stop
         id="stop3698-3"
         style="stop-color:#ffffff;stop-opacity:1"
         offset="1" />
    </linearGradient>
    <filter
       color-interpolation-filters="sRGB"
       id="filter4387">
      <feGaussianBlur
         id="feGaussianBlur4389"
         stdDeviation="0.52563819" />
    </filter>
    <linearGradient
       x1="134.24899"
       y1="84.064255"
       x2="134.24899"
       y2="49.13961"
       id="linearGradient4429"
       xlink:href="#linearGradient3694-0"
       gradientUnits="userSpaceOnUse" />
    <linearGradient
       x1="76"
       y1="110.50372"
       x2="76"
       y2="26.5"
       id="linearGradient4431"
       xlink:href="#linearGradient4019-7"
       gradientUnits="userSpaceOnUse"
       gradientTransform="translate(-26.5,-20.5)" />
  </defs>
  <metadata
     id="metadata2413">
    <rdf:RDF>
      <cc:Work
         rdf:about="">
        <dc:format>image/svg+xml</dc:format>
        <dc:type
           rdf:resource="http://purl.org/dc/dcmitype/StillImage" />
        <dc:title />
      </cc:Work>
    </rdf:RDF>
  </metadata>
  <g
     id="layer2"
     style="display:none">
    <rect
       width="86"
       height="85"
       rx="6"
       ry="6"
       x="5"
       y="7"
       id="rect3745"
       style="opacity:0.9;fill:url(#ButtonShadow);fill-opacity:1;fill-rule:nonzero;stroke:none;filter:url(#filter3174)" />
  </g>
  <g
     transform="translate(0,-1.25)"
     id="layer3">
    <path
       d="m 12,-95.03125 c -5.5110903,0 -10.03125,4.52016 -10.03125,10.03125 l 0,71 c 0,5.5110902 4.5201598,10.03125 10.03125,10.03125 l 72,0 c 5.51109,0 10.03125,-4.5201597 10.03125,-10.03125 l 0,-71 c 0,-5.51109 -4.52016,-10.03125 -10.03125,-10.03125 l -72,0 z"
       transform="scale(1,-1)"
       id="path3786"
       style="opacity:0.07999998;fill:url(#linearGradient3026);fill-opacity:1;fill-rule:nonzero;stroke:none;display:inline" />
    <path
       d="m 12,-94.03125 c -4.971633,0 -9.03125,4.059617 -9.03125,9.03125 l 0,71 c 0,4.9716329 4.0596171,9.03125 9.03125,9.03125 l 72,0 c 4.971633,0 9.03125,-4.059617 9.03125,-9.03125 l 0,-71 c 0,-4.971633 -4.059617,-9.03125 -9.03125,-9.03125 l -72,0 z"
       transform="scale(1,-1)"
       id="path3778"
       style="opacity:0.1;fill:url(#linearGradient3780);fill-opacity:1;fill-rule:nonzero;stroke:none;display:inline" />
    <path
       d="m 12,-93 c -4.4091333,0 -8,3.590867 -8,8 l 0,71 c 0,4.4091333 3.5908667,8 8,8 l 72,0 c 4.409133,0 8,-3.5908667 8,-8 l 0,-71 c 0,-4.409133 -3.590867,-8 -8,-8 l -72,0 z"
       transform="scale(1,-1)"
       id="path3770"
       style="opacity:0.2;fill:url(#linearGradient3772);fill-opacity:1;fill-rule:nonzero;stroke:none;display:inline" />
    <rect
       width="86"
       height="85"
       rx="7"
       ry="7"
       x="5"
       y="-92"
       transform="scale(1,-1)"
       id="rect3723"
       style="opacity:0.3;fill:url(#linearGradient3725);fill-opacity:1;fill-rule:nonzero;stroke:none;display:inline" />
    <rect
       width="84"
       height="84"
       rx="6"
       ry="6"
       x="6"
       y="-91"
       transform="scale(1,-1)"
       id="rect3716"
       style="opacity:0.45;fill:url(#linearGradient3721);fill-opacity:1;fill-rule:nonzero;stroke:none;display:inline" />
  </g>
  <g
     id="g4433">
    <rect
       width="84"
       height="84"
       rx="6"
       ry="6"
       x="6"
       y="5.765625"
       id="rect2419-9"
       style="fill:#000000;fill-opacity:1;fill-rule:nonzero;stroke:none" />
    <g
       transform="translate(0,-0.22097087)"
       id="g4425">
      <path
         d="m 126.4375,15.0625 c -0.2105,-0.03294 -0.57899,0.05461 -1.15625,0.28125 -0.2764,0.108525 -0.74255,0.308291 -1.3125,0.65625 -0.56994,0.347959 -1.23478,0.837978 -1.90625,1.5625 -0.84245,0.909016 -1.57252,1.821246 -2.15625,2.78125 -0.58373,0.960003 -1.04593,2.003 -1.40625,3.125 -0.36033,1.122 -0.60901,2.323745 -0.78125,3.71875 -0.17225,1.395004 -0.26177,2.939734 -0.28125,4.71875 -0.0358,3.262644 -0.14535,5.366715 -0.40625,6.15625 -0.13046,0.394767 -0.27774,0.441403 -0.5,0.1875 -0.22225,-0.253902 -0.50603,-0.827164 -0.84375,-1.75 -0.3377,-1.308837 -0.83636,-2.644075 -1.25,-2.875 -0.20682,-0.115462 -0.41238,0.01543 -0.53125,0.59375 -0.11887,0.578322 -0.16537,1.601274 -0.125,3.15625 0.0328,1.261233 0.28653,2.469986 0.6875,3.65625 0.40098,1.186264 0.93989,2.334831 1.5625,3.46875 1.24523,2.267837 2.81029,4.462052 4.0625,6.65625 1.35128,2.367817 3.21792,4.402776 4.65625,6.71875 0.93445,1.504638 2.38814,4.074231 2.5625,4.625 -0.45332,0.233283 -1.45063,0.438445 -2.78125,0.40625 -1.33062,-0.0322 -3.00506,-0.300278 -4.75,-0.9375 -1.2852,-0.469328 -2.23355,-0.819643 -2.90625,-1 -0.67269,-0.180357 -1.05383,-0.184549 -1.15625,0.03125 -0.10242,0.215795 0.0743,0.65587 0.5,1.375 0.42563,0.71913 1.08855,1.701602 2,3.03125 1.03873,1.515326 2.67698,3.342654 4.71875,5.21875 2.04178,1.876096 4.48554,3.802326 7.15625,5.625 1.47739,1.008269 2.47855,1.760129 3.21875,2.25 0.7402,0.489871 1.24568,0.725633 1.8125,0.65625 0.56683,-0.06938 1.16773,-0.424257 2.125,-1.09375 0.95727,-0.669494 2.24472,-1.65829 4.15625,-2.96875 2.66824,-1.829237 5.00395,-3.711374 6.875,-5.5 1.87106,-1.788627 3.27822,-3.486575 4.1875,-4.8125 0.9059,-1.321026 1.56928,-2.287312 1.9375,-2.96875 0.36821,-0.681437 0.4744,-1.060998 0.28125,-1.21875 -0.19314,-0.157753 -0.72185,-0.09378 -1.5,0.15625 -0.77814,0.250026 -1.83194,0.676848 -3.21875,1.21875 -1.50908,0.589701 -2.77909,0.876741 -3.75,1 -0.9709,0.123259 -1.62716,0.07971 -1.875,0.09375 -0.19852,-0.275725 -0.46293,-0.770087 -0.6875,-1.53125 -0.22457,-0.761163 -0.40625,-1.776257 -0.40625,-3.125 0,-1.41673 -0.16674,-2.859525 -0.46875,-4.3125 -0.30201,-1.452975 -0.77946,-2.903546 -1.3125,-4.34375 -1.06608,-2.880406 -2.49824,-5.714772 -4.0625,-8.25 -0.43754,-0.70911 -1.08365,-1.519171 -1.78125,-2.25 -0.69761,-0.730828 -1.43615,-1.371539 -2.03125,-1.6875 -0.28616,-0.151927 -0.41923,-0.106398 -0.46875,0.03125 -0.0495,0.137644 -0.0218,0.366286 0.0625,0.65625 0.16847,0.579929 0.50734,1.321798 0.59375,1.6875 0.22414,0.948695 0.33451,0.946267 0.0312,2.90625 -0.91578,-0.584632 -1.99437,-1.774498 -2.75,-2.96875 -1.02845,-1.625473 -2.04102,-3.47114 -2.96875,-5.4375 -0.92774,-1.966361 -1.74502,-4.047443 -2.34375,-6.09375 -0.59873,-2.046308 -0.98981,-4.072183 -1.03125,-5.9375 -0.0208,-0.932657 0.0574,-1.817765 0.21875,-2.65625 0.16141,-0.838484 0.40919,-1.632057 0.78125,-2.34375 0.30034,-0.574489 0.62846,-1.130924 0.8125,-1.5625 0.18404,-0.431575 0.222,-0.731814 -0.0937,-0.78125 z"
         transform="translate(-86.274629,0.88802443)"
         id="path4293-2"
         style="fill:url(#linearGradient4429);fill-opacity:1;fill-rule:nonzero;stroke:none;filter:url(#filter4387)" />
      <path
         d="m 12,5.9999995 c -3.324,0 -6,2.676 -6,6.0000005 l 0,72 c 0,3.324001 2.676,6 6,6 l 72,0 c 3.324,0 6,-2.675999 6,-6 L 90,12 C 90,8.6759995 87.324,5.9999995 84,5.9999995 l -72,0 z M 40.1875,16.03125 c 0.62977,0.0986 -0.11973,1.19794 -0.71875,2.34375 -2.96833,5.67785 1.24127,15.92228 5.34375,22.406248 0.75354,1.19096 1.8055,2.385733 2.71875,2.968753 0.30239,-1.954583 0.19232,-1.960174 -0.0312,-2.906253 -0.17235,-0.72939 -1.32896,-2.98103 -0.1875,-2.375 1.18693,0.63018 2.93985,2.52319 3.8125,3.937503 3.1199,5.05648 5.8125,11.19245 5.8125,16.84375 0,2.69005 0.69781,4.10632 1.09375,4.65625 0.49431,-0.028 2.61516,0.0824 5.625,-1.09375 5.53196,-2.16163 6.11366,-2.45704 2.5,2.8125 -1.81353,2.64454 -5.70946,6.63286 -11.03125,10.281249 C 47.5,81.133641 49.73703,81.084461 43.8438,77.0625 38.51709,73.4272 34.07173,69.2723 32,66.25 c -3.63577,-5.303929 -3.5641,-5.30964 1.5625,-3.4375 3.48026,1.27093 6.59585,0.996531 7.5,0.53125 -0.17388,-0.54925 -1.63063,-3.12451 -2.5625,-4.625 -1.43437,-2.30959 -3.3087,-4.32621 -4.65625,-6.6875 -2.49751,-4.376289 -6.15063,-8.71897 -6.28125,-13.750002 -0.16105,-6.202758 1.2327,-3.485458 1.90625,-0.874998 1.34716,3.681167 1.6787,1.944798 1.75,-4.5625 0.0777,-7.096452 1.23326,-10.68646 4.59375,-14.3125 1.33924,-1.44505 2.66746,-2.002302 3.21875,-2.21875 0.57567,-0.226011 0.94633,-0.3141 1.15625,-0.28125 z"
         id="rect2419-0"
         style="fill:url(#linearGradient4431);fill-opacity:1;fill-rule:nonzero;stroke:none" />
    </g>
  </g>
  <g
     transform="translate(0,-0.22097087)"
     id="g3103">
    <path
       d="M 12,6 C 8.676,6 6,8.676 6,12 l 0,2 0,68 0,2 c 0,0.334721 0.04135,0.6507 0.09375,0.96875 0.0487,0.295596 0.09704,0.596915 0.1875,0.875 0.00988,0.03038 0.020892,0.0636 0.03125,0.09375 0.098865,0.287771 0.2348802,0.547452 0.375,0.8125 0.1445918,0.273507 0.3156161,0.535615 0.5,0.78125 0.1843839,0.245635 0.3737765,0.473472 0.59375,0.6875 0.439947,0.428056 0.94291,0.814526 1.5,1.09375 0.278545,0.139612 0.5734731,0.246947 0.875,0.34375 -0.2562018,-0.100222 -0.4867109,-0.236272 -0.71875,-0.375 -0.00741,-0.0044 -0.023866,0.0045 -0.03125,0 -0.031933,-0.0193 -0.062293,-0.04251 -0.09375,-0.0625 -0.120395,-0.0767 -0.2310226,-0.163513 -0.34375,-0.25 -0.1061728,-0.0808 -0.2132809,-0.161112 -0.3125,-0.25 C 8.4783201,88.557317 8.3087904,88.373362 8.15625,88.1875 8.0486711,88.057245 7.9378561,87.922215 7.84375,87.78125 7.818661,87.74287 7.805304,87.69538 7.78125,87.65625 7.716487,87.553218 7.6510225,87.451733 7.59375,87.34375 7.4927417,87.149044 7.3880752,86.928049 7.3125,86.71875 7.30454,86.69694 7.288911,86.6782 7.28125,86.65625 7.2494249,86.5643 7.2454455,86.469419 7.21875,86.375 7.1884177,86.268382 7.1483606,86.171969 7.125,86.0625 7.0521214,85.720988 7,85.364295 7,85 L 7,83 7,15 7,13 C 7,10.218152 9.2181517,8 12,8 l 2,0 68,0 2,0 c 2.781848,0 5,2.218152 5,5 l 0,2 0,68 0,2 c 0,0.364295 -0.05212,0.720988 -0.125,1.0625 -0.04415,0.206893 -0.08838,0.397658 -0.15625,0.59375 -0.0077,0.02195 -0.0233,0.04069 -0.03125,0.0625 -0.06274,0.173739 -0.138383,0.367449 -0.21875,0.53125 -0.04158,0.0828 -0.07904,0.169954 -0.125,0.25 -0.0546,0.09721 -0.126774,0.18835 -0.1875,0.28125 -0.09411,0.140965 -0.204921,0.275995 -0.3125,0.40625 -0.143174,0.17445 -0.303141,0.346998 -0.46875,0.5 -0.01117,0.0102 -0.01998,0.02115 -0.03125,0.03125 -0.138386,0.125556 -0.285091,0.234436 -0.4375,0.34375 -0.102571,0.07315 -0.204318,0.153364 -0.3125,0.21875 -0.0074,0.0045 -0.02384,-0.0044 -0.03125,0 -0.232039,0.138728 -0.462548,0.274778 -0.71875,0.375 0.301527,-0.0968 0.596455,-0.204138 0.875,-0.34375 0.55709,-0.279224 1.060053,-0.665694 1.5,-1.09375 0.219973,-0.214028 0.409366,-0.441865 0.59375,-0.6875 0.184384,-0.245635 0.355408,-0.507743 0.5,-0.78125 0.14012,-0.265048 0.276135,-0.524729 0.375,-0.8125 0.01041,-0.03078 0.02133,-0.06274 0.03125,-0.09375 0.09046,-0.278085 0.1388,-0.579404 0.1875,-0.875 C 89.95865,84.6507 90,84.334721 90,84 l 0,-2 0,-68 0,-2 C 90,8.676 87.324,6 84,6 L 12,6 z"
       id="rect3728"
       style="opacity:0.35;fill:url(#linearGradient3079);fill-opacity:1;fill-rule:nonzero;stroke:none" />
    <path
       d="M 12,90 C 8.676,90 6,87.324 6,84 L 6,82 6,14 6,12 c 0,-0.334721 0.04135,-0.6507 0.09375,-0.96875 0.0487,-0.295596 0.09704,-0.596915 0.1875,-0.875 C 6.29113,10.12587 6.302142,10.09265 6.3125,10.0625 6.411365,9.774729 6.5473802,9.515048 6.6875,9.25 6.8320918,8.976493 7.0031161,8.714385 7.1875,8.46875 7.3718839,8.223115 7.5612765,7.995278 7.78125,7.78125 8.221197,7.353194 8.72416,6.966724 9.28125,6.6875 9.559795,6.547888 9.8547231,6.440553 10.15625,6.34375 9.9000482,6.443972 9.6695391,6.580022 9.4375,6.71875 c -0.00741,0.0044 -0.023866,-0.0045 -0.03125,0 -0.031933,0.0193 -0.062293,0.04251 -0.09375,0.0625 -0.120395,0.0767 -0.2310226,0.163513 -0.34375,0.25 -0.1061728,0.0808 -0.2132809,0.161112 -0.3125,0.25 C 8.4783201,7.442683 8.3087904,7.626638 8.15625,7.8125 8.0486711,7.942755 7.9378561,8.077785 7.84375,8.21875 7.818661,8.25713 7.805304,8.30462 7.78125,8.34375 7.716487,8.446782 7.6510225,8.548267 7.59375,8.65625 7.4927417,8.850956 7.3880752,9.071951 7.3125,9.28125 7.30454,9.30306 7.288911,9.3218 7.28125,9.34375 7.2494249,9.4357 7.2454455,9.530581 7.21875,9.625 7.1884177,9.731618 7.1483606,9.828031 7.125,9.9375 7.0521214,10.279012 7,10.635705 7,11 l 0,2 0,68 0,2 c 0,2.781848 2.2181517,5 5,5 l 2,0 68,0 2,0 c 2.781848,0 5,-2.218152 5,-5 l 0,-2 0,-68 0,-2 C 89,10.635705 88.94788,10.279012 88.875,9.9375 88.83085,9.730607 88.78662,9.539842 88.71875,9.34375 88.71105,9.3218 88.69545,9.30306 88.6875,9.28125 88.62476,9.107511 88.549117,8.913801 88.46875,8.75 88.42717,8.6672 88.38971,8.580046 88.34375,8.5 88.28915,8.40279 88.216976,8.31165 88.15625,8.21875 88.06214,8.077785 87.951329,7.942755 87.84375,7.8125 87.700576,7.63805 87.540609,7.465502 87.375,7.3125 87.36383,7.3023 87.35502,7.29135 87.34375,7.28125 87.205364,7.155694 87.058659,7.046814 86.90625,6.9375 86.803679,6.86435 86.701932,6.784136 86.59375,6.71875 c -0.0074,-0.0045 -0.02384,0.0044 -0.03125,0 -0.232039,-0.138728 -0.462548,-0.274778 -0.71875,-0.375 0.301527,0.0968 0.596455,0.204138 0.875,0.34375 0.55709,0.279224 1.060053,0.665694 1.5,1.09375 0.219973,0.214028 0.409366,0.441865 0.59375,0.6875 0.184384,0.245635 0.355408,0.507743 0.5,0.78125 0.14012,0.265048 0.276135,0.524729 0.375,0.8125 0.01041,0.03078 0.02133,0.06274 0.03125,0.09375 0.09046,0.278085 0.1388,0.579404 0.1875,0.875 C 89.95865,11.3493 90,11.665279 90,12 l 0,2 0,68 0,2 c 0,3.324 -2.676,6 -6,6 l -72,0 z"
       id="path3615"
       style="opacity:0.2;fill:url(#radialGradient3076);fill-opacity:1;fill-rule:nonzero;stroke:none" />
  </g>
</svg>
