/* XPM */
static char *opera_xpm[] = {
"48 48 3 1",
"0	c #FF0000",
"1	c #000000",
"2	c #FFFFFF",
"222222222222222222222222222222222222222222222222",
"211111111111111111111111111111111111111111111222",
"211111111111111111111111111111111111111111111222",
"211000000000000000000000000000000000000000011112",
"211000000000000000000000000000000000000000011112",
"211000000000000001111111111111000000000000011112",
"211000000000000111111111111111110000000000011112",
"211000000000011111111111111111111000000000011112",
"211000000000111111111000001111111100000000011112",
"211000000000111111100000000111111110000000011112",
"211000000001111111100000000011111111000000011112",
"211000000011111111000000000011111111000000011112",
"211000000011111111000000000001111111100000011112",
"211000000011111111000000000001111111100000011112",
"211000000111111111000000000001111111100000011112",
"211000000111111110000000000001111111100000011112",
"211000000111111110000000000001111111100000011112",
"211000000111111110000000000001111111100000011112",
"211000000111111110000000000001111111100000011112",
"211000000111111110000000000001111111100000011112",
"211000000111111110000000000001111111100000011112",
"211000000111111110000000000001111111100000011112",
"211000000111111111000000000001111111100000011112",
"211000000011111111000000000001111111100000011112",
"211000000011111111000000000011111111000000011112",
"211000000001111111100000000011111111000000011112",
"211000000001111111100000000011111110000000011112",
"211000000000111111110000000111111110000000011112",
"211000000000011111111000011111111100000000011112",
"211000000000001111111111111111110000000000011112",
"211000000000000011111111111111100000000000011112",
"211000000000000000011111111100000000000000011112",
"211000000000000000000000000000000000000000011112",
"211000000000000000000000000000000000000000011112",
"211000000011100111100111110111100011100000011112",
"211000000100010100010100000100010100010000011112",
"211000000100010100010100000100010100010000011112",
"211000000100010100010111110100010100010000011112",
"211000000100010111100100000111100111110000011112",
"211000000100010100000100000100010100010000011112",
"211000000011100100000111110100010100010000011112",
"211000000000000000000000000000000000000000011112",
"211000000000000000000000000000000000000000011112",
"211111111111111111111111111111111111111111111112",
"211111111111111111111111111111111111111111111112",
"222111111111111111111111111111111111111111111112",
"222111111111111111111111111111111111111111111112",
"222222222222222222222222222222222222222222222222"
};
