<?xml version="1.0" encoding="UTF-8" standalone="no"?>
<!-- Created with Inkscape (http://www.inkscape.org/) -->

<svg
   xmlns:dc="http://purl.org/dc/elements/1.1/"
   xmlns:cc="http://creativecommons.org/ns#"
   xmlns:rdf="http://www.w3.org/1999/02/22-rdf-syntax-ns#"
   xmlns:svg="http://www.w3.org/2000/svg"
   xmlns="http://www.w3.org/2000/svg"
   xmlns:xlink="http://www.w3.org/1999/xlink"
   xmlns:sodipodi="http://sodipodi.sourceforge.net/DTD/sodipodi-0.dtd"
   xmlns:inkscape="http://www.inkscape.org/namespaces/inkscape"
   width="256"
   height="256"
   id="svg2"
   sodipodi:version="0.32"
   inkscape:version="0.47pre4 r22446"
   version="1.0"
   sodipodi:docname="video-x-generic.svg"
   inkscape:output_extension="org.inkscape.output.svg.inkscape">
  <defs
     id="defs4">
    <linearGradient
       id="linearGradient3242">
      <stop
         style="stop-color:#dddddd;stop-opacity:1"
         offset="0"
         id="stop3244" />
      <stop
         style="stop-color:#dddddd;stop-opacity:0.73333335;"
         offset="1"
         id="stop3246" />
    </linearGradient>
    <linearGradient
       id="linearGradient3218">
      <stop
         id="stop3220"
         offset="0"
         style="stop-color:#dddddd;stop-opacity:1;" />
      <stop
         id="stop3222"
         offset="1"
         style="stop-color:#dddddd;stop-opacity:1" />
    </linearGradient>
    <inkscape:perspective
       sodipodi:type="inkscape:persp3d"
       inkscape:vp_x="0 : 526.18109 : 1"
       inkscape:vp_y="0 : 1000 : 0"
       inkscape:vp_z="744.09448 : 526.18109 : 1"
       inkscape:persp3d-origin="372.04724 : 350.78739 : 1"
       id="perspective10" />
    <inkscape:perspective
       id="perspective2390"
       inkscape:persp3d-origin="372.04724 : 350.78739 : 1"
       inkscape:vp_z="744.09448 : 526.18109 : 1"
       inkscape:vp_y="0 : 1000 : 0"
       inkscape:vp_x="0 : 526.18109 : 1"
       sodipodi:type="inkscape:persp3d" />
    <linearGradient
       gradientTransform="matrix(0.4584837,0,0,0.4584837,12.357625,81.058821)"
       y2="50.573639"
       x2="215.89148"
       y1="113.36433"
       x1="155.81395"
       spreadMethod="reflect"
       gradientUnits="userSpaceOnUse"
       id="linearGradient3403"
       xlink:href="#linearGradient3369"
       inkscape:collect="always" />
    <linearGradient
       y2="78.617943"
       x2="-79.282944"
       y1="145.67221"
       x1="-81.182167"
       gradientUnits="userSpaceOnUse"
       id="linearGradient3397"
       xlink:href="#linearGradient3387"
       inkscape:collect="always" />
    <linearGradient
       gradientUnits="userSpaceOnUse"
       y2="78.617943"
       x2="-79.282944"
       y1="145.67221"
       x1="-81.182167"
       id="linearGradient3393"
       xlink:href="#linearGradient3387"
       inkscape:collect="always" />
    <linearGradient
       spreadMethod="reflect"
       gradientUnits="userSpaceOnUse"
       y2="50.573639"
       x2="215.89148"
       y1="113.36433"
       x1="155.81395"
       id="linearGradient3375"
       xlink:href="#linearGradient3369"
       inkscape:collect="always" />
    <linearGradient
       y2="-7.4748664"
       x2="16.093008"
       y1="-7.4748664"
       x1="13.514812"
       spreadMethod="reflect"
       gradientUnits="userSpaceOnUse"
       id="linearGradient2595"
       xlink:href="#linearGradient3578"
       inkscape:collect="always" />
    <linearGradient
       y2="-7.4748664"
       x2="16.093008"
       y1="-7.4748664"
       x1="13.514812"
       spreadMethod="reflect"
       gradientUnits="userSpaceOnUse"
       id="linearGradient2593"
       xlink:href="#linearGradient3578"
       inkscape:collect="always" />
    <linearGradient
       y2="-7.4748664"
       x2="16.093008"
       y1="-7.4748664"
       x1="13.514812"
       spreadMethod="reflect"
       gradientUnits="userSpaceOnUse"
       id="linearGradient2591"
       xlink:href="#linearGradient3578"
       inkscape:collect="always" />
    <linearGradient
       y2="-7.4748664"
       x2="16.093008"
       y1="-7.4748664"
       x1="13.514812"
       spreadMethod="reflect"
       gradientUnits="userSpaceOnUse"
       id="linearGradient2589"
       xlink:href="#linearGradient3578"
       inkscape:collect="always" />
    <linearGradient
       y2="-7.4748664"
       x2="16.093008"
       y1="-7.4748664"
       x1="13.514812"
       spreadMethod="reflect"
       gradientUnits="userSpaceOnUse"
       id="linearGradient2587"
       xlink:href="#linearGradient3578"
       inkscape:collect="always" />
    <linearGradient
       y2="-7.4748664"
       x2="16.093008"
       y1="-7.4748664"
       x1="13.514812"
       spreadMethod="reflect"
       gradientUnits="userSpaceOnUse"
       id="linearGradient2585"
       xlink:href="#linearGradient3578"
       inkscape:collect="always" />
    <linearGradient
       y2="-7.4748664"
       x2="16.093008"
       y1="-7.4748664"
       x1="13.514812"
       spreadMethod="reflect"
       gradientUnits="userSpaceOnUse"
       id="linearGradient2583"
       xlink:href="#linearGradient3578"
       inkscape:collect="always" />
    <linearGradient
       y2="-7.4748664"
       x2="16.093008"
       y1="-7.4748664"
       x1="13.514812"
       spreadMethod="reflect"
       gradientUnits="userSpaceOnUse"
       id="linearGradient2581"
       xlink:href="#linearGradient3578"
       inkscape:collect="always" />
    <linearGradient
       y2="-7.4748664"
       x2="16.093008"
       y1="-7.4748664"
       x1="13.514812"
       spreadMethod="reflect"
       gradientUnits="userSpaceOnUse"
       id="linearGradient2579"
       xlink:href="#linearGradient3578"
       inkscape:collect="always" />
    <linearGradient
       y2="-7.4748664"
       x2="16.093008"
       y1="-7.4748664"
       x1="13.514812"
       spreadMethod="reflect"
       gradientUnits="userSpaceOnUse"
       id="linearGradient2577"
       xlink:href="#linearGradient3578"
       inkscape:collect="always" />
    <linearGradient
       y2="-7.4748664"
       x2="16.093008"
       y1="-7.4748664"
       x1="13.514812"
       spreadMethod="reflect"
       gradientUnits="userSpaceOnUse"
       id="linearGradient2575"
       xlink:href="#linearGradient3578"
       inkscape:collect="always" />
    <linearGradient
       y2="-7.4748664"
       x2="16.093008"
       y1="-7.4748664"
       x1="13.514812"
       spreadMethod="reflect"
       gradientUnits="userSpaceOnUse"
       id="linearGradient2573"
       xlink:href="#linearGradient3578"
       inkscape:collect="always" />
    <linearGradient
       y2="-7.4748664"
       x2="16.093008"
       y1="-7.4748664"
       x1="13.514812"
       spreadMethod="reflect"
       gradientUnits="userSpaceOnUse"
       id="linearGradient2571"
       xlink:href="#linearGradient3578"
       inkscape:collect="always" />
    <linearGradient
       y2="-7.4748664"
       x2="16.093008"
       y1="-7.4748664"
       x1="13.514812"
       spreadMethod="reflect"
       gradientUnits="userSpaceOnUse"
       id="linearGradient2569"
       xlink:href="#linearGradient3578"
       inkscape:collect="always" />
    <linearGradient
       y2="-7.4748664"
       x2="16.093008"
       y1="-7.4748664"
       x1="13.514812"
       spreadMethod="reflect"
       gradientUnits="userSpaceOnUse"
       id="linearGradient2567"
       xlink:href="#linearGradient3578"
       inkscape:collect="always" />
    <linearGradient
       y2="-7.4748664"
       x2="16.093008"
       y1="-7.4748664"
       x1="13.514812"
       spreadMethod="reflect"
       gradientUnits="userSpaceOnUse"
       id="linearGradient2565"
       xlink:href="#linearGradient3578"
       inkscape:collect="always" />
    <linearGradient
       y2="-7.4748664"
       x2="16.093008"
       y1="-7.4748664"
       x1="13.514812"
       spreadMethod="reflect"
       gradientUnits="userSpaceOnUse"
       id="linearGradient2563"
       xlink:href="#linearGradient3578"
       inkscape:collect="always" />
    <linearGradient
       y2="-7.4748664"
       x2="16.093008"
       y1="-7.4748664"
       x1="13.514812"
       spreadMethod="reflect"
       gradientUnits="userSpaceOnUse"
       id="linearGradient2561"
       xlink:href="#linearGradient3578"
       inkscape:collect="always" />
    <linearGradient
       y2="-7.4748664"
       x2="16.093008"
       y1="-7.4748664"
       x1="13.514812"
       spreadMethod="reflect"
       gradientUnits="userSpaceOnUse"
       id="linearGradient2559"
       xlink:href="#linearGradient3578"
       inkscape:collect="always" />
    <linearGradient
       y2="-7.4748664"
       x2="16.093008"
       y1="-7.4748664"
       x1="13.514812"
       spreadMethod="reflect"
       gradientUnits="userSpaceOnUse"
       id="linearGradient2557"
       xlink:href="#linearGradient3578"
       inkscape:collect="always" />
    <linearGradient
       y2="-7.4748664"
       x2="16.093008"
       y1="-7.4748664"
       x1="13.514812"
       spreadMethod="reflect"
       gradientUnits="userSpaceOnUse"
       id="linearGradient2555"
       xlink:href="#linearGradient3578"
       inkscape:collect="always" />
    <linearGradient
       y2="-7.4748664"
       x2="16.093008"
       y1="-7.4748664"
       x1="13.514812"
       spreadMethod="reflect"
       gradientUnits="userSpaceOnUse"
       id="linearGradient2553"
       xlink:href="#linearGradient3578"
       inkscape:collect="always" />
    <linearGradient
       y2="-7.4748664"
       x2="16.093008"
       y1="-7.4748664"
       x1="13.514812"
       spreadMethod="reflect"
       gradientUnits="userSpaceOnUse"
       id="linearGradient2551"
       xlink:href="#linearGradient3578"
       inkscape:collect="always" />
    <linearGradient
       y2="-7.4748664"
       x2="16.093008"
       y1="-2.2096405"
       x1="15.650429"
       spreadMethod="reflect"
       gradientUnits="userSpaceOnUse"
       id="linearGradient3610"
       xlink:href="#linearGradient3578"
       inkscape:collect="always" />
    <linearGradient
       y2="-7.4748664"
       x2="16.093008"
       y1="-6.4087667"
       x1="10.621114"
       spreadMethod="reflect"
       gradientUnits="userSpaceOnUse"
       id="linearGradient3608"
       xlink:href="#linearGradient3578"
       inkscape:collect="always" />
    <linearGradient
       y2="-1.5134122"
       x2="9.7181683"
       y1="-5.8865957"
       x1="11.186799"
       spreadMethod="reflect"
       gradientUnits="userSpaceOnUse"
       id="linearGradient3606"
       xlink:href="#linearGradient3578"
       inkscape:collect="always" />
    <linearGradient
       y2="-4.5158963"
       x2="12.916467"
       y1="-3.7543969"
       x1="7.7709298"
       spreadMethod="reflect"
       gradientUnits="userSpaceOnUse"
       id="linearGradient3604"
       xlink:href="#linearGradient3578"
       inkscape:collect="always" />
    <linearGradient
       y2="-3.7326398"
       x2="14.93988"
       y1="-2.2749119"
       x1="17.082983"
       spreadMethod="reflect"
       gradientUnits="userSpaceOnUse"
       id="linearGradient3602"
       xlink:href="#linearGradient3578"
       inkscape:collect="always" />
    <linearGradient
       y2="-1.9920692"
       x2="17.376678"
       y1="-6.2564669"
       x1="15.58174"
       spreadMethod="reflect"
       gradientUnits="userSpaceOnUse"
       id="linearGradient3600"
       xlink:href="#linearGradient3578"
       inkscape:collect="always" />
    <linearGradient
       y2="-7.4748664"
       x2="16.093008"
       y1="-10.977764"
       x1="16.691353"
       spreadMethod="reflect"
       gradientUnits="userSpaceOnUse"
       id="linearGradient3598"
       xlink:href="#linearGradient3578"
       inkscape:collect="always" />
    <linearGradient
       y2="-11.199143"
       x2="11.132382"
       y1="-11.39115"
       x1="16.386753"
       spreadMethod="reflect"
       gradientUnits="userSpaceOnUse"
       id="linearGradient3596"
       xlink:href="#linearGradient3578"
       inkscape:collect="always" />
    <linearGradient
       y2="-2.6882975"
       x2="8.6955833"
       y1="-11.586965"
       x1="12.035328"
       spreadMethod="reflect"
       gradientUnits="userSpaceOnUse"
       id="linearGradient3594"
       xlink:href="#linearGradient3578"
       inkscape:collect="always" />
    <linearGradient
       y2="-5.7778101"
       x2="11.371711"
       y1="-10.150993"
       x1="12.905613"
       spreadMethod="reflect"
       gradientUnits="userSpaceOnUse"
       id="linearGradient3592"
       xlink:href="#linearGradient3578"
       inkscape:collect="always" />
    <linearGradient
       y2="-6.9526954"
       x2="17.74655"
       y1="-5.9083529"
       x1="16.386753"
       spreadMethod="reflect"
       gradientUnits="userSpaceOnUse"
       id="linearGradient3590"
       xlink:href="#linearGradient3578"
       inkscape:collect="always" />
    <linearGradient
       y2="-8.018795"
       x2="17.07476"
       y1="-7.4748664"
       x1="13.514812"
       spreadMethod="reflect"
       gradientUnits="userSpaceOnUse"
       id="linearGradient3588"
       xlink:href="#linearGradient3578"
       inkscape:collect="always" />
    <linearGradient
       y2="-6.5828238"
       x2="18.616835"
       y1="-5.2121248"
       x1="16.908924"
       spreadMethod="reflect"
       gradientUnits="userSpaceOnUse"
       id="linearGradient3586"
       xlink:href="#linearGradient3578"
       inkscape:collect="always" />
    <linearGradient
       spreadMethod="reflect"
       gradientUnits="userSpaceOnUse"
       y2="-7.4748664"
       x2="16.093008"
       y1="-7.4748664"
       x1="13.514812"
       id="linearGradient3584"
       xlink:href="#linearGradient3578"
       inkscape:collect="always" />
    <inkscape:perspective
       sodipodi:type="inkscape:persp3d"
       inkscape:vp_x="0 : 128 : 1"
       inkscape:vp_y="0 : 1000 : 0"
       inkscape:vp_z="256 : 128 : 1"
       inkscape:persp3d-origin="128 : 85.333333 : 1"
       id="perspective2503" />
    <linearGradient
       id="linearGradient3578">
      <stop
         id="stop3580"
         offset="0"
         style="stop-color:#000000;stop-opacity:1;" />
      <stop
         id="stop3582"
         offset="1"
         style="stop-color:#fffcfc;stop-opacity:1;" />
    </linearGradient>
    <linearGradient
       id="linearGradient3369"
       inkscape:collect="always">
      <stop
         id="stop3371"
         offset="0"
         style="stop-color:#6465df;stop-opacity:1" />
      <stop
         id="stop3373"
         offset="1"
         style="stop-color:#dddddd;stop-opacity:1" />
    </linearGradient>
    <linearGradient
       id="linearGradient3387"
       inkscape:collect="always">
      <stop
         id="stop3389"
         offset="0"
         style="stop-color:#000000;stop-opacity:1;" />
      <stop
         id="stop3391"
         offset="1"
         style="stop-color:#dddddd;stop-opacity:1" />
    </linearGradient>
    <linearGradient
       inkscape:collect="always"
       xlink:href="#linearGradient3218"
       id="linearGradient2488"
       gradientUnits="userSpaceOnUse"
       gradientTransform="matrix(1.1283429,0,0,1.1365179,-270.03277,-32.496472)"
       x1="110.78604"
       y1="200.12624"
       x2="109.9457"
       y2="51.818779" />
    <linearGradient
       inkscape:collect="always"
       xlink:href="#linearGradient3242"
       id="linearGradient2490"
       gradientUnits="userSpaceOnUse"
       gradientTransform="matrix(1.1283429,0,0,1.1365179,-270.03277,-32.496472)"
       x1="129.05124"
       y1="200.52469"
       x2="129.05124"
       y2="48.815548" />
    <linearGradient
       inkscape:collect="always"
       xlink:href="#linearGradient3218"
       id="linearGradient3271"
       x1="148.06017"
       y1="241.2657"
       x2="140.34564"
       y2="7.4492745"
       gradientUnits="userSpaceOnUse" />
    <linearGradient
       inkscape:collect="always"
       xlink:href="#linearGradient3242"
       id="linearGradient3279"
       x1="171.24857"
       y1="242.71498"
       x2="175.12825"
       y2="-2.2125609"
       gradientUnits="userSpaceOnUse" />
    <linearGradient
       id="linearGradient2960">
      <stop
         style="stop-color:#000000;stop-opacity:1;"
         offset="0"
         id="stop2962" />
      <stop
         style="stop-color:#fffcfc;stop-opacity:1;"
         offset="1"
         id="stop2964" />
    </linearGradient>
    <inkscape:perspective
       id="perspective2958"
       inkscape:persp3d-origin="128 : 85.333333 : 1"
       inkscape:vp_z="256 : 128 : 1"
       inkscape:vp_y="0 : 1000 : 0"
       inkscape:vp_x="0 : 128 : 1"
       sodipodi:type="inkscape:persp3d" />
    <linearGradient
       inkscape:collect="always"
       xlink:href="#linearGradient3578"
       id="linearGradient2956"
       x1="13.514812"
       y1="-7.4748664"
       x2="16.093008"
       y2="-7.4748664"
       gradientUnits="userSpaceOnUse"
       spreadMethod="reflect" />
    <linearGradient
       inkscape:collect="always"
       xlink:href="#linearGradient3578"
       id="linearGradient2954"
       gradientUnits="userSpaceOnUse"
       spreadMethod="reflect"
       x1="16.908924"
       y1="-5.2121248"
       x2="18.616835"
       y2="-6.5828238" />
    <linearGradient
       inkscape:collect="always"
       xlink:href="#linearGradient3578"
       id="linearGradient2952"
       gradientUnits="userSpaceOnUse"
       spreadMethod="reflect"
       x1="13.514812"
       y1="-7.4748664"
       x2="17.07476"
       y2="-8.018795" />
    <linearGradient
       inkscape:collect="always"
       xlink:href="#linearGradient3578"
       id="linearGradient2950"
       gradientUnits="userSpaceOnUse"
       spreadMethod="reflect"
       x1="16.386753"
       y1="-5.9083529"
       x2="17.74655"
       y2="-6.9526954" />
    <linearGradient
       inkscape:collect="always"
       xlink:href="#linearGradient3578"
       id="linearGradient2948"
       gradientUnits="userSpaceOnUse"
       spreadMethod="reflect"
       x1="12.905613"
       y1="-10.150993"
       x2="11.371711"
       y2="-5.7778101" />
    <linearGradient
       inkscape:collect="always"
       xlink:href="#linearGradient3578"
       id="linearGradient2946"
       gradientUnits="userSpaceOnUse"
       spreadMethod="reflect"
       x1="12.035328"
       y1="-11.586965"
       x2="8.6955833"
       y2="-2.6882975" />
    <linearGradient
       inkscape:collect="always"
       xlink:href="#linearGradient3578"
       id="linearGradient2944"
       gradientUnits="userSpaceOnUse"
       spreadMethod="reflect"
       x1="16.386753"
       y1="-11.39115"
       x2="11.132382"
       y2="-11.199143" />
    <linearGradient
       inkscape:collect="always"
       xlink:href="#linearGradient3578"
       id="linearGradient2942"
       gradientUnits="userSpaceOnUse"
       spreadMethod="reflect"
       x1="16.691353"
       y1="-10.977764"
       x2="16.093008"
       y2="-7.4748664" />
    <linearGradient
       inkscape:collect="always"
       xlink:href="#linearGradient3578"
       id="linearGradient2940"
       gradientUnits="userSpaceOnUse"
       spreadMethod="reflect"
       x1="15.58174"
       y1="-6.2564669"
       x2="17.376678"
       y2="-1.9920692" />
    <linearGradient
       inkscape:collect="always"
       xlink:href="#linearGradient3578"
       id="linearGradient2938"
       gradientUnits="userSpaceOnUse"
       spreadMethod="reflect"
       x1="17.082983"
       y1="-2.2749119"
       x2="14.93988"
       y2="-3.7326398" />
    <linearGradient
       inkscape:collect="always"
       xlink:href="#linearGradient3578"
       id="linearGradient2936"
       gradientUnits="userSpaceOnUse"
       spreadMethod="reflect"
       x1="7.7709298"
       y1="-3.7543969"
       x2="12.916467"
       y2="-4.5158963" />
    <linearGradient
       inkscape:collect="always"
       xlink:href="#linearGradient3578"
       id="linearGradient2934"
       gradientUnits="userSpaceOnUse"
       spreadMethod="reflect"
       x1="11.186799"
       y1="-5.8865957"
       x2="9.7181683"
       y2="-1.5134122" />
    <linearGradient
       inkscape:collect="always"
       xlink:href="#linearGradient3578"
       id="linearGradient2932"
       gradientUnits="userSpaceOnUse"
       spreadMethod="reflect"
       x1="10.621114"
       y1="-6.4087667"
       x2="16.093008"
       y2="-7.4748664" />
    <linearGradient
       inkscape:collect="always"
       xlink:href="#linearGradient3578"
       id="linearGradient2930"
       gradientUnits="userSpaceOnUse"
       spreadMethod="reflect"
       x1="15.650429"
       y1="-2.2096405"
       x2="16.093008"
       y2="-7.4748664" />
    <linearGradient
       inkscape:collect="always"
       xlink:href="#linearGradient3578"
       id="linearGradient2928"
       gradientUnits="userSpaceOnUse"
       spreadMethod="reflect"
       x1="13.514812"
       y1="-7.4748664"
       x2="16.093008"
       y2="-7.4748664" />
    <linearGradient
       inkscape:collect="always"
       xlink:href="#linearGradient3578"
       id="linearGradient2926"
       gradientUnits="userSpaceOnUse"
       spreadMethod="reflect"
       x1="13.514812"
       y1="-7.4748664"
       x2="16.093008"
       y2="-7.4748664" />
    <linearGradient
       inkscape:collect="always"
       xlink:href="#linearGradient3578"
       id="linearGradient2924"
       gradientUnits="userSpaceOnUse"
       spreadMethod="reflect"
       x1="13.514812"
       y1="-7.4748664"
       x2="16.093008"
       y2="-7.4748664" />
    <linearGradient
       inkscape:collect="always"
       xlink:href="#linearGradient3578"
       id="linearGradient2922"
       gradientUnits="userSpaceOnUse"
       spreadMethod="reflect"
       x1="13.514812"
       y1="-7.4748664"
       x2="16.093008"
       y2="-7.4748664" />
    <linearGradient
       inkscape:collect="always"
       xlink:href="#linearGradient3578"
       id="linearGradient2920"
       gradientUnits="userSpaceOnUse"
       spreadMethod="reflect"
       x1="13.514812"
       y1="-7.4748664"
       x2="16.093008"
       y2="-7.4748664" />
    <linearGradient
       inkscape:collect="always"
       xlink:href="#linearGradient3578"
       id="linearGradient2918"
       gradientUnits="userSpaceOnUse"
       spreadMethod="reflect"
       x1="13.514812"
       y1="-7.4748664"
       x2="16.093008"
       y2="-7.4748664" />
    <linearGradient
       inkscape:collect="always"
       xlink:href="#linearGradient3578"
       id="linearGradient2916"
       gradientUnits="userSpaceOnUse"
       spreadMethod="reflect"
       x1="13.514812"
       y1="-7.4748664"
       x2="16.093008"
       y2="-7.4748664" />
    <linearGradient
       inkscape:collect="always"
       xlink:href="#linearGradient3578"
       id="linearGradient2914"
       gradientUnits="userSpaceOnUse"
       spreadMethod="reflect"
       x1="13.514812"
       y1="-7.4748664"
       x2="16.093008"
       y2="-7.4748664" />
    <linearGradient
       inkscape:collect="always"
       xlink:href="#linearGradient3578"
       id="linearGradient2912"
       gradientUnits="userSpaceOnUse"
       spreadMethod="reflect"
       x1="13.514812"
       y1="-7.4748664"
       x2="16.093008"
       y2="-7.4748664" />
    <linearGradient
       inkscape:collect="always"
       xlink:href="#linearGradient3578"
       id="linearGradient2910"
       gradientUnits="userSpaceOnUse"
       spreadMethod="reflect"
       x1="13.514812"
       y1="-7.4748664"
       x2="16.093008"
       y2="-7.4748664" />
    <linearGradient
       inkscape:collect="always"
       xlink:href="#linearGradient3578"
       id="linearGradient2908"
       gradientUnits="userSpaceOnUse"
       spreadMethod="reflect"
       x1="13.514812"
       y1="-7.4748664"
       x2="16.093008"
       y2="-7.4748664" />
    <linearGradient
       inkscape:collect="always"
       xlink:href="#linearGradient3578"
       id="linearGradient2906"
       gradientUnits="userSpaceOnUse"
       spreadMethod="reflect"
       x1="13.514812"
       y1="-7.4748664"
       x2="16.093008"
       y2="-7.4748664" />
    <linearGradient
       inkscape:collect="always"
       xlink:href="#linearGradient3578"
       id="linearGradient2904"
       gradientUnits="userSpaceOnUse"
       spreadMethod="reflect"
       x1="13.514812"
       y1="-7.4748664"
       x2="16.093008"
       y2="-7.4748664" />
    <linearGradient
       inkscape:collect="always"
       xlink:href="#linearGradient3578"
       id="linearGradient2902"
       gradientUnits="userSpaceOnUse"
       spreadMethod="reflect"
       x1="13.514812"
       y1="-7.4748664"
       x2="16.093008"
       y2="-7.4748664" />
    <linearGradient
       inkscape:collect="always"
       xlink:href="#linearGradient3578"
       id="linearGradient2900"
       gradientUnits="userSpaceOnUse"
       spreadMethod="reflect"
       x1="13.514812"
       y1="-7.4748664"
       x2="16.093008"
       y2="-7.4748664" />
    <linearGradient
       inkscape:collect="always"
       xlink:href="#linearGradient3578"
       id="linearGradient2898"
       gradientUnits="userSpaceOnUse"
       spreadMethod="reflect"
       x1="13.514812"
       y1="-7.4748664"
       x2="16.093008"
       y2="-7.4748664" />
    <linearGradient
       inkscape:collect="always"
       xlink:href="#linearGradient3578"
       id="linearGradient2896"
       gradientUnits="userSpaceOnUse"
       spreadMethod="reflect"
       x1="13.514812"
       y1="-7.4748664"
       x2="16.093008"
       y2="-7.4748664" />
    <linearGradient
       inkscape:collect="always"
       xlink:href="#linearGradient3578"
       id="linearGradient2894"
       gradientUnits="userSpaceOnUse"
       spreadMethod="reflect"
       x1="13.514812"
       y1="-7.4748664"
       x2="16.093008"
       y2="-7.4748664" />
    <linearGradient
       inkscape:collect="always"
       xlink:href="#linearGradient3578"
       id="linearGradient2892"
       gradientUnits="userSpaceOnUse"
       spreadMethod="reflect"
       x1="13.514812"
       y1="-7.4748664"
       x2="16.093008"
       y2="-7.4748664" />
    <linearGradient
       inkscape:collect="always"
       xlink:href="#linearGradient3578"
       id="linearGradient2890"
       gradientUnits="userSpaceOnUse"
       spreadMethod="reflect"
       x1="13.514812"
       y1="-7.4748664"
       x2="16.093008"
       y2="-7.4748664" />
    <linearGradient
       inkscape:collect="always"
       xlink:href="#linearGradient3578"
       id="linearGradient2888"
       gradientUnits="userSpaceOnUse"
       spreadMethod="reflect"
       x1="13.514812"
       y1="-7.4748664"
       x2="16.093008"
       y2="-7.4748664" />
    <linearGradient
       inkscape:collect="always"
       xlink:href="#linearGradient3578"
       id="linearGradient2886"
       gradientUnits="userSpaceOnUse"
       spreadMethod="reflect"
       x1="13.514812"
       y1="-7.4748664"
       x2="16.093008"
       y2="-7.4748664" />
    <linearGradient
       inkscape:collect="always"
       xlink:href="#linearGradient3578"
       id="linearGradient2884"
       gradientUnits="userSpaceOnUse"
       spreadMethod="reflect"
       x1="13.514812"
       y1="-7.4748664"
       x2="16.093008"
       y2="-7.4748664" />
    <linearGradient
       inkscape:collect="always"
       xlink:href="#linearGradient3369"
       id="linearGradient2881"
       x1="155.81395"
       y1="113.36433"
       x2="215.89148"
       y2="50.573639"
       gradientUnits="userSpaceOnUse"
       spreadMethod="reflect" />
    <linearGradient
       inkscape:collect="always"
       xlink:href="#linearGradient3387"
       id="linearGradient2879"
       x1="-81.182167"
       y1="145.67221"
       x2="-79.282944"
       y2="78.617943"
       gradientUnits="userSpaceOnUse" />
    <linearGradient
       inkscape:collect="always"
       xlink:href="#linearGradient3387"
       id="linearGradient2877"
       gradientUnits="userSpaceOnUse"
       x1="-81.182167"
       y1="145.67221"
       x2="-79.282944"
       y2="78.617943" />
    <linearGradient
       inkscape:collect="always"
       xlink:href="#linearGradient3369"
       id="linearGradient2875"
       gradientUnits="userSpaceOnUse"
       spreadMethod="reflect"
       x1="155.81395"
       y1="113.36433"
       x2="215.89148"
       y2="50.573639"
       gradientTransform="matrix(0.4584837,0,0,0.4584837,12.357625,81.058821)" />
    <linearGradient
       y2="63.842751"
       x2="122.42457"
       y1="63.842751"
       x1="2.7449629"
       gradientTransform="matrix(1.5924079,0,0,1.5520032,56.764303,30.433261)"
       gradientUnits="userSpaceOnUse"
       id="linearGradient1885"
       xlink:href="#linearGradient2883"
       inkscape:collect="always" />
    <linearGradient
       gradientTransform="matrix(1.933319,0,0,1.951977,155.7674,0.133965)"
       gradientUnits="userSpaceOnUse"
       y2="63.842751"
       x2="122.42457"
       y1="63.842751"
       x1="2.7449629"
       id="linearGradient2889"
       xlink:href="#linearGradient2883"
       inkscape:collect="always" />
    <linearGradient
       id="linearGradient2883"
       inkscape:collect="always">
      <stop
         id="stop2885"
         offset="0"
         style="stop-color:#eee51b;stop-opacity:1" />
      <stop
         id="stop2887"
         offset="1"
         style="stop-color:#8b7525;stop-opacity:1" />
    </linearGradient>
    <inkscape:perspective
       id="perspective18"
       inkscape:persp3d-origin="128 : 85.333333 : 1"
       inkscape:vp_z="256 : 128 : 1"
       inkscape:vp_y="0 : 1000 : 0"
       inkscape:vp_x="0 : 128 : 1"
       sodipodi:type="inkscape:persp3d" />
    <linearGradient
       inkscape:collect="always"
       xlink:href="#linearGradient3578"
       id="linearGradient3148"
       gradientUnits="userSpaceOnUse"
       spreadMethod="reflect"
       x1="13.514812"
       y1="-7.4748664"
       x2="16.093008"
       y2="-7.4748664" />
    <filter
       inkscape:collect="always"
       id="filter3997">
      <feGaussianBlur
         inkscape:collect="always"
         stdDeviation="3.0779779"
         id="feGaussianBlur3999" />
    </filter>
    <linearGradient
       inkscape:collect="always"
       xlink:href="#linearGradient3218"
       id="linearGradient3747"
       gradientUnits="userSpaceOnUse"
       x1="148.06017"
       y1="241.2657"
       x2="140.34564"
       y2="7.4492745" />
    <linearGradient
       inkscape:collect="always"
       xlink:href="#linearGradient3242"
       id="linearGradient3749"
       gradientUnits="userSpaceOnUse"
       x1="171.24857"
       y1="242.71498"
       x2="175.12825"
       y2="-2.2125609" />
    <filter
       inkscape:collect="always"
       id="filter3757">
      <feGaussianBlur
         inkscape:collect="always"
         stdDeviation="5.1299632"
         id="feGaussianBlur3759" />
    </filter>
  </defs>
  <sodipodi:namedview
     id="base"
     pagecolor="#dddddd"
     bordercolor="#666666"
     borderopacity="1.0"
     gridtolerance="10000"
     guidetolerance="10"
     objecttolerance="10"
     inkscape:pageopacity="0.0"
     inkscape:pageshadow="2"
     inkscape:zoom="2.38"
     inkscape:cx="145.15747"
     inkscape:cy="141.96829"
     inkscape:document-units="px"
     inkscape:current-layer="layer1"
     showgrid="false"
     inkscape:window-width="1280"
     inkscape:window-height="977"
     inkscape:window-x="0"
     inkscape:window-y="24"
     inkscape:window-maximized="1" />
  <metadata
     id="metadata7">
    <rdf:RDF>
      <cc:Work
         rdf:about="">
        <dc:format>image/svg+xml</dc:format>
        <dc:type
           rdf:resource="http://purl.org/dc/dcmitype/StillImage" />
      </cc:Work>
    </rdf:RDF>
  </metadata>
  <g
     inkscape:groupmode="layer"
     id="layer2"
     inkscape:label="shaddow">
    <path
       id="path3995"
       d="m 57.794495,15.60084 c -10.335504,0 -18.649011,8.10716 -18.649011,18.186124 l 0,195.815776 c 0,10.07898 8.313507,18.18611 18.649011,18.18612 l 140.911015,0 c 10.3355,0 18.64901,-8.10715 18.64901,-18.18612 l 0,-195.815776 c 0,-10.078965 -8.31352,-18.186124 -18.64901,-18.186124 l -140.911015,0 z M 45.637857,36.629555 c 54.753153,0.507148 98.889933,42.823276 99.273693,95.162205 0.38793,52.90133 -44.16285,96.18039 -99.505564,96.55119 l -0.06625,-7.42949 c 0.784707,0.0763 1.546181,0.16149 2.35183,0.1615 12.89027,0 23.35267,-10.03147 23.352671,-22.3531 0,-4.13125 -1.16327,-7.98542 -3.213062,-11.30575 -7.197702,2.59665 -15.027309,3.96135 -23.187049,3.77934 l 0.364367,-14.63288 c -0.0084,9.3e-4 -0.02468,-9.4e-4 -0.03312,0 l 0.03312,-13.76072 c 0.114171,0.0108 0.259129,-0.007 0.364368,-0.0323 l 0.728736,-30.49325 -0.52999,-29.20116 c -0.02572,-2.9e-4 -0.04051,2.4e-4 -0.06625,0 l -0.563114,0.0646 0.132498,-12.468638 c 0.08344,0.01256 0.181491,0.02 0.264994,0.0323 l -0.298117,-17.41088 c 0.876642,-0.01435 1.640915,0.01275 2.517452,0.0323 7.963396,0.177616 15.499692,1.799923 22.425188,4.586909 1.339508,-2.813456 2.086833,-5.94792 2.086834,-9.238422 0,-12.321623 -10.4624,-22.288499 -23.35267,-22.288499 -1.084733,0 -2.1344,0.02445 -3.179938,0.16151 l 0.09937,-9.916767 z m 24.346401,41.282178 c -3.676412,7.72181 -11.817929,13.114685 -21.265836,13.114683 -1.156886,2e-6 -2.26975,-0.159593 -3.378685,-0.323022 l 0.231871,12.371736 c 17.003332,0.19692 30.719506,13.39032 30.838775,29.65339 0.120712,16.46268 -13.748849,29.92562 -30.971272,30.04102 -0.02216,0.006 -0.0317,-0.008 -0.06625,0 l -0.364368,13.79303 c 0.89139,-0.0988 1.763705,-0.16151 2.683073,-0.16151 8.568371,-1e-5 16.075805,4.43233 20.139609,11.01505 5.820789,-2.09995 11.227445,-4.99793 16.065312,-8.59239 -3.269927,-3.84159 -5.200526,-8.74983 -5.200524,-14.08375 0,-12.32161 10.462413,-22.3208 23.352667,-22.3208 1.62836,0 3.20205,0.14847 4.73678,0.45224 0.57073,-3.00145 0.91695,-6.09299 0.99373,-9.23842 0.086,-3.52439 -0.18929,-6.96809 -0.72873,-10.3367 -2.36919,0.77443 -4.91008,1.16287 -7.552353,1.16287 -12.890253,0 -23.352667,-9.96689 -23.35267,-22.2885 1.2e-5,-6.558161 2.967924,-12.48514 7.684851,-16.57101 -4.200409,-3.108362 -8.87655,-5.688099 -13.845981,-7.687917 z m 13.845981,7.687917 c 12.256281,9.069811 20.780821,22.46332 23.220171,37.69664 9.18892,-3.0036 15.80032,-11.32971 15.80032,-21.12563 0,-12.321615 -10.46239,-22.353097 -23.352672,-22.353098 -6.029434,0 -11.522464,2.191341 -15.667819,5.782088 z m 22.955171,57.27176 c -2.77315,14.58375 -11.166848,27.24302 -22.888922,35.95231 4.283772,5.03266 10.84197,8.23706 18.152142,8.23706 12.89028,0 23.35267,-9.99919 23.35268,-22.32081 0,-10.7651 -8.00145,-19.76771 -18.6159,-21.86856 z"
       style="fill:#dddddd;fill-opacity:1;stroke:none;filter:url(#filter3757)" />
  </g>
  <g
     inkscape:label="icon"
     inkscape:groupmode="layer"
     id="layer1">
    <path
       style="fill:url(#linearGradient3747);fill-opacity:1;stroke:url(#linearGradient3749);stroke-width:4;stroke-linecap:round;stroke-linejoin:round;stroke-miterlimit:4;stroke-opacity:1;stroke-dasharray:none"
       d="m 61.78125,13.5 c -9.750665,0 -17.59375,7.843086 -17.59375,17.59375 l 0,189.4375 c 0,9.75067 7.843085,17.59374 17.59375,17.59375 l 132.9375,0 c 9.75067,0 17.59375,-7.84309 17.59375,-17.59375 l 0,-189.4375 C 212.3125,21.343085 204.46941,13.5 194.71875,13.5 l -132.9375,0 z M 50.3125,33.84375 c 51.65492,0.490628 93.2942,41.428399 93.65625,92.0625 0.36598,51.17818 -41.66387,93.04752 -93.875,93.40625 l -0.0625,-7.1875 c 0.740304,0.0738 1.458689,0.15624 2.21875,0.15625 12.160869,0 22.031249,-9.70473 22.03125,-21.625 0,-3.99668 -1.097445,-7.72532 -3.03125,-10.9375 -6.790417,2.51208 -14.176982,3.83232 -21.875,3.65625 l 0.34375,-14.15625 c -0.008,9e-4 -0.02329,-9.2e-4 -0.03125,0 l 0.03125,-13.3125 c 0.107711,0.0104 0.244466,-0.007 0.34375,-0.0312 l 0.6875,-29.5 -0.5,-28.25 c -0.02427,-2.83e-4 -0.03822,2.34e-4 -0.0625,0 l -0.53125,0.0625 0.125,-12.0625 c 0.07872,0.01215 0.171222,0.01935 0.25,0.03125 L 49.75,69.3125 c 0.827037,-0.01388 1.548062,0.01233 2.375,0.03125 7.512784,0.17183 14.622636,1.741294 21.15625,4.4375 1.263711,-2.721814 1.968749,-5.75418 1.96875,-8.9375 0,-11.920273 -9.870382,-21.5625 -22.03125,-21.5625 -1.023353,0 -2.013624,0.02366 -3,0.15625 l 0.09375,-9.59375 z m 22.96875,39.9375 c -3.468381,7.470288 -11.149207,12.687502 -20.0625,12.6875 -1.091423,2e-6 -2.141315,-0.154395 -3.1875,-0.3125 L 50.25,98.125 c 16.041191,0.190512 28.981229,12.95417 29.09375,28.6875 0.113881,15.92644 -12.970865,28.95086 -29.21875,29.0625 -0.0209,0.005 -0.02991,-0.008 -0.0625,0 l -0.34375,13.34375 c 0.84095,-0.0956 1.663905,-0.15625 2.53125,-0.15625 8.083526,-1e-5 15.166149,4.28795 19,10.65625 5.491418,-2.03154 10.592136,-4.83513 15.15625,-8.3125 -3.084897,-3.71646 -4.906252,-8.46482 -4.90625,-13.625 0,-11.92027 9.870393,-21.59375 22.03125,-21.59375 1.53621,0 3.02086,0.14363 4.46875,0.4375 0.53843,-2.90368 0.86506,-5.89452 0.9375,-8.9375 0.0812,-3.40959 -0.17859,-6.74111 -0.6875,-10 -2.23513,0.7492 -4.63225,1.125 -7.125,1.125 -12.160854,0 -22.031248,-9.64224 -22.03125,-21.5625 1.1e-5,-6.344549 2.799982,-12.078469 7.25,-16.03125 -3.962727,-3.007115 -8.374267,-5.502822 -13.0625,-7.4375 z m 13.0625,7.4375 c 11.562754,8.774381 19.60493,21.73162 21.90625,36.46875 8.66896,-2.90576 14.90625,-10.96067 14.90625,-20.4375 0,-11.920271 -9.87038,-21.624999 -22.03125,-21.625 -5.688257,0 -10.870462,2.119963 -14.78125,5.59375 z M 108,136.625 c -2.61624,14.10872 -10.534974,26.35564 -21.59375,34.78125 4.041374,4.86873 10.228472,7.96875 17.125,7.96875 12.16087,0 22.03124,-9.67349 22.03125,-21.59375 0,-10.41446 -7.54868,-19.12382 -17.5625,-21.15625 z"
       id="rect3263" />
  </g>
</svg>
