<?xml version="1.0" encoding="UTF-8" standalone="no"?>
<!-- Created with Inkscape (http://www.inkscape.org/) -->

<svg
   xmlns:dc="http://purl.org/dc/elements/1.1/"
   xmlns:cc="http://creativecommons.org/ns#"
   xmlns:rdf="http://www.w3.org/1999/02/22-rdf-syntax-ns#"
   xmlns:svg="http://www.w3.org/2000/svg"
   xmlns="http://www.w3.org/2000/svg"
   xmlns:xlink="http://www.w3.org/1999/xlink"
   xmlns:sodipodi="http://sodipodi.sourceforge.net/DTD/sodipodi-0.dtd"
   xmlns:inkscape="http://www.inkscape.org/namespaces/inkscape"
   width="256"
   height="256"
   id="svg2"
   sodipodi:version="0.32"
   inkscape:version="0.47pre4 r22446"
   version="1.0"
   sodipodi:docname="x-office-document.svg"
   inkscape:output_extension="org.inkscape.output.svg.inkscape">
  <defs
     id="defs4">
    <linearGradient
       id="linearGradient3612">
      <stop
         style="stop-color:#dddddd;stop-opacity:1;"
         offset="0"
         id="stop3614" />
      <stop
         style="stop-color:#dddddd;stop-opacity:0.73333335;"
         offset="1"
         id="stop3616" />
    </linearGradient>
    <linearGradient
       id="linearGradient3151">
      <stop
         style="stop-color:#dddddd;stop-opacity:1;"
         offset="0"
         id="stop3153" />
      <stop
         style="stop-color:#dddddd;stop-opacity:1;"
         offset="1"
         id="stop3155" />
    </linearGradient>
    <inkscape:perspective
       sodipodi:type="inkscape:persp3d"
       inkscape:vp_x="0 : 526.18109 : 1"
       inkscape:vp_y="0 : 1000 : 0"
       inkscape:vp_z="744.09448 : 526.18109 : 1"
       inkscape:persp3d-origin="372.04724 : 350.78739 : 1"
       id="perspective10" />
    <linearGradient
       inkscape:collect="always"
       xlink:href="#linearGradient3151"
       id="linearGradient3157"
       x1="127.88361"
       y1="240.77695"
       x2="131.53442"
       y2="19.037815"
       gradientUnits="userSpaceOnUse"
       gradientTransform="translate(3.6231884,-6.5217391)" />
    <filter
       inkscape:collect="always"
       id="filter3161">
      <feGaussianBlur
         inkscape:collect="always"
         stdDeviation="3.1660667"
         id="feGaussianBlur3163" />
    </filter>
    <linearGradient
       inkscape:collect="always"
       xlink:href="#linearGradient3151"
       id="linearGradient3596"
       gradientUnits="userSpaceOnUse"
       gradientTransform="translate(3.6231884,-6.5217391)"
       x1="127.88361"
       y1="240.77695"
       x2="131.53442"
       y2="19.037815" />
    <filter
       inkscape:collect="always"
       id="filter3608">
      <feGaussianBlur
         inkscape:collect="always"
         stdDeviation="5.2784552"
         id="feGaussianBlur3610" />
    </filter>
    <linearGradient
       inkscape:collect="always"
       xlink:href="#linearGradient3612"
       id="linearGradient3618"
       x1="90.743179"
       y1="232.6386"
       x2="90.743179"
       y2="14.751781"
       gradientUnits="userSpaceOnUse" />
  </defs>
  <sodipodi:namedview
     id="base"
     pagecolor="#dddddd"
     bordercolor="#666666"
     borderopacity="1.0"
     gridtolerance="10000"
     guidetolerance="10"
     objecttolerance="10"
     inkscape:pageopacity="0.0"
     inkscape:pageshadow="2"
     inkscape:zoom="1.9516147"
     inkscape:cx="72.688369"
     inkscape:cy="115.39543"
     inkscape:document-units="px"
     inkscape:current-layer="layer1"
     showgrid="false"
     inkscape:window-width="1280"
     inkscape:window-height="977"
     inkscape:window-x="0"
     inkscape:window-y="24"
     inkscape:window-maximized="1" />
  <metadata
     id="metadata7">
    <rdf:RDF>
      <cc:Work
         rdf:about="">
        <dc:format>image/svg+xml</dc:format>
        <dc:type
           rdf:resource="http://purl.org/dc/dcmitype/StillImage" />
      </cc:Work>
    </rdf:RDF>
  </metadata>
  <g
     inkscape:groupmode="layer"
     id="layer2"
     inkscape:label="shaddow">
    <path
       id="path3159"
       d="m 32.59375,19.755888 0,220.665312 151.4751,0 0,-17.57968 -56.40308,0 0,-15.32174 56.40308,0 0,-4.54814 c -6.74976,0.51844 -13.92115,0.80641 -21.39202,0.80641 -39.12371,1e-5 -70.609999,-7.66194 -70.609999,-17.19261 l 0,-21.3214 92.002019,0 0,-5.99967 -91.250849,0 0,-21.32142 c 0,-9.53067 31.486289,-17.1926 70.609999,-17.1926 7.19376,0 14.10997,0.25982 20.64085,0.74189 l 0,-7.09638 -57.93808,0 0,-28.804876 57.93808,0 0,-65.835096 -151.4751,0 z m 151.4751,65.835096 0,28.804876 15.15404,0 0,-28.804876 -15.15404,0 z m 0,35.901256 0,37.77213 50.00181,0 0,-21.32142 c 0,-7.77824 -21.0141,-14.311 -50.00181,-16.45071 z m 0,43.7718 0,37.7076 c 28.59762,-2.19649 49.25064,-8.67545 49.25064,-16.3862 l 0,-21.3214 -49.25064,0 z m 0,42.25574 0,15.32174 16.65638,0 0,-15.32174 -16.65638,0 z"
       style="fill:#dddddd;fill-opacity:1;stroke:none;filter:url(#filter3608)"
       transform="matrix(1,0,0,1.0131355,0,-0.2595036)" />
  </g>
  <g
     inkscape:label="icon"
     inkscape:groupmode="layer"
     id="layer1">
    <path
       style="fill:url(#linearGradient3596);fill-opacity:1;stroke:url(#linearGradient3618);stroke-width:4;stroke-miterlimit:4;stroke-dasharray:none"
       d="m 36.941576,16.857337 0,213.781253 144.937504,0 0,-17.03125 -53.96875,0 0,-14.84375 53.96875,0 0,-4.40625 c -6.45844,0.50226 -13.32032,0.78125 -20.46875,0.78125 -37.43515,1e-5 -67.562504,-7.42291 -67.562504,-16.65625 l 0,-20.65625 88.031254,0 0,-5.8125 -87.312504,0 0,-20.65625 c 0,-9.23334 30.127354,-16.65625 67.562504,-16.65625 6.88328,0 13.50099,0.25172 19.75,0.71875 l 0,-6.875 -55.4375,0 0,-27.906253 55.4375,0 0,-63.78125 -144.937504,0 z m 144.937504,63.78125 0,27.906253 14.5,0 0,-27.906253 -14.5,0 z m 0,34.781253 0,36.59375 47.84375,0 0,-20.65625 c 0,-7.53558 -20.10714,-13.86455 -47.84375,-15.9375 z m 0,42.40625 0,36.53125 c 27.36336,-2.12797 47.125,-8.40481 47.125,-15.875 l 0,-20.65625 -47.125,0 z m 0,40.9375 0,14.84375 15.9375,0 0,-14.84375 -15.9375,0 z"
       id="rect2380" />
  </g>
</svg>
