<?xml version="1.0" encoding="UTF-8" standalone="no"?>
<!-- Created with Inkscape (http://www.inkscape.org/) -->

<svg
   xmlns:dc="http://purl.org/dc/elements/1.1/"
   xmlns:cc="http://creativecommons.org/ns#"
   xmlns:rdf="http://www.w3.org/1999/02/22-rdf-syntax-ns#"
   xmlns:svg="http://www.w3.org/2000/svg"
   xmlns="http://www.w3.org/2000/svg"
   xmlns:xlink="http://www.w3.org/1999/xlink"
   xmlns:sodipodi="http://sodipodi.sourceforge.net/DTD/sodipodi-0.dtd"
   xmlns:inkscape="http://www.inkscape.org/namespaces/inkscape"
   width="256"
   height="256"
   id="svg2"
   sodipodi:version="0.32"
   inkscape:version="0.47pre4 r22446"
   version="1.0"
   sodipodi:docname="folder-private.svg"
   inkscape:output_extension="org.inkscape.output.svg.inkscape">
  <defs
     id="defs4">
    <linearGradient
       id="linearGradient3242">
      <stop
         style="stop-color:#ffc3d5;stop-opacity:1"
         offset="0"
         id="stop3244" />
      <stop
         style="stop-color:#ffc3d5;stop-opacity:0.73333335;"
         offset="1"
         id="stop3246" />
    </linearGradient>
    <linearGradient
       id="linearGradient3218">
      <stop
         id="stop3220"
         offset="0"
         style="stop-color:#ffc3d5;stop-opacity:1;" />
      <stop
         id="stop3222"
         offset="1"
         style="stop-color:#ffc3d5;stop-opacity:1" />
    </linearGradient>
    <inkscape:perspective
       sodipodi:type="inkscape:persp3d"
       inkscape:vp_x="0 : 526.18109 : 1"
       inkscape:vp_y="0 : 1000 : 0"
       inkscape:vp_z="744.09448 : 526.18109 : 1"
       inkscape:persp3d-origin="372.04724 : 350.78739 : 1"
       id="perspective10" />
    <inkscape:perspective
       id="perspective2390"
       inkscape:persp3d-origin="372.04724 : 350.78739 : 1"
       inkscape:vp_z="744.09448 : 526.18109 : 1"
       inkscape:vp_y="0 : 1000 : 0"
       inkscape:vp_x="0 : 526.18109 : 1"
       sodipodi:type="inkscape:persp3d" />
    <linearGradient
       gradientTransform="matrix(0.4584837,0,0,0.4584837,12.357625,81.058821)"
       y2="50.573639"
       x2="215.89148"
       y1="113.36433"
       x1="155.81395"
       spreadMethod="reflect"
       gradientUnits="userSpaceOnUse"
       id="linearGradient3403"
       xlink:href="#linearGradient3369"
       inkscape:collect="always" />
    <linearGradient
       y2="78.617943"
       x2="-79.282944"
       y1="145.67221"
       x1="-81.182167"
       gradientUnits="userSpaceOnUse"
       id="linearGradient3397"
       xlink:href="#linearGradient3387"
       inkscape:collect="always" />
    <linearGradient
       gradientUnits="userSpaceOnUse"
       y2="78.617943"
       x2="-79.282944"
       y1="145.67221"
       x1="-81.182167"
       id="linearGradient3393"
       xlink:href="#linearGradient3387"
       inkscape:collect="always" />
    <linearGradient
       spreadMethod="reflect"
       gradientUnits="userSpaceOnUse"
       y2="50.573639"
       x2="215.89148"
       y1="113.36433"
       x1="155.81395"
       id="linearGradient3375"
       xlink:href="#linearGradient3369"
       inkscape:collect="always" />
    <linearGradient
       y2="-7.4748664"
       x2="16.093008"
       y1="-7.4748664"
       x1="13.514812"
       spreadMethod="reflect"
       gradientUnits="userSpaceOnUse"
       id="linearGradient2595"
       xlink:href="#linearGradient3578"
       inkscape:collect="always" />
    <linearGradient
       y2="-7.4748664"
       x2="16.093008"
       y1="-7.4748664"
       x1="13.514812"
       spreadMethod="reflect"
       gradientUnits="userSpaceOnUse"
       id="linearGradient2593"
       xlink:href="#linearGradient3578"
       inkscape:collect="always" />
    <linearGradient
       y2="-7.4748664"
       x2="16.093008"
       y1="-7.4748664"
       x1="13.514812"
       spreadMethod="reflect"
       gradientUnits="userSpaceOnUse"
       id="linearGradient2591"
       xlink:href="#linearGradient3578"
       inkscape:collect="always" />
    <linearGradient
       y2="-7.4748664"
       x2="16.093008"
       y1="-7.4748664"
       x1="13.514812"
       spreadMethod="reflect"
       gradientUnits="userSpaceOnUse"
       id="linearGradient2589"
       xlink:href="#linearGradient3578"
       inkscape:collect="always" />
    <linearGradient
       y2="-7.4748664"
       x2="16.093008"
       y1="-7.4748664"
       x1="13.514812"
       spreadMethod="reflect"
       gradientUnits="userSpaceOnUse"
       id="linearGradient2587"
       xlink:href="#linearGradient3578"
       inkscape:collect="always" />
    <linearGradient
       y2="-7.4748664"
       x2="16.093008"
       y1="-7.4748664"
       x1="13.514812"
       spreadMethod="reflect"
       gradientUnits="userSpaceOnUse"
       id="linearGradient2585"
       xlink:href="#linearGradient3578"
       inkscape:collect="always" />
    <linearGradient
       y2="-7.4748664"
       x2="16.093008"
       y1="-7.4748664"
       x1="13.514812"
       spreadMethod="reflect"
       gradientUnits="userSpaceOnUse"
       id="linearGradient2583"
       xlink:href="#linearGradient3578"
       inkscape:collect="always" />
    <linearGradient
       y2="-7.4748664"
       x2="16.093008"
       y1="-7.4748664"
       x1="13.514812"
       spreadMethod="reflect"
       gradientUnits="userSpaceOnUse"
       id="linearGradient2581"
       xlink:href="#linearGradient3578"
       inkscape:collect="always" />
    <linearGradient
       y2="-7.4748664"
       x2="16.093008"
       y1="-7.4748664"
       x1="13.514812"
       spreadMethod="reflect"
       gradientUnits="userSpaceOnUse"
       id="linearGradient2579"
       xlink:href="#linearGradient3578"
       inkscape:collect="always" />
    <linearGradient
       y2="-7.4748664"
       x2="16.093008"
       y1="-7.4748664"
       x1="13.514812"
       spreadMethod="reflect"
       gradientUnits="userSpaceOnUse"
       id="linearGradient2577"
       xlink:href="#linearGradient3578"
       inkscape:collect="always" />
    <linearGradient
       y2="-7.4748664"
       x2="16.093008"
       y1="-7.4748664"
       x1="13.514812"
       spreadMethod="reflect"
       gradientUnits="userSpaceOnUse"
       id="linearGradient2575"
       xlink:href="#linearGradient3578"
       inkscape:collect="always" />
    <linearGradient
       y2="-7.4748664"
       x2="16.093008"
       y1="-7.4748664"
       x1="13.514812"
       spreadMethod="reflect"
       gradientUnits="userSpaceOnUse"
       id="linearGradient2573"
       xlink:href="#linearGradient3578"
       inkscape:collect="always" />
    <linearGradient
       y2="-7.4748664"
       x2="16.093008"
       y1="-7.4748664"
       x1="13.514812"
       spreadMethod="reflect"
       gradientUnits="userSpaceOnUse"
       id="linearGradient2571"
       xlink:href="#linearGradient3578"
       inkscape:collect="always" />
    <linearGradient
       y2="-7.4748664"
       x2="16.093008"
       y1="-7.4748664"
       x1="13.514812"
       spreadMethod="reflect"
       gradientUnits="userSpaceOnUse"
       id="linearGradient2569"
       xlink:href="#linearGradient3578"
       inkscape:collect="always" />
    <linearGradient
       y2="-7.4748664"
       x2="16.093008"
       y1="-7.4748664"
       x1="13.514812"
       spreadMethod="reflect"
       gradientUnits="userSpaceOnUse"
       id="linearGradient2567"
       xlink:href="#linearGradient3578"
       inkscape:collect="always" />
    <linearGradient
       y2="-7.4748664"
       x2="16.093008"
       y1="-7.4748664"
       x1="13.514812"
       spreadMethod="reflect"
       gradientUnits="userSpaceOnUse"
       id="linearGradient2565"
       xlink:href="#linearGradient3578"
       inkscape:collect="always" />
    <linearGradient
       y2="-7.4748664"
       x2="16.093008"
       y1="-7.4748664"
       x1="13.514812"
       spreadMethod="reflect"
       gradientUnits="userSpaceOnUse"
       id="linearGradient2563"
       xlink:href="#linearGradient3578"
       inkscape:collect="always" />
    <linearGradient
       y2="-7.4748664"
       x2="16.093008"
       y1="-7.4748664"
       x1="13.514812"
       spreadMethod="reflect"
       gradientUnits="userSpaceOnUse"
       id="linearGradient2561"
       xlink:href="#linearGradient3578"
       inkscape:collect="always" />
    <linearGradient
       y2="-7.4748664"
       x2="16.093008"
       y1="-7.4748664"
       x1="13.514812"
       spreadMethod="reflect"
       gradientUnits="userSpaceOnUse"
       id="linearGradient2559"
       xlink:href="#linearGradient3578"
       inkscape:collect="always" />
    <linearGradient
       y2="-7.4748664"
       x2="16.093008"
       y1="-7.4748664"
       x1="13.514812"
       spreadMethod="reflect"
       gradientUnits="userSpaceOnUse"
       id="linearGradient2557"
       xlink:href="#linearGradient3578"
       inkscape:collect="always" />
    <linearGradient
       y2="-7.4748664"
       x2="16.093008"
       y1="-7.4748664"
       x1="13.514812"
       spreadMethod="reflect"
       gradientUnits="userSpaceOnUse"
       id="linearGradient2555"
       xlink:href="#linearGradient3578"
       inkscape:collect="always" />
    <linearGradient
       y2="-7.4748664"
       x2="16.093008"
       y1="-7.4748664"
       x1="13.514812"
       spreadMethod="reflect"
       gradientUnits="userSpaceOnUse"
       id="linearGradient2553"
       xlink:href="#linearGradient3578"
       inkscape:collect="always" />
    <linearGradient
       y2="-7.4748664"
       x2="16.093008"
       y1="-7.4748664"
       x1="13.514812"
       spreadMethod="reflect"
       gradientUnits="userSpaceOnUse"
       id="linearGradient2551"
       xlink:href="#linearGradient3578"
       inkscape:collect="always" />
    <linearGradient
       y2="-7.4748664"
       x2="16.093008"
       y1="-2.2096405"
       x1="15.650429"
       spreadMethod="reflect"
       gradientUnits="userSpaceOnUse"
       id="linearGradient3610"
       xlink:href="#linearGradient3578"
       inkscape:collect="always" />
    <linearGradient
       y2="-7.4748664"
       x2="16.093008"
       y1="-6.4087667"
       x1="10.621114"
       spreadMethod="reflect"
       gradientUnits="userSpaceOnUse"
       id="linearGradient3608"
       xlink:href="#linearGradient3578"
       inkscape:collect="always" />
    <linearGradient
       y2="-1.5134122"
       x2="9.7181683"
       y1="-5.8865957"
       x1="11.186799"
       spreadMethod="reflect"
       gradientUnits="userSpaceOnUse"
       id="linearGradient3606"
       xlink:href="#linearGradient3578"
       inkscape:collect="always" />
    <linearGradient
       y2="-4.5158963"
       x2="12.916467"
       y1="-3.7543969"
       x1="7.7709298"
       spreadMethod="reflect"
       gradientUnits="userSpaceOnUse"
       id="linearGradient3604"
       xlink:href="#linearGradient3578"
       inkscape:collect="always" />
    <linearGradient
       y2="-3.7326398"
       x2="14.93988"
       y1="-2.2749119"
       x1="17.082983"
       spreadMethod="reflect"
       gradientUnits="userSpaceOnUse"
       id="linearGradient3602"
       xlink:href="#linearGradient3578"
       inkscape:collect="always" />
    <linearGradient
       y2="-1.9920692"
       x2="17.376678"
       y1="-6.2564669"
       x1="15.58174"
       spreadMethod="reflect"
       gradientUnits="userSpaceOnUse"
       id="linearGradient3600"
       xlink:href="#linearGradient3578"
       inkscape:collect="always" />
    <linearGradient
       y2="-7.4748664"
       x2="16.093008"
       y1="-10.977764"
       x1="16.691353"
       spreadMethod="reflect"
       gradientUnits="userSpaceOnUse"
       id="linearGradient3598"
       xlink:href="#linearGradient3578"
       inkscape:collect="always" />
    <linearGradient
       y2="-11.199143"
       x2="11.132382"
       y1="-11.39115"
       x1="16.386753"
       spreadMethod="reflect"
       gradientUnits="userSpaceOnUse"
       id="linearGradient3596"
       xlink:href="#linearGradient3578"
       inkscape:collect="always" />
    <linearGradient
       y2="-2.6882975"
       x2="8.6955833"
       y1="-11.586965"
       x1="12.035328"
       spreadMethod="reflect"
       gradientUnits="userSpaceOnUse"
       id="linearGradient3594"
       xlink:href="#linearGradient3578"
       inkscape:collect="always" />
    <linearGradient
       y2="-5.7778101"
       x2="11.371711"
       y1="-10.150993"
       x1="12.905613"
       spreadMethod="reflect"
       gradientUnits="userSpaceOnUse"
       id="linearGradient3592"
       xlink:href="#linearGradient3578"
       inkscape:collect="always" />
    <linearGradient
       y2="-6.9526954"
       x2="17.74655"
       y1="-5.9083529"
       x1="16.386753"
       spreadMethod="reflect"
       gradientUnits="userSpaceOnUse"
       id="linearGradient3590"
       xlink:href="#linearGradient3578"
       inkscape:collect="always" />
    <linearGradient
       y2="-8.018795"
       x2="17.07476"
       y1="-7.4748664"
       x1="13.514812"
       spreadMethod="reflect"
       gradientUnits="userSpaceOnUse"
       id="linearGradient3588"
       xlink:href="#linearGradient3578"
       inkscape:collect="always" />
    <linearGradient
       y2="-6.5828238"
       x2="18.616835"
       y1="-5.2121248"
       x1="16.908924"
       spreadMethod="reflect"
       gradientUnits="userSpaceOnUse"
       id="linearGradient3586"
       xlink:href="#linearGradient3578"
       inkscape:collect="always" />
    <linearGradient
       spreadMethod="reflect"
       gradientUnits="userSpaceOnUse"
       y2="-7.4748664"
       x2="16.093008"
       y1="-7.4748664"
       x1="13.514812"
       id="linearGradient3584"
       xlink:href="#linearGradient3578"
       inkscape:collect="always" />
    <inkscape:perspective
       sodipodi:type="inkscape:persp3d"
       inkscape:vp_x="0 : 128 : 1"
       inkscape:vp_y="0 : 1000 : 0"
       inkscape:vp_z="256 : 128 : 1"
       inkscape:persp3d-origin="128 : 85.333333 : 1"
       id="perspective2503" />
    <linearGradient
       id="linearGradient3578">
      <stop
         id="stop3580"
         offset="0"
         style="stop-color:#000000;stop-opacity:1;" />
      <stop
         id="stop3582"
         offset="1"
         style="stop-color:#fffcfc;stop-opacity:1;" />
    </linearGradient>
    <linearGradient
       id="linearGradient3369"
       inkscape:collect="always">
      <stop
         id="stop3371"
         offset="0"
         style="stop-color:#6465df;stop-opacity:1" />
      <stop
         id="stop3373"
         offset="1"
         style="stop-color:#ffc3d5;stop-opacity:1" />
    </linearGradient>
    <linearGradient
       id="linearGradient3387"
       inkscape:collect="always">
      <stop
         id="stop3389"
         offset="0"
         style="stop-color:#000000;stop-opacity:1;" />
      <stop
         id="stop3391"
         offset="1"
         style="stop-color:#ffc3d5;stop-opacity:1" />
    </linearGradient>
    <linearGradient
       inkscape:collect="always"
       xlink:href="#linearGradient3218"
       id="linearGradient2488"
       gradientUnits="userSpaceOnUse"
       gradientTransform="matrix(1.1283429,0,0,1.1365179,-15.443402,-24.283912)"
       x1="110.78604"
       y1="200.12624"
       x2="109.9457"
       y2="51.818779" />
    <linearGradient
       inkscape:collect="always"
       xlink:href="#linearGradient3242"
       id="linearGradient2490"
       gradientUnits="userSpaceOnUse"
       gradientTransform="matrix(1.1283429,0,0,1.1365179,-15.443402,-24.283912)"
       x1="129.05124"
       y1="200.52469"
       x2="129.05124"
       y2="48.815548" />
    <filter
       inkscape:collect="always"
       id="filter3365">
      <feGaussianBlur
         inkscape:collect="always"
         stdDeviation="3.0652837"
         id="feGaussianBlur3367" />
    </filter>
    <linearGradient
       inkscape:collect="always"
       xlink:href="#linearGradient3218"
       id="linearGradient3692"
       gradientUnits="userSpaceOnUse"
       gradientTransform="matrix(1.1283429,0,0,1.1365179,-15.443402,-24.283912)"
       x1="110.78604"
       y1="200.12624"
       x2="109.9457"
       y2="51.818779" />
    <linearGradient
       inkscape:collect="always"
       xlink:href="#linearGradient3242"
       id="linearGradient3694"
       gradientUnits="userSpaceOnUse"
       gradientTransform="matrix(1.1283429,0,0,1.1365179,-15.443402,-24.283912)"
       x1="129.05124"
       y1="200.52469"
       x2="129.05124"
       y2="48.815548" />
    <filter
       inkscape:collect="always"
       id="filter3711">
      <feGaussianBlur
         inkscape:collect="always"
         stdDeviation="5.1144622"
         id="feGaussianBlur3713" />
    </filter>
  </defs>
  <sodipodi:namedview
     id="base"
     pagecolor="#ffc3d5"
     bordercolor="#666666"
     borderopacity="1.0"
     gridtolerance="10000"
     guidetolerance="10"
     objecttolerance="10"
     inkscape:pageopacity="0.0"
     inkscape:pageshadow="2"
     inkscape:zoom="2.26"
     inkscape:cx="153.82586"
     inkscape:cy="114.57929"
     inkscape:document-units="px"
     inkscape:current-layer="layer1"
     showgrid="false"
     inkscape:window-width="1280"
     inkscape:window-height="977"
     inkscape:window-x="0"
     inkscape:window-y="24"
     inkscape:window-maximized="1" />
  <metadata
     id="metadata7">
    <rdf:RDF>
      <cc:Work
         rdf:about="">
        <dc:format>image/svg+xml</dc:format>
        <dc:type
           rdf:resource="http://purl.org/dc/dcmitype/StillImage" />
      </cc:Work>
    </rdf:RDF>
  </metadata>
  <g
     inkscape:groupmode="layer"
     id="layer2"
     inkscape:label="shaddow">
    <path
       id="path3363"
       d="m 29.53125,31.552476 c -8.93347,3e-6 -16.125,7.445422 -16.125,16.730701 l 0.6875,148.411963 c 0,9.28527 7.16029,16.76503 16.09375,16.76505 l 193.875,0 c 8.93347,0 16.12501,-7.47978 16.125,-16.76505 l 0,-118.351671 c -1e-5,-9.285276 -7.19155,-16.799409 -16.125,-16.799409 l -86,0 -6.40625,-13.260883 C 127.96158,37.510207 122.48068,31.180545 115.5625,31.552476 l -86.03125,0 z M 200.625,123.41674 210.34375,143.205 c -3.31472,3.16495 -6.65764,6.20317 -10,9.13832 l -2.75,-5.1532 -9.40625,8.45125 2.5625,4.77529 c -1.80439,1.43581 -3.5937,2.80555 -5.40625,4.1569 l -2.03125,-5.15319 -10.21875,6.69915 2.125,5.46239 c -2.18983,1.41363 -4.39187,2.78586 -6.59375,4.05384 l -1.875,-5.94334 -10.5625,5.63415 1.8125,5.77158 c -3.01364,1.37532 -6.02602,2.61951 -9.0625,3.67595 l -2.15625,-8.8635 -10.9375,4.43174 1.84375,7.55802 c -3.65439,0.75196 -7.34335,1.22612 -11.03125,1.4429 l 0,-7.76415 -11.4375,0 0,7.52366 c -2.62659,-0.26683 -5.26247,-0.66419 -7.90625,-1.23676 l 1.625,-6.76786 -10.90625,-4.3974 -1.90625,7.79851 c -2.585809,-0.99463 -5.178868,-2.12064 -7.78125,-3.43547 l 2.0625,-6.49302 -10.59375,-5.63416 -1.90625,5.97771 c -1.896751,-1.27292 -3.781895,-2.63271 -5.6875,-4.0882 l 4.09375,-7.55802 -9.40625,-8.48559 -4.28125,7.97027 c -1.45785,-1.34511 -2.91195,-2.76783 -4.375,-4.22562 l 3.375,-6.2869 -9.40625,-8.45123 -2.8125,5.25626 c -1.640704,-1.88262 -3.290241,-3.80958 -4.9375,-5.84028 l 9.6875,-19.41037 c 3.93709,4.02485 7.786382,7.7273 11.5625,11.1309 l -3.53125,6.52737 9.40625,8.4856 3.71875,-6.90528 c 2.266191,1.76933 4.519539,3.38327 6.75,4.91271 l -2.5,7.97027 10.59375,5.63416 2.28125,-7.28318 c 1.948937,1.02278 3.9042,1.95154 5.84375,2.78273 l -1.6875,7.93592 11.03125,3.91642 1.75,-8.14205 c 2.0401,0.48755 4.07369,0.86052 6.125,1.1337 l 0,9.79107 11.4375,0 0,-9.3788 c 1.5084,-0.0898 3.03739,-0.20979 4.5625,-0.41227 l 2.90625,9.13834 10.59375,-5.63416 -1.90625,-6.08077 c 2.76524,-0.84839 5.55543,-1.85973 8.40625,-3.05757 l 2.28125,7.18012 10.59375,-5.63416 -2.125,-6.76785 c 1.89404,-1.03661 3.80843,-2.15286 5.75,-3.3324 l 2.71875,7.00834 10.21875,-6.6648 -2.75,-7.00834 c 1.81607,-1.27379 3.6687,-2.59621 5.53125,-3.98514 l 4.46875,8.31382 9.40625,-8.48559 -4.0625,-7.52366 c 2.33156,-1.89917 4.68417,-3.87809 7.09375,-5.94334 z"
       style="fill:#ffc3d5;fill-opacity:1;stroke:none;filter:url(#filter3711)"
       transform="matrix(1.0195112,0,0,1,-2.4739616,0)" />
  </g>
  <g
     inkscape:label="icon"
     inkscape:groupmode="layer"
     id="layer1">
    <path
       style="fill:url(#linearGradient3692);fill-opacity:1;stroke:url(#linearGradient3694);stroke-width:4;stroke-linejoin:round;stroke-miterlimit:4;stroke-opacity:1;stroke-dasharray:none"
       d="m 29.53125,34.90625 c -8.93347,2e-6 -16.125,6.77258 -16.125,15.21875 l 0.6875,135 c 0,8.44617 7.16029,15.24998 16.09375,15.25 l 193.875,0 c 8.93347,0 16.12501,-6.80383 16.125,-15.25 l 0,-107.65625 c -1e-5,-8.446168 -7.19155,-15.28125 -16.125,-15.28125 l -86,0 -6.40625,-12.0625 C 127.96158,40.325581 122.48068,34.56793 115.5625,34.90625 l -86.03125,0 z m 171.09375,83.5625 9.71875,18 c -3.31472,2.87894 -6.65764,5.6426 -10,8.3125 l -2.75,-4.6875 -9.40625,7.6875 2.5625,4.34375 c -1.80439,1.30606 -3.5937,2.55202 -5.40625,3.78125 l -2.03125,-4.6875 -10.21875,6.09375 2.125,4.96875 c -2.18983,1.28588 -4.39187,2.5341 -6.59375,3.6875 l -1.875,-5.40625 -10.5625,5.125 1.8125,5.25 c -3.01364,1.25103 -6.02602,2.38279 -9.0625,3.34375 l -2.15625,-8.0625 -10.9375,4.03125 1.84375,6.875 c -3.65439,0.68401 -7.34335,1.11531 -11.03125,1.3125 l 0,-7.0625 -11.4375,0 0,6.84375 c -2.62659,-0.24272 -5.26247,-0.60417 -7.90625,-1.125 l 1.625,-6.15625 -10.90625,-4 -1.90625,7.09375 c -2.585809,-0.90474 -5.178868,-1.929 -7.78125,-3.125 L 90.40625,165 79.8125,159.875 l -1.90625,5.4375 c -1.896751,-1.15788 -3.781895,-2.39479 -5.6875,-3.71875 l 4.09375,-6.875 L 66.90625,147 62.625,154.25 c -1.45785,-1.22355 -2.91195,-2.51771 -4.375,-3.84375 L 61.625,144.6875 52.21875,137 l -2.8125,4.78125 c -1.640704,-1.71249 -3.290241,-3.46531 -4.9375,-5.3125 l 9.6875,-17.65625 c 3.93709,3.66113 7.786382,7.02898 11.5625,10.125 l -3.53125,5.9375 9.40625,7.71875 3.71875,-6.28125 c 2.266191,1.60944 4.519539,3.07752 6.75,4.46875 l -2.5,7.25 10.59375,5.125 2.28125,-6.625 c 1.948937,0.93035 3.9042,1.77518 5.84375,2.53125 l -1.6875,7.21875 11.03125,3.5625 1.75,-7.40625 c 2.0401,0.44348 4.07369,0.78276 6.125,1.03125 l 0,8.90625 11.4375,0 0,-8.53125 c 1.5084,-0.0817 3.03739,-0.19083 4.5625,-0.375 l 2.90625,8.3125 10.59375,-5.125 -1.90625,-5.53125 c 2.76524,-0.77172 5.55543,-1.69166 8.40625,-2.78125 l 2.28125,6.53125 10.59375,-5.125 -2.125,-6.15625 c 1.89404,-0.94293 3.80843,-1.9583 5.75,-3.03125 l 2.71875,6.375 10.21875,-6.0625 -2.75,-6.375 c 1.81607,-1.15868 3.6687,-2.36159 5.53125,-3.625 l 4.46875,7.5625 9.40625,-7.71875 -4.0625,-6.84375 c 2.33156,-1.72754 4.68417,-3.52762 7.09375,-5.40625 z"
       id="rect3173" />
  </g>
</svg>
