<?xml version="1.0" encoding="UTF-8" standalone="no"?>
<!-- Created with Inkscape (http://www.inkscape.org/) -->

<svg
   xmlns:dc="http://purl.org/dc/elements/1.1/"
   xmlns:cc="http://creativecommons.org/ns#"
   xmlns:rdf="http://www.w3.org/1999/02/22-rdf-syntax-ns#"
   xmlns:svg="http://www.w3.org/2000/svg"
   xmlns="http://www.w3.org/2000/svg"
   xmlns:xlink="http://www.w3.org/1999/xlink"
   xmlns:sodipodi="http://sodipodi.sourceforge.net/DTD/sodipodi-0.dtd"
   xmlns:inkscape="http://www.inkscape.org/namespaces/inkscape"
   id="svg2"
   sodipodi:version="0.32"
   inkscape:version="0.47pre4 r22446"
   width="256"
   height="256"
   version="1.0"
   sodipodi:docname="audio-input-microphone.svg"
   inkscape:output_extension="org.inkscape.output.svg.inkscape">
  <metadata
     id="metadata7">
    <rdf:RDF>
      <cc:Work
         rdf:about="">
        <dc:format>image/svg+xml</dc:format>
        <dc:type
           rdf:resource="http://purl.org/dc/dcmitype/StillImage" />
        <dc:creator>
          <cc:Agent>
            <dc:title />
          </cc:Agent>
        </dc:creator>
        <dc:rights>
          <cc:Agent>
            <dc:title />
          </cc:Agent>
        </dc:rights>
        <dc:publisher>
          <cc:Agent>
            <dc:title />
          </cc:Agent>
        </dc:publisher>
        <cc:license
           rdf:resource="http://web.resource.org/cc/PublicDomain" />
      </cc:Work>
      <cc:License
         rdf:about="http://web.resource.org/cc/PublicDomain">
        <cc:permits
           rdf:resource="http://web.resource.org/cc/Reproduction" />
        <cc:permits
           rdf:resource="http://web.resource.org/cc/Distribution" />
        <cc:permits
           rdf:resource="http://web.resource.org/cc/DerivativeWorks" />
      </cc:License>
    </rdf:RDF>
  </metadata>
  <defs
     id="defs5">
    <linearGradient
       id="linearGradient3683">
      <stop
         style="stop-color:#ffc3d5;stop-opacity:1;"
         offset="0"
         id="stop3685" />
      <stop
         style="stop-color:#ffc3d5;stop-opacity:0.73333335;"
         offset="1"
         id="stop3687" />
    </linearGradient>
    <linearGradient
       id="linearGradient3675">
      <stop
         style="stop-color:#ffc3d5;stop-opacity:1;"
         offset="0"
         id="stop3677" />
      <stop
         style="stop-color:#ffc3d5;stop-opacity:1;"
         offset="1"
         id="stop3679" />
    </linearGradient>
    <inkscape:perspective
       sodipodi:type="inkscape:persp3d"
       inkscape:vp_x="0 : 128 : 1"
       inkscape:vp_y="0 : 1000 : 0"
       inkscape:vp_z="256 : 128 : 1"
       inkscape:persp3d-origin="128 : 85.333333 : 1"
       id="perspective119" />
    <linearGradient
       id="linearGradient2956">
      <stop
         id="stop2958"
         offset="0"
         style="stop-color:white;stop-opacity:1" />
      <stop
         style="stop-color:#7f7f7f;stop-opacity:1;"
         offset="0"
         id="stop2962" />
      <stop
         id="stop2964"
         offset="0.75"
         style="stop-color:white;stop-opacity:1;" />
      <stop
         id="stop2960"
         offset="1"
         style="stop-color:black;stop-opacity:1" />
    </linearGradient>
    <linearGradient
       inkscape:collect="always"
       id="linearGradient2959">
      <stop
         style="stop-color:black;stop-opacity:1"
         offset="0"
         id="stop2961" />
      <stop
         style="stop-color:white;stop-opacity:1"
         offset="1"
         id="stop2963" />
    </linearGradient>
    <linearGradient
       inkscape:collect="always"
       id="linearGradient2935">
      <stop
         style="stop-color:black;stop-opacity:1;"
         offset="0"
         id="stop2937" />
      <stop
         style="stop-color:black;stop-opacity:0;"
         offset="1"
         id="stop2939" />
    </linearGradient>
    <linearGradient
       inkscape:collect="always"
       id="linearGradient2925">
      <stop
         style="stop-color:black;stop-opacity:1;"
         offset="0"
         id="stop2927" />
      <stop
         style="stop-color:black;stop-opacity:0;"
         offset="1"
         id="stop2929" />
    </linearGradient>
    <linearGradient
       id="linearGradient2909">
      <stop
         style="stop-color:#3b3b3b;stop-opacity:1"
         offset="0"
         id="stop2911" />
      <stop
         style="stop-color:white;stop-opacity:1;"
         offset="1"
         id="stop2913" />
    </linearGradient>
    <linearGradient
       inkscape:collect="always"
       id="linearGradient2899">
      <stop
         style="stop-color:white;stop-opacity:1"
         offset="0"
         id="stop2901" />
      <stop
         style="stop-color:black;stop-opacity:1"
         offset="1"
         id="stop2903" />
    </linearGradient>
    <linearGradient
       inkscape:collect="always"
       id="linearGradient2891">
      <stop
         style="stop-color:white;stop-opacity:1;"
         offset="0"
         id="stop2893" />
      <stop
         style="stop-color:black;stop-opacity:1"
         offset="1"
         id="stop2895" />
    </linearGradient>
    <linearGradient
       inkscape:collect="always"
       id="linearGradient2771">
      <stop
         style="stop-color:white;stop-opacity:1"
         offset="0"
         id="stop2773" />
      <stop
         style="stop-color:black;stop-opacity:0;"
         offset="1"
         id="stop2775" />
    </linearGradient>
    <linearGradient
       inkscape:collect="always"
       id="linearGradient2760">
      <stop
         style="stop-color:#7d7777;stop-opacity:1"
         offset="0"
         id="stop2762" />
      <stop
         style="stop-color:white;stop-opacity:1"
         offset="1"
         id="stop2764" />
    </linearGradient>
    <radialGradient
       inkscape:collect="always"
       xlink:href="#linearGradient2899"
       id="radialGradient2953"
       gradientUnits="userSpaceOnUse"
       gradientTransform="matrix(-1.597714,-9.932352e-2,0.110874,-1.783515,26.84382,92.75971)"
       cx="11.254178"
       cy="33.576466"
       fx="11.254178"
       fy="33.576466"
       r="5.3954015" />
    <linearGradient
       inkscape:collect="always"
       xlink:href="#linearGradient2891"
       id="linearGradient2955"
       gradientUnits="userSpaceOnUse"
       x1="6.7775841"
       y1="42.62072"
       x2="16.124134"
       y2="29.075609" />
    <linearGradient
       inkscape:collect="always"
       xlink:href="#linearGradient2771"
       id="linearGradient2048"
       gradientUnits="userSpaceOnUse"
       gradientTransform="matrix(1.488703,-0.219651,0.258467,1.26513,10.89905,-59.20045)"
       x1="54.297661"
       y1="154.35623"
       x2="62.676929"
       y2="138.45277" />
    <linearGradient
       inkscape:collect="always"
       xlink:href="#linearGradient2771"
       id="linearGradient2051"
       gradientUnits="userSpaceOnUse"
       gradientTransform="matrix(1.488703,-0.219651,0.258467,1.26513,4.713998,-73.2574)"
       x1="54.297661"
       y1="154.35623"
       x2="62.676929"
       y2="138.45277" />
    <linearGradient
       inkscape:collect="always"
       xlink:href="#linearGradient2771"
       id="linearGradient2054"
       gradientUnits="userSpaceOnUse"
       gradientTransform="matrix(1.488703,-0.219651,0.258467,1.26513,0.215776,-88.4389)"
       x1="54.297661"
       y1="154.35623"
       x2="62.676929"
       y2="138.45277" />
    <linearGradient
       inkscape:collect="always"
       xlink:href="#linearGradient2771"
       id="linearGradient2057"
       gradientUnits="userSpaceOnUse"
       gradientTransform="matrix(1.488703,-0.219651,0.258467,1.26513,-3.720168,-103.6204)"
       x1="54.297661"
       y1="154.35623"
       x2="62.676929"
       y2="138.45277" />
    <radialGradient
       inkscape:collect="always"
       xlink:href="#linearGradient2956"
       id="radialGradient2966"
       cx="117.57077"
       cy="102.68259"
       fx="117.57077"
       fy="102.68259"
       r="32.371666"
       gradientTransform="matrix(1.38868,-2.989845e-2,2.360939e-2,1.096575,-48.02422,-33.78302)"
       gradientUnits="userSpaceOnUse" />
    <linearGradient
       inkscape:collect="always"
       xlink:href="#linearGradient2959"
       id="linearGradient2517"
       gradientUnits="userSpaceOnUse"
       gradientTransform="matrix(1.677586,0,0,1.677586,10.66819,-16.38893)"
       spreadMethod="reflect"
       x1="82.947678"
       y1="133.88708"
       x2="85.941589"
       y2="133.88708" />
    <linearGradient
       inkscape:collect="always"
       xlink:href="#linearGradient2760"
       id="linearGradient2521"
       gradientUnits="userSpaceOnUse"
       gradientTransform="matrix(1.677586,0,0,1.677586,10.66819,-16.38893)"
       x1="79.9655"
       y1="121.50777"
       x2="94.789062"
       y2="109.54111" />
    <linearGradient
       inkscape:collect="always"
       xlink:href="#linearGradient2935"
       id="linearGradient2523"
       gradientUnits="userSpaceOnUse"
       gradientTransform="matrix(1.677586,0,0,1.677586,10.66819,-16.38893)"
       x1="87.393082"
       y1="133.88707"
       x2="88.615211"
       y2="104.58938" />
    <linearGradient
       inkscape:collect="always"
       xlink:href="#linearGradient2909"
       id="linearGradient2526"
       gradientUnits="userSpaceOnUse"
       gradientTransform="matrix(1.677586,0,0,1.677586,10.66819,-16.38893)"
       x1="69.236763"
       y1="121.71108"
       x2="88.23391"
       y2="118.82258" />
    <linearGradient
       inkscape:collect="always"
       xlink:href="#linearGradient2925"
       id="linearGradient2528"
       gradientUnits="userSpaceOnUse"
       gradientTransform="matrix(1.677586,0,0,1.677586,10.66819,-16.38893)"
       x1="76.053154"
       y1="132.02718"
       x2="79.893684"
       y2="107.28737" />
    <inkscape:perspective
       sodipodi:type="inkscape:persp3d"
       inkscape:vp_x="0 : 128 : 1"
       inkscape:vp_y="0 : 1000 : 0"
       inkscape:vp_z="256 : 128 : 1"
       inkscape:persp3d-origin="128 : 85.333333 : 1"
       id="perspective3333" />
    <linearGradient
       y2="62.433907"
       x2="77.311943"
       y1="60.369015"
       x1="59.893867"
       spreadMethod="reflect"
       gradientTransform="translate(2.0649012,3.539823)"
       gradientUnits="userSpaceOnUse"
       id="linearGradient3275"
       xlink:href="#linearGradient3261"
       inkscape:collect="always" />
    <inkscape:perspective
       id="perspective9"
       inkscape:persp3d-origin="372.04724 : 350.78739 : 1"
       inkscape:vp_z="744.09448 : 526.18109 : 1"
       inkscape:vp_y="0 : 1000 : 0"
       inkscape:vp_x="0 : 526.18109 : 1"
       sodipodi:type="inkscape:persp3d" />
    <linearGradient
       id="linearGradient3261"
       inkscape:collect="always">
      <stop
         id="stop3263"
         offset="0"
         style="stop-color:#453c3c;stop-opacity:1" />
      <stop
         id="stop3265"
         offset="1"
         style="stop-color:#fff9f9;stop-opacity:1" />
    </linearGradient>
    <linearGradient
       inkscape:collect="always"
       xlink:href="#linearGradient3261"
       id="linearGradient2438"
       gradientUnits="userSpaceOnUse"
       gradientTransform="matrix(1.5425333,0.1668328,-0.1668328,1.5425333,46.969022,-8.6084726)"
       spreadMethod="reflect"
       x1="59.893867"
       y1="60.369015"
       x2="77.311943"
       y2="62.433907" />
    <linearGradient
       inkscape:collect="always"
       xlink:href="#linearGradient3261"
       id="linearGradient3213"
       gradientUnits="userSpaceOnUse"
       gradientTransform="matrix(1.5425333,0.1668328,-0.1668328,1.5425333,43.068071,-0.806568)"
       spreadMethod="reflect"
       x1="77.994911"
       y1="137.12411"
       x2="57.378242"
       y2="-16.651909" />
    <filter
       inkscape:collect="always"
       id="filter3219">
      <feGaussianBlur
         inkscape:collect="always"
         stdDeviation="2.550942"
         id="feGaussianBlur3221" />
    </filter>
    <linearGradient
       inkscape:collect="always"
       xlink:href="#linearGradient2959"
       id="linearGradient3224"
       gradientUnits="userSpaceOnUse"
       gradientTransform="matrix(-1.677586,0,0,1.677586,170.85402,-10.420263)"
       spreadMethod="reflect"
       x1="82.947678"
       y1="133.88708"
       x2="85.941589"
       y2="133.88708" />
    <linearGradient
       inkscape:collect="always"
       xlink:href="#linearGradient2760"
       id="linearGradient3228"
       gradientUnits="userSpaceOnUse"
       gradientTransform="matrix(-1.677586,0,0,1.677586,259.00892,41.288165)"
       x1="79.9655"
       y1="121.50777"
       x2="94.789062"
       y2="109.54111" />
    <linearGradient
       inkscape:collect="always"
       xlink:href="#linearGradient2935"
       id="linearGradient3230"
       gradientUnits="userSpaceOnUse"
       gradientTransform="matrix(-1.677586,0,0,1.677586,259.00892,41.288165)"
       x1="87.393082"
       y1="133.88707"
       x2="88.615211"
       y2="104.58938" />
    <linearGradient
       inkscape:collect="always"
       xlink:href="#linearGradient2909"
       id="linearGradient3233"
       gradientUnits="userSpaceOnUse"
       gradientTransform="matrix(-1.677586,0,0,1.677586,259.00892,41.288165)"
       x1="69.236763"
       y1="121.71108"
       x2="88.23391"
       y2="118.82258" />
    <linearGradient
       inkscape:collect="always"
       xlink:href="#linearGradient2925"
       id="linearGradient3235"
       gradientUnits="userSpaceOnUse"
       gradientTransform="matrix(-1.677586,0,0,1.677586,259.00892,41.288165)"
       x1="76.053154"
       y1="132.02718"
       x2="79.893684"
       y2="107.28737" />
    <radialGradient
       inkscape:collect="always"
       xlink:href="#linearGradient2899"
       id="radialGradient3252"
       gradientUnits="userSpaceOnUse"
       gradientTransform="matrix(-1.597714,-9.932352e-2,0.110874,-1.783515,26.84382,92.75971)"
       cx="11.254178"
       cy="33.576466"
       fx="11.254178"
       fy="33.576466"
       r="5.3954015" />
    <linearGradient
       inkscape:collect="always"
       xlink:href="#linearGradient2891"
       id="linearGradient3254"
       gradientUnits="userSpaceOnUse"
       x1="6.7775841"
       y1="42.62072"
       x2="16.124134"
       y2="29.075609" />
    <filter
       inkscape:collect="always"
       id="filter3265"
       x="-0.12381432"
       width="1.2476286"
       y="-0.078390036"
       height="1.1567801">
      <feGaussianBlur
         inkscape:collect="always"
         stdDeviation="2.7487763"
         id="feGaussianBlur3267" />
    </filter>
    <linearGradient
       inkscape:collect="always"
       xlink:href="#linearGradient3261"
       id="linearGradient3276"
       gradientUnits="userSpaceOnUse"
       gradientTransform="matrix(1.5425333,0.1668328,-0.1668328,1.5425333,43.068071,-0.806568)"
       spreadMethod="reflect"
       x1="77.994911"
       y1="137.12411"
       x2="57.378242"
       y2="-16.651909" />
    <linearGradient
       inkscape:collect="always"
       xlink:href="#linearGradient3261"
       id="linearGradient3655"
       gradientUnits="userSpaceOnUse"
       gradientTransform="matrix(1.4524648,0.15709143,-0.15709143,1.4524648,33.345042,-5.2336241)"
       spreadMethod="reflect"
       x1="77.994911"
       y1="137.12411"
       x2="57.378242"
       y2="-16.651909" />
    <linearGradient
       inkscape:collect="always"
       xlink:href="#linearGradient3675"
       id="linearGradient3681"
       x1="136.2292"
       y1="246.53125"
       x2="136.2292"
       y2="5.0981498"
       gradientUnits="userSpaceOnUse" />
    <linearGradient
       inkscape:collect="always"
       xlink:href="#linearGradient3683"
       id="linearGradient3689"
       x1="136.2292"
       y1="246.53125"
       x2="136.2292"
       y2="5.0981498"
       gradientUnits="userSpaceOnUse" />
    <filter
       inkscape:collect="always"
       id="filter3691">
      <feGaussianBlur
         inkscape:collect="always"
         stdDeviation="4.7841938"
         id="feGaussianBlur3693" />
    </filter>
  </defs>
  <sodipodi:namedview
     inkscape:window-height="977"
     inkscape:window-width="1280"
     inkscape:pageshadow="2"
     inkscape:pageopacity="0.0"
     guidetolerance="10.0"
     gridtolerance="10.0"
     objecttolerance="10.0"
     borderopacity="1.0"
     bordercolor="#666666"
     pagecolor="#ffc3d5"
     id="base"
     inkscape:zoom="2.35"
     inkscape:cx="155.60018"
     inkscape:cy="132.30379"
     inkscape:window-x="0"
     inkscape:window-y="24"
     inkscape:current-layer="layer2"
     width="256px"
     height="256px"
     showgrid="false"
     inkscape:window-maximized="1" />
  <g
     inkscape:groupmode="layer"
     id="layer2"
     inkscape:label="shaddow"
     style="display:inline">
    <path
       style="fill:#ffc3d5;fill-opacity:1;fill-rule:evenodd;stroke:none;filter:url(#filter3691)"
       d="M 116.3125,5.71875 C 112.72432,5.8003782 109.28122,6.0839774 106,6.59375 97.384692,11.826854 94.047388,19.278344 91.875,27.1875 91.66552,31.824461 84.753027,32.045204 85.65625,26.5 c 2.720536,-6.520238 4.00753,-12.839954 11.125,-17.6875 -8.700194,2.96726 -14.997955,8.166643 -16.84375,16 L 77.15625,38.625 98.34375,41.9375 96.6875,50 75.5,46.78125 74.3125,52.625 l 20.25,3.15625 -0.75,7.34375 -20.96875,-3.1875 -1.375,6.65625 20.0625,3.125 -1.21875,7.375 -20.34375,-3 -1.0625,5.1875 20.4375,3.15625 -6.25,6.40625 -15.6875,-2.125 -1,4.875 14.875,2.3125 4.5625,8.21875 L 64.9375,99 l -1.28125,6.21875 20.65625,3.25 -1.21875,7.375 -20.9375,-3.09375 -1,4.96875 20.78125,3.21875 -1.1875,7.4375 -21.09375,-3.15625 -1.1875,5.78125 20.8125,3.28125 -1.1875,7.375 L 56.9375,138.5 55.53125,145.4375 C 52.012402,160.96753 65.379072,173.38658 84,180.875 l -1.46875,19.03125 c 1.008312,5.74558 3.166224,5.97563 5.09375,7.3125 l 1,0.25 0,-5.65625 c 0,-3.29325 5.135507,-5.9375 11.5,-5.9375 6.36449,0 11.5,2.64426 11.5,5.9375 l 0,7.21875 c 1.44778,-1.00174 2.79965,-2.30448 3.96875,-3.90625 l 9.8125,-16.375 c 19.93614,-0.0238 37.3407,-5.96407 41.3125,-19.5 l 2.5,-11.96875 -9.28125,-1.03125 0.71875,-6.90625 10,1.09375 1.15625,-5.59375 -9.09375,-1 0.71875,-6.96875 9.8125,1.09375 1.25,-6.03125 -9.625,-1.0625 0.75,-6.90625 10.3125,1.125 1.3125,-6.21875 -8.6875,-0.96875 0.75,-6.9375 9.375,1.03125 1.15625,-5.625 -9.53125,-1.03125 0.75,-6.9375 10.21875,1.15625 1.34375,-6.46875 -9.25,-1.03125 0.75,-6.90625 9.90625,1.09375 1.1875,-5.59375 -9.65625,-1.0625 0.71875,-6.96875 10.375,1.15625 1.40625,-6.65625 -9.84375,-1.09375 0.71875,-6.90625 10.53125,1.15625 2.5,-11.96875 C 195.03767,28.418391 167.42874,12.886059 138.78125,7.625 123.50647,9.7777681 115.50858,18.681028 113.125,32.71875 c -1.99559,2.947988 -6.72503,3.931234 -6.28125,-1.28125 2.38763,-10.035067 6.7036,-21.383634 23.25,-25.125 -2.05709,-0.2202567 -4.12814,-0.3592803 -6.15625,-0.46875 -16.02784,4.75261 -17.99813,14.584554 -22.03125,24.21875 -1.23703,6.073525 -6.678939,2.515408 -5.84375,-0.625 2.670105,-9.664259 6.81735,-18.111042 20.25,-23.71875 z m -4.6875,203.3125 c -2.7085,1.87407 -5.72803,2.66088 -8.34375,2.28125 -0.0787,-0.0114 -0.17208,-0.0489 -0.25,-0.0625 -0.46892,-0.0814 -0.93827,-0.18536 -1.375,-0.34375 l -0.0312,0 -13,-3.4375 0,37.8125 c 0,3.29324 5.135498,5.93752 11.5,5.9375 6.36449,0 11.50001,-2.64424 11.5,-5.9375 l 0,-36.25 z M 143.53125,9.96875 153.375,12.625 c -17.40698,2.331363 -24.96437,10.636158 -27.28125,22.09375 -1.6228,4.967384 -8.81646,3.049721 -8.09375,-1.1875 4.50258,-8.908533 3.03595,-19.443517 25.53125,-23.5625 z m 13.90625,5.9375 7.9375,5.59375 c -14.62738,1.818382 -21.82818,8.031987 -25.46875,16.28125 -2.50291,5.07691 -9.34649,4.4079 -8.28125,-0.90625 2.24142,-9.372323 6.50435,-18.249534 25.8125,-20.96875 z M 104.65625,43.6875 c 21.40181,7.737124 42.83093,9.744534 64.21875,12.59375 l -2.15625,8.28125 C 145.37247,61.891784 124.01085,59.45873 103.125,52.4375 l 1.53125,-8.75 z m -1.90625,14 c 21.40181,7.737126 42.79967,9.807032 64.1875,12.65625 l -2.125,8.25 C 143.46623,75.923035 122.1046,73.458721 101.21875,66.4375 l 1.53125,-8.75 z m -2.8125,13.28125 c 21.40181,7.737121 42.76842,9.807041 64.15625,12.65625 l -2.125,8.25 c -21.34627,-2.670706 -42.73916,-5.135018 -63.625,-12.15625 l 1.59375,-8.75 z m -3.25,12.8125 c 21.40181,7.73712 42.76841,9.807032 64.15625,12.65625 l -2.09375,8.25 c -21.34627,-2.67072 -35.67666,-4.728772 -56.5625,-11.75 l -5.5,-9.15625 z m 4.40625,15.40625 c 21.60191,5.84643 35.48717,7.68205 56.875,10.53125 l -2.09375,8.25 C 134.52873,115.29803 113.16709,112.89623 92.28125,105.875 l 8.8125,-6.6875 z m -9,10.03125 c 21.40181,7.73712 42.83092,9.80705 64.21875,12.65625 l -2.15625,8.25 c -21.34627,-2.6707 -42.7079,-5.13502 -63.59375,-12.15625 l 1.53125,-8.75 z m -1.40625,13.4375 c 21.40182,7.73712 42.79967,9.80702 64.1875,12.65625 l -2.125,8.25 c -21.34626,-2.67071 -42.70791,-5.13503 -63.59375,-12.15625 l 1.53125,-8.75 z m -2.84375,12.90625 c 21.40182,7.73713 42.83092,9.74454 64.21875,12.59375 l -2.15625,8.25 C 128.55997,153.73553 107.19834,151.33373 86.3125,144.3125 l 1.53125,-8.75 z m -30.1875,10.46875 c 0.0714,-0.0106 0.150308,-0.008 0.21875,0 0.54754,0.0666 1.012147,0.76488 1.40625,2.28125 -1.791334,4.33609 -0.629225,8.99407 0.8125,13.6875 -2.691732,-4.53061 -4.745752,-9.1885 -4.0625,-14.46875 0.577781,-0.87416 1.125202,-1.42565 1.625,-1.5 z m 6.34375,1.5 c 0.1691,-0.0114 0.331316,-0.0232 0.5,0 1.349465,0.18586 2.624098,1.47593 2.78125,3.59375 -2.625825,6.77247 0.07248,13.45527 1.65625,20.15625 -4.830022,-5.71065 -8.066801,-12.29522 -7.625,-20.8125 0.355583,-1.92708 1.5038,-2.85772 2.6875,-2.9375 z m 10.3125,2.875 c 1.674469,-0.0534 3.417211,1.36898 3.4375,4 -0.910257,9.60388 -1.393374,19.05299 5.6875,25.09375 -12.702712,-7.50215 -12.516453,-16.85083 -12,-26.21875 0.315881,-1.8878 1.572634,-2.83347 2.875,-2.875 z m 10.96875,2.625 c 0.177504,-0.006 0.355061,-0.017 0.53125,0 1.812218,0.17512 3.498574,1.54104 3.125,3.875 -1.338264,5.74098 -1.623112,11.31348 0.28125,16.5625 C 87.698602,172.98049 86.205398,172.48966 84.6875,172 l -0.15625,1.90625 c -3.222757,-5.55976 -2.951699,-12.21712 -2.25,-19 0.547068,-1.24111 1.757475,-1.83356 3,-1.875 z m 11.5625,3.28125 c 1.954151,0.0202 4.03754,1.4697 4,4.25 -1.656913,5.96757 -1.46043,11.42729 1,16.21875 -2.566133,-0.47007 -4.957616,-1.078 -7.25,-1.71875 -2.273746,-4.61257 -2.094437,-10.21166 -1.09375,-16.15625 0.359921,-1.75794 1.82386,-2.6094 3.34375,-2.59375 z m 13.71875,3.03125 c 0.29165,-0.001 0.58772,-0.007 0.875,0.0312 2.29827,0.30927 4.30058,1.87968 3.96875,4.6875 -1.31873,5.98216 0.46059,10.19535 3.21875,13.84375 -3.18241,0.11027 -6.11112,0.0647 -8.8125,-0.125 -3.85368,-3.67906 -5.69138,-8.52653 -3.96875,-15.40625 0.64194,-2.0535 2.67718,-3.02267 4.71875,-3.03125 z"
       id="path3259" />
  </g>
  <g
     inkscape:groupmode="layer"
     id="layer1"
     inkscape:label="icon"
     style="display:inline">
    <path
       style="fill:url(#linearGradient3681);fill-opacity:1;fill-rule:evenodd;stroke:url(#linearGradient3689);stroke-width:4;stroke-miterlimit:4;stroke-dasharray:none"
       d="M 114.6875,5.71875 C 111.19535,5.796489 107.8184,6.0770266 104.625,6.5625 96.240274,11.546166 92.989254,18.624088 90.875,26.15625 90.671132,30.572189 83.964701,30.78089 84.84375,25.5 87.491472,19.290553 88.729268,13.272735 95.65625,8.65625 87.188907,11.482074 81.077644,16.415023 79.28125,23.875 l -2.71875,13.1875 20.625,3.125 -1.625,7.6875 L 74.96875,44.8125 73.8125,50.375 93.5,53.40625 92.78125,60.375 l -20.4375,-3.03125 -1.3125,6.34375 19.5,2.96875 -1.15625,7.03125 -19.8125,-2.875 -1.03125,4.9375 19.875,3.03125 -6.0625,6.09375 -15.28125,-2 -0.9375,4.625 14.4375,2.1875 4.4375,7.84375 -20.34375,-3 -1.21875,5.9375 20.09375,3.09375 -1.1875,7.03125 -20.375,-2.9375 L 61,112.375 l 20.21875,3.0625 -1.15625,7.09375 -20.53125,-3 -1.15625,5.5 20.25,3.125 -1.125,7.03125 -20.625,-3 -1.375,6.59375 c -3.496981,15.10207 10.186151,27.10882 28.90625,34.1875 l -1.875,25.09375 c 0.903625,5.3679 2.8351,5.59476 4.5625,6.84375 l 0.90625,0.25 0,-5.3125 c 0,-3.07677 4.577541,-5.5625 10.28125,-5.5625 5.70371,0 10.3125,2.48574 10.3125,5.5625 l 0,6.75 c 1.29746,-0.93589 2.51478,-2.15977 3.5625,-3.65625 L 125.3125,180 c 18.64016,-0.36253 34.66108,-6.0418 38.40625,-18.53125 l 2.4375,-11.40625 -9.03125,-0.96875 0.71875,-6.59375 9.71875,1.0625 1.125,-5.34375 -8.84375,-0.96875 0.6875,-6.625 9.53125,1.03125 1.21875,-5.75 -9.34375,-1 0.71875,-6.59375 10.03125,1.09375 1.28125,-5.9375 -8.4375,-0.90625 0.71875,-6.625 9.125,1 1.125,-5.34375 -9.25,-1 0.6875,-6.59375 9.96875,1.0625 1.28125,-6.125 -8.96875,-0.96875 0.71875,-6.59375 9.65625,1.03125 1.125,-5.34375 -9.40625,-1 0.71875,-6.625 10.09375,1.09375 1.375,-6.34375 -9.59375,-1.03125 0.71875,-6.5625 10.25,1.09375 2.4375,-11.40625 c 2.98679,-18.945848 -23.90048,-33.739712 -51.78125,-38.75 -14.86597,2.0501552 -22.64897,10.537644 -24.96875,23.90625 -1.94219,2.807471 -6.52564,3.745279 -6.09375,-1.21875 2.32374,-9.556741 6.49019,-20.3432175 22.59375,-23.90625 -2.00203,-0.2097578 -3.99491,-0.3644978 -5.96875,-0.46875 -15.59887,4.526075 -17.51231,13.887523 -21.4375,23.0625 -1.203924,5.784027 -6.500336,2.365718 -5.6875,-0.625 2.598645,-9.203609 6.6456,-17.222086 19.71875,-22.5625 z m -6.09375,200.875 c -2.4273,1.75088 -5.1246,2.51092 -7.46875,2.15625 -0.0705,-0.0106 -0.14892,-0.0498 -0.21875,-0.0625 -0.42023,-0.0761 -0.82737,-0.19577 -1.21875,-0.34375 l -0.03125,0 L 88,205.15625 l 0,35.3125 c 0,3.07677 4.577532,5.56251 10.28125,5.5625 5.70371,0 10.31251,-2.48571 10.3125,-5.5625 l 0,-33.875 z m 32.5625,-196.8125 9.59375,2.5 c -16.9411,2.220238 -24.30762,10.15104 -26.5625,21.0625 -1.57936,4.730612 -8.57836,2.910252 -7.875,-1.125 4.38209,-8.483904 2.95051,-18.51485 24.84375,-22.4375 z m 13.53125,5.625 7.71875,5.34375 c -14.2359,1.731709 -21.20686,7.643942 -24.75,15.5 -2.43592,4.834917 -9.13048,4.185848 -8.09375,-0.875 2.18144,-8.925586 6.33361,-17.379147 25.125,-19.96875 z M 103.34375,41.875 c 20.82901,7.368331 41.65334,9.286594 62.46875,12 l -2.09375,7.90625 c -20.77497,-2.543415 -41.54813,-4.875941 -61.875,-11.5625 l 1.5,-8.34375 z m -1.875,13.34375 c 20.82902,7.368333 41.68459,9.317841 62.5,12.03125 L 161.875,75.125 C 141.10004,72.581586 120.29561,70.249052 99.96875,63.5625 l 1.5,-8.34375 z m -2.75,12.65625 c 20.82901,7.368327 41.62208,9.31785 62.4375,12.03125 l -2.03125,7.875 C 138.35003,85.237839 117.51435,82.874061 97.1875,76.1875 L 98.71875,67.875 z M 95.5625,80.0625 c 20.82901,7.368325 41.62208,9.317842 62.4375,12.03125 l -2.03125,7.875 c -20.77496,-2.543411 -34.73564,-4.50094 -55.0625,-11.1875 L 95.5625,80.0625 z m 4.3125,14.65625 c 21.02376,5.56775 34.52833,7.31785 55.34375,10.03125 l -2.03125,7.84375 c -20.77497,-2.54342 -41.5794,-4.81344 -61.90625,-11.5 l 8.59375,-6.375 z m -8.75,9.5625 c 20.82902,7.36833 41.65334,9.3491 62.46875,12.0625 L 151.5,124.1875 c -20.77496,-2.54341 -41.54814,-4.87594 -61.875,-11.5625 l 1.5,-8.34375 z m -1.40625,12.8125 c 20.82902,7.36833 41.68458,9.31784 62.5,12.03125 l -2.09375,7.84375 c -20.77496,-2.54341 -41.57939,-4.8447 -61.90625,-11.53125 l 1.5,-8.34375 z m -2.75,12.28125 c 20.82902,7.36833 41.68458,9.2866 62.5,12 l -2.09375,7.84375 c -20.77497,-2.54341 -41.57939,-4.81343 -61.90625,-11.5 l 1.5,-8.34375 z m -29.375,9.96875 c 0.06949,-0.0101 0.120889,-0.008 0.1875,0 0.532885,0.0635 0.991445,0.74341 1.375,2.1875 -1.743391,4.12941 -0.59064,8.56153 0.8125,13.03125 C 57.349059,150.24784 55.335035,145.77856 56,140.75 c 0.562317,-0.83249 1.107328,-1.33544 1.59375,-1.40625 z m 6.15625,1.4375 c 0.164574,-0.0109 0.33583,-0.0221 0.5,0 1.313348,0.17701 2.565804,1.38937 2.71875,3.40625 -2.555548,6.44965 0.05236,12.80593 1.59375,19.1875 -4.700752,-5.43845 -7.836227,-11.70121 -7.40625,-19.8125 0.346066,-1.83522 1.44173,-2.70527 2.59375,-2.78125 z M 73.78125,143.5 c 1.629654,-0.0508 3.324004,1.3069 3.34375,3.8125 -0.885895,9.14611 -1.328863,18.12218 5.5625,23.875 C 70.324761,164.04295 70.497368,155.17139 71,146.25 c 0.307426,-1.79781 1.51374,-2.71045 2.78125,-2.75 z m 10.6875,2.5 c 0.172753,-0.006 0.359777,-0.0162 0.53125,0 1.76372,0.16678 3.394824,1.46479 3.03125,3.6875 -2.125166,8.92092 -1.58423,17.48506 6.65625,24.84375 -14.236711,-5.88341 -14.275393,-16.13305 -13.15625,-26.71875 0.532426,-1.18196 1.728229,-1.77303 2.9375,-1.8125 z m 11.25,3.15625 c 1.901855,0.0192 3.911535,1.38347 3.875,4.03125 -2.60712,9.1882 -0.487417,17.0804 8.03125,23.15625 -15.965973,-3.86812 -17.051042,-13.73569 -15.15625,-24.75 0.350289,-1.67415 1.770788,-2.45241 3.25,-2.4375 z M 109.0625,152 c 0.28385,-0.001 0.56415,0.0257 0.84375,0.0625 2.23676,0.29454 4.2292,1.79476 3.90625,4.46875 -2.2078,9.80015 4.45833,14.62708 9.625,20.28125 -0.4532,0.0576 -0.86991,0.10558 -1.3125,0.15625 -11.51956,-4.17147 -20.84007,-9.62029 -17.65625,-22.0625 0.62476,-1.95563 2.60682,-2.89808 4.59375,-2.90625 z"
       id="path2907" />
  </g>
</svg>
