<?xml version="1.0" encoding="UTF-8" standalone="no"?>
<!-- Created with Inkscape (http://www.inkscape.org/) -->

<svg
   xmlns:dc="http://purl.org/dc/elements/1.1/"
   xmlns:cc="http://creativecommons.org/ns#"
   xmlns:rdf="http://www.w3.org/1999/02/22-rdf-syntax-ns#"
   xmlns:svg="http://www.w3.org/2000/svg"
   xmlns="http://www.w3.org/2000/svg"
   xmlns:xlink="http://www.w3.org/1999/xlink"
   xmlns:sodipodi="http://sodipodi.sourceforge.net/DTD/sodipodi-0.dtd"
   xmlns:inkscape="http://www.inkscape.org/namespaces/inkscape"
   width="256"
   height="256"
   id="svg2"
   sodipodi:version="0.32"
   inkscape:version="0.47pre4 r22446"
   version="1.0"
   sodipodi:docname="input-tablet.svg"
   inkscape:output_extension="org.inkscape.output.svg.inkscape">
  <sodipodi:namedview
     id="base"
     pagecolor="#ffc3d5"
     bordercolor="#666666"
     borderopacity="1.0"
     inkscape:pageopacity="0.0"
     inkscape:pageshadow="2"
     inkscape:zoom="2.58"
     inkscape:cx="133.5025"
     inkscape:cy="128"
     inkscape:document-units="px"
     inkscape:current-layer="layer1"
     width="256px"
     height="256px"
     inkscape:window-width="1280"
     inkscape:window-height="977"
     inkscape:window-x="0"
     inkscape:window-y="24"
     showgrid="false"
     inkscape:window-maximized="1" />
  <defs
     id="defs4">
    <linearGradient
       id="linearGradient3697">
      <stop
         style="stop-color:#ffc3d5;stop-opacity:1;"
         offset="0"
         id="stop3699" />
      <stop
         style="stop-color:#ffc3d5;stop-opacity:0.73333335;"
         offset="1"
         id="stop3701" />
    </linearGradient>
    <linearGradient
       id="linearGradient3399">
      <stop
         style="stop-color:#ffc3d5;stop-opacity:1;"
         offset="0"
         id="stop3401" />
      <stop
         style="stop-color:#ffc3d5;stop-opacity:1;"
         offset="1"
         id="stop3403" />
    </linearGradient>
    <linearGradient
       inkscape:collect="always"
       id="linearGradient3387">
      <stop
         style="stop-color:#000000;stop-opacity:1;"
         offset="0"
         id="stop3389" />
      <stop
         style="stop-color:#ffc3d5;stop-opacity:1"
         offset="1"
         id="stop3391" />
    </linearGradient>
    <linearGradient
       inkscape:collect="always"
       id="linearGradient3369">
      <stop
         style="stop-color:#6465df;stop-opacity:1"
         offset="0"
         id="stop3371" />
      <stop
         style="stop-color:#ffc3d5;stop-opacity:1"
         offset="1"
         id="stop3373" />
    </linearGradient>
    <linearGradient
       id="linearGradient3578">
      <stop
         style="stop-color:#000000;stop-opacity:1;"
         offset="0"
         id="stop3580" />
      <stop
         style="stop-color:#fffcfc;stop-opacity:1;"
         offset="1"
         id="stop3582" />
    </linearGradient>
    <inkscape:perspective
       id="perspective2503"
       inkscape:persp3d-origin="128 : 85.333333 : 1"
       inkscape:vp_z="256 : 128 : 1"
       inkscape:vp_y="0 : 1000 : 0"
       inkscape:vp_x="0 : 128 : 1"
       sodipodi:type="inkscape:persp3d" />
    <linearGradient
       inkscape:collect="always"
       xlink:href="#linearGradient3578"
       id="linearGradient3584"
       x1="13.514812"
       y1="-7.4748664"
       x2="16.093008"
       y2="-7.4748664"
       gradientUnits="userSpaceOnUse"
       spreadMethod="reflect" />
    <linearGradient
       inkscape:collect="always"
       xlink:href="#linearGradient3578"
       id="linearGradient3586"
       gradientUnits="userSpaceOnUse"
       spreadMethod="reflect"
       x1="16.908924"
       y1="-5.2121248"
       x2="18.616835"
       y2="-6.5828238" />
    <linearGradient
       inkscape:collect="always"
       xlink:href="#linearGradient3578"
       id="linearGradient3588"
       gradientUnits="userSpaceOnUse"
       spreadMethod="reflect"
       x1="13.514812"
       y1="-7.4748664"
       x2="17.07476"
       y2="-8.018795" />
    <linearGradient
       inkscape:collect="always"
       xlink:href="#linearGradient3578"
       id="linearGradient3590"
       gradientUnits="userSpaceOnUse"
       spreadMethod="reflect"
       x1="16.386753"
       y1="-5.9083529"
       x2="17.74655"
       y2="-6.9526954" />
    <linearGradient
       inkscape:collect="always"
       xlink:href="#linearGradient3578"
       id="linearGradient3592"
       gradientUnits="userSpaceOnUse"
       spreadMethod="reflect"
       x1="12.905613"
       y1="-10.150993"
       x2="11.371711"
       y2="-5.7778101" />
    <linearGradient
       inkscape:collect="always"
       xlink:href="#linearGradient3578"
       id="linearGradient3594"
       gradientUnits="userSpaceOnUse"
       spreadMethod="reflect"
       x1="12.035328"
       y1="-11.586965"
       x2="8.6955833"
       y2="-2.6882975" />
    <linearGradient
       inkscape:collect="always"
       xlink:href="#linearGradient3578"
       id="linearGradient3596"
       gradientUnits="userSpaceOnUse"
       spreadMethod="reflect"
       x1="16.386753"
       y1="-11.39115"
       x2="11.132382"
       y2="-11.199143" />
    <linearGradient
       inkscape:collect="always"
       xlink:href="#linearGradient3578"
       id="linearGradient3598"
       gradientUnits="userSpaceOnUse"
       spreadMethod="reflect"
       x1="16.691353"
       y1="-10.977764"
       x2="16.093008"
       y2="-7.4748664" />
    <linearGradient
       inkscape:collect="always"
       xlink:href="#linearGradient3578"
       id="linearGradient3600"
       gradientUnits="userSpaceOnUse"
       spreadMethod="reflect"
       x1="15.58174"
       y1="-6.2564669"
       x2="17.376678"
       y2="-1.9920692" />
    <linearGradient
       inkscape:collect="always"
       xlink:href="#linearGradient3578"
       id="linearGradient3602"
       gradientUnits="userSpaceOnUse"
       spreadMethod="reflect"
       x1="17.082983"
       y1="-2.2749119"
       x2="14.93988"
       y2="-3.7326398" />
    <linearGradient
       inkscape:collect="always"
       xlink:href="#linearGradient3578"
       id="linearGradient3604"
       gradientUnits="userSpaceOnUse"
       spreadMethod="reflect"
       x1="7.7709298"
       y1="-3.7543969"
       x2="12.916467"
       y2="-4.5158963" />
    <linearGradient
       inkscape:collect="always"
       xlink:href="#linearGradient3578"
       id="linearGradient3606"
       gradientUnits="userSpaceOnUse"
       spreadMethod="reflect"
       x1="11.186799"
       y1="-5.8865957"
       x2="9.7181683"
       y2="-1.5134122" />
    <linearGradient
       inkscape:collect="always"
       xlink:href="#linearGradient3578"
       id="linearGradient3608"
       gradientUnits="userSpaceOnUse"
       spreadMethod="reflect"
       x1="10.621114"
       y1="-6.4087667"
       x2="16.093008"
       y2="-7.4748664" />
    <linearGradient
       inkscape:collect="always"
       xlink:href="#linearGradient3578"
       id="linearGradient3610"
       gradientUnits="userSpaceOnUse"
       spreadMethod="reflect"
       x1="15.650429"
       y1="-2.2096405"
       x2="16.093008"
       y2="-7.4748664" />
    <linearGradient
       inkscape:collect="always"
       xlink:href="#linearGradient3578"
       id="linearGradient2551"
       gradientUnits="userSpaceOnUse"
       spreadMethod="reflect"
       x1="13.514812"
       y1="-7.4748664"
       x2="16.093008"
       y2="-7.4748664" />
    <linearGradient
       inkscape:collect="always"
       xlink:href="#linearGradient3578"
       id="linearGradient2553"
       gradientUnits="userSpaceOnUse"
       spreadMethod="reflect"
       x1="13.514812"
       y1="-7.4748664"
       x2="16.093008"
       y2="-7.4748664" />
    <linearGradient
       inkscape:collect="always"
       xlink:href="#linearGradient3578"
       id="linearGradient2555"
       gradientUnits="userSpaceOnUse"
       spreadMethod="reflect"
       x1="13.514812"
       y1="-7.4748664"
       x2="16.093008"
       y2="-7.4748664" />
    <linearGradient
       inkscape:collect="always"
       xlink:href="#linearGradient3578"
       id="linearGradient2557"
       gradientUnits="userSpaceOnUse"
       spreadMethod="reflect"
       x1="13.514812"
       y1="-7.4748664"
       x2="16.093008"
       y2="-7.4748664" />
    <linearGradient
       inkscape:collect="always"
       xlink:href="#linearGradient3578"
       id="linearGradient2559"
       gradientUnits="userSpaceOnUse"
       spreadMethod="reflect"
       x1="13.514812"
       y1="-7.4748664"
       x2="16.093008"
       y2="-7.4748664" />
    <linearGradient
       inkscape:collect="always"
       xlink:href="#linearGradient3578"
       id="linearGradient2561"
       gradientUnits="userSpaceOnUse"
       spreadMethod="reflect"
       x1="13.514812"
       y1="-7.4748664"
       x2="16.093008"
       y2="-7.4748664" />
    <linearGradient
       inkscape:collect="always"
       xlink:href="#linearGradient3578"
       id="linearGradient2563"
       gradientUnits="userSpaceOnUse"
       spreadMethod="reflect"
       x1="13.514812"
       y1="-7.4748664"
       x2="16.093008"
       y2="-7.4748664" />
    <linearGradient
       inkscape:collect="always"
       xlink:href="#linearGradient3578"
       id="linearGradient2565"
       gradientUnits="userSpaceOnUse"
       spreadMethod="reflect"
       x1="13.514812"
       y1="-7.4748664"
       x2="16.093008"
       y2="-7.4748664" />
    <linearGradient
       inkscape:collect="always"
       xlink:href="#linearGradient3578"
       id="linearGradient2567"
       gradientUnits="userSpaceOnUse"
       spreadMethod="reflect"
       x1="13.514812"
       y1="-7.4748664"
       x2="16.093008"
       y2="-7.4748664" />
    <linearGradient
       inkscape:collect="always"
       xlink:href="#linearGradient3578"
       id="linearGradient2569"
       gradientUnits="userSpaceOnUse"
       spreadMethod="reflect"
       x1="13.514812"
       y1="-7.4748664"
       x2="16.093008"
       y2="-7.4748664" />
    <linearGradient
       inkscape:collect="always"
       xlink:href="#linearGradient3578"
       id="linearGradient2571"
       gradientUnits="userSpaceOnUse"
       spreadMethod="reflect"
       x1="13.514812"
       y1="-7.4748664"
       x2="16.093008"
       y2="-7.4748664" />
    <linearGradient
       inkscape:collect="always"
       xlink:href="#linearGradient3578"
       id="linearGradient2573"
       gradientUnits="userSpaceOnUse"
       spreadMethod="reflect"
       x1="13.514812"
       y1="-7.4748664"
       x2="16.093008"
       y2="-7.4748664" />
    <linearGradient
       inkscape:collect="always"
       xlink:href="#linearGradient3578"
       id="linearGradient2575"
       gradientUnits="userSpaceOnUse"
       spreadMethod="reflect"
       x1="13.514812"
       y1="-7.4748664"
       x2="16.093008"
       y2="-7.4748664" />
    <linearGradient
       inkscape:collect="always"
       xlink:href="#linearGradient3578"
       id="linearGradient2577"
       gradientUnits="userSpaceOnUse"
       spreadMethod="reflect"
       x1="13.514812"
       y1="-7.4748664"
       x2="16.093008"
       y2="-7.4748664" />
    <linearGradient
       inkscape:collect="always"
       xlink:href="#linearGradient3578"
       id="linearGradient2579"
       gradientUnits="userSpaceOnUse"
       spreadMethod="reflect"
       x1="13.514812"
       y1="-7.4748664"
       x2="16.093008"
       y2="-7.4748664" />
    <linearGradient
       inkscape:collect="always"
       xlink:href="#linearGradient3578"
       id="linearGradient2581"
       gradientUnits="userSpaceOnUse"
       spreadMethod="reflect"
       x1="13.514812"
       y1="-7.4748664"
       x2="16.093008"
       y2="-7.4748664" />
    <linearGradient
       inkscape:collect="always"
       xlink:href="#linearGradient3578"
       id="linearGradient2583"
       gradientUnits="userSpaceOnUse"
       spreadMethod="reflect"
       x1="13.514812"
       y1="-7.4748664"
       x2="16.093008"
       y2="-7.4748664" />
    <linearGradient
       inkscape:collect="always"
       xlink:href="#linearGradient3578"
       id="linearGradient2585"
       gradientUnits="userSpaceOnUse"
       spreadMethod="reflect"
       x1="13.514812"
       y1="-7.4748664"
       x2="16.093008"
       y2="-7.4748664" />
    <linearGradient
       inkscape:collect="always"
       xlink:href="#linearGradient3578"
       id="linearGradient2587"
       gradientUnits="userSpaceOnUse"
       spreadMethod="reflect"
       x1="13.514812"
       y1="-7.4748664"
       x2="16.093008"
       y2="-7.4748664" />
    <linearGradient
       inkscape:collect="always"
       xlink:href="#linearGradient3578"
       id="linearGradient2589"
       gradientUnits="userSpaceOnUse"
       spreadMethod="reflect"
       x1="13.514812"
       y1="-7.4748664"
       x2="16.093008"
       y2="-7.4748664" />
    <linearGradient
       inkscape:collect="always"
       xlink:href="#linearGradient3578"
       id="linearGradient2591"
       gradientUnits="userSpaceOnUse"
       spreadMethod="reflect"
       x1="13.514812"
       y1="-7.4748664"
       x2="16.093008"
       y2="-7.4748664" />
    <linearGradient
       inkscape:collect="always"
       xlink:href="#linearGradient3578"
       id="linearGradient2593"
       gradientUnits="userSpaceOnUse"
       spreadMethod="reflect"
       x1="13.514812"
       y1="-7.4748664"
       x2="16.093008"
       y2="-7.4748664" />
    <linearGradient
       inkscape:collect="always"
       xlink:href="#linearGradient3578"
       id="linearGradient2595"
       gradientUnits="userSpaceOnUse"
       spreadMethod="reflect"
       x1="13.514812"
       y1="-7.4748664"
       x2="16.093008"
       y2="-7.4748664" />
    <linearGradient
       inkscape:collect="always"
       xlink:href="#linearGradient3369"
       id="linearGradient3375"
       x1="155.81395"
       y1="113.36433"
       x2="215.89148"
       y2="50.573639"
       gradientUnits="userSpaceOnUse"
       spreadMethod="reflect" />
    <linearGradient
       inkscape:collect="always"
       xlink:href="#linearGradient3387"
       id="linearGradient3393"
       x1="-81.182167"
       y1="145.67221"
       x2="-79.282944"
       y2="78.617943"
       gradientUnits="userSpaceOnUse" />
    <linearGradient
       inkscape:collect="always"
       xlink:href="#linearGradient3387"
       id="linearGradient3397"
       gradientUnits="userSpaceOnUse"
       x1="-81.182167"
       y1="145.67221"
       x2="-79.282944"
       y2="78.617943" />
    <linearGradient
       inkscape:collect="always"
       xlink:href="#linearGradient3369"
       id="linearGradient3403"
       gradientUnits="userSpaceOnUse"
       spreadMethod="reflect"
       x1="155.81395"
       y1="113.36433"
       x2="215.89148"
       y2="50.573639"
       gradientTransform="matrix(0.4584837,0,0,0.4584837,12.357625,81.058821)" />
    <linearGradient
       inkscape:collect="always"
       xlink:href="#linearGradient3578"
       id="linearGradient3290"
       gradientUnits="userSpaceOnUse"
       spreadMethod="reflect"
       x1="13.514812"
       y1="-7.4748664"
       x2="16.093008"
       y2="-7.4748664" />
    <linearGradient
       inkscape:collect="always"
       xlink:href="#linearGradient3399"
       id="linearGradient3405"
       x1="122.69763"
       y1="222.98029"
       x2="117.69604"
       y2="59.669941"
       gradientUnits="userSpaceOnUse"
       spreadMethod="reflect" />
    <filter
       inkscape:collect="always"
       id="filter3415">
      <feGaussianBlur
         inkscape:collect="always"
         stdDeviation="4.2891933"
         id="feGaussianBlur3417" />
    </filter>
    <linearGradient
       inkscape:collect="always"
       xlink:href="#linearGradient3399"
       id="linearGradient3685"
       gradientUnits="userSpaceOnUse"
       spreadMethod="reflect"
       x1="122.69763"
       y1="222.98029"
       x2="122.69763"
       y2="29.347919" />
    <filter
       inkscape:collect="always"
       id="filter3693">
      <feGaussianBlur
         inkscape:collect="always"
         stdDeviation="5.3614916"
         id="feGaussianBlur3695" />
    </filter>
    <linearGradient
       inkscape:collect="always"
       xlink:href="#linearGradient3697"
       id="linearGradient3703"
       x1="166.7079"
       y1="222.57523"
       x2="166.7079"
       y2="29.81703"
       gradientUnits="userSpaceOnUse" />
  </defs>
  <metadata
     id="metadata7">
    <rdf:RDF>
      <cc:Work
         rdf:about="">
        <dc:format>image/svg+xml</dc:format>
        <dc:type
           rdf:resource="http://purl.org/dc/dcmitype/StillImage" />
      </cc:Work>
    </rdf:RDF>
  </metadata>
  <g
     inkscape:groupmode="layer"
     id="layer2"
     inkscape:label="shaddow">
    <path
       id="path3407"
       d="m 106.25634,11.169253 c -11.356762,17.919441 -19.290379,35.737695 0,52.751204 l -45.785662,0 c -9.690252,0 -17.514609,8.058486 -17.514609,18.084036 l 0,81.890657 3.078325,0 c 0.456944,-2.76569 2.7831,-4.83216 5.590523,-4.83217 l 30.641719,0 c 2.806997,0 5.133082,2.06713 5.590521,4.83217 l 126.352863,0 0,-81.890657 c 0,-10.025551 -7.78897,-18.084036 -17.47923,-18.084036 l -82.79633,0 C 91.481281,45.708882 100.75205,29.521185 109.93618,12.194259 l -3.67984,-1.025006 z m 107.95368,152.725897 0,16.54653 4.35212,0 c 1.47662,1e-5 2.65372,-1.25446 2.65372,-2.78216 l 0,-1.02501 10.6503,0 0,-8.27326 -10.6503,0 0,-1.72054 c 1e-5,-1.5277 -1.17712,-2.74556 -2.65372,-2.74556 l -4.35212,0 z m 0,16.54653 -126.459012,0 c -0.608248,2.55909 -2.817967,4.46611 -5.484372,4.4661 l -30.641719,0 c -2.667129,0 -4.876833,-1.90594 -5.484373,-4.4661 l -3.184475,0 0,34.96002 c 0,10.02556 7.824358,18.12065 17.514609,18.12065 l 136.260112,0 c 9.69026,0 17.47923,-8.09509 17.47923,-18.12065 l 0,-34.96002 z m -171.253951,0 0,-16.54653 -3.644454,0 c -1.476611,1e-5 -2.689111,1.21786 -2.689111,2.74556 l 0,1.72054 -11.322576,0 0,8.27326 11.322576,0 0,1.02501 c -10e-7,1.52771 1.212501,2.78216 2.689111,2.78216 l 3.644454,0 z"
       style="fill:#ffc3d5;fill-opacity:1;stroke:none;filter:url(#filter3693)" />
  </g>
  <g
     id="layer1"
     inkscape:groupmode="layer"
     inkscape:label="icon">
    <path
       style="fill:url(#linearGradient3685);fill-opacity:1;stroke:url(#linearGradient3703);stroke-width:4;stroke-miterlimit:4;stroke-dasharray:none"
       d="m 106.82882,11.169253 c -11.065566,16.876032 -18.795758,33.656768 0,49.679619 l -44.611677,0 c -9.441785,0 -17.065518,7.589258 -17.065518,17.031042 l 0,77.122346 2.999394,0 c 0.445227,-2.60465 2.711738,-4.55079 5.447176,-4.5508 l 29.856037,0 c 2.735023,0 5.001465,1.94676 5.447175,4.5508 l 123.113053,0 0,-77.122346 c 0,-9.441785 -7.58925,-17.031042 -17.03104,-17.031042 l -80.67336,0 C 92.432605,43.697716 101.46566,28.452593 110.4143,12.134575 l -3.58548,-0.965322 z m 105.18564,143.833007 0,15.58306 4.24053,0 c 1.43876,1e-5 2.58568,-1.18141 2.58568,-2.62016 l 0,-0.96532 10.37721,0 0,-7.79153 -10.37721,0 0,-1.62036 c 1e-5,-1.43874 -1.14694,-2.58569 -2.58568,-2.58569 l -4.24053,0 z m 0,15.58306 -123.21648,0 c -0.592652,2.41008 -2.745712,4.20606 -5.343748,4.20605 l -29.856037,0 c -2.598741,0 -4.751786,-1.79496 -5.343748,-4.20605 l -3.102822,0 0,32.92438 c 0,9.44179 7.623734,17.06552 17.065518,17.06552 l 132.766277,0 c 9.44179,0 17.03104,-7.62373 17.03104,-17.06552 l 0,-32.92438 z m -166.862835,0 0,-15.58306 -3.551007,0 c -1.438749,1e-5 -2.62016,1.14695 -2.62016,2.58569 l 0,1.62036 -11.032254,0 0,7.79153 11.032254,0 0,0.96532 c -10e-7,1.43876 1.181412,2.62016 2.62016,2.62016 l 3.551007,0 z"
       id="rect3385" />
  </g>
</svg>
