#define grid_width 8
#define grid_height 8
static unsigned char grid_bits[] = {
   0xff, 0xff, 0xd5, 0xab, 0xd5, 0xab, 0xd5, 0xff };
