/* XPM */
static char *font_xpm[] = {
"24 24 3 1",
" 	c None",
"1	c #000000",
"2	c #FFFFFF",
"11111111111111111111111 ",
"1                     11",
"1                     11",
"1                     11",
"1           111       11",
"1          1111       11",
"1          11111      11",
"1         11 111      11",
"1         11  11      11",
"1        11   111     11",
"1        11   111     11",
"1       11     11     11",
"1       11     111    11",
"1      11      111    11",
"1      11111111111    11",
"1     1111111111111   11",
"1     11        111   11",
"1    11         111   11",
"1    11          111  11",
"1   11           111  11",
"1                     11",
"1                     11",
"111111111111111111111111",
" 11111111111111111111111"
};
