/* XPM */
static char *lock_xpm[] = {
"16 16 256 2",
"  	c None",
"BA	c #FFFFFF",
"CA	c #FFFFFF",
"DA	c #FFFFFF",
"EA	c #FFFFFF",
"FA	c #FFFFFF",
"GA	c #FFFFFF",
"HA	c #FFFFFF",
"IA	c #FFFFFF",
"JA	c #FFFFFF",
"KA	c #FFFFFF",
"LA	c #FFFFFF",
"MA	c #FFFFFF",
"NA	c #FFFFFF",
"OA	c #FFFFFF",
"PA	c #FFFFFF",
"QA	c #FFFFFF",
"RA	c #FFFFFF",
"SA	c #FFFFFF",
"TA	c #FFFFFF",
"UA	c #FFFFFF",
"VA	c #040404",
"WA	c #000000",
"XA	c #000000",
"YA	c #000000",
"ZA	c #000000",
"aA	c #040404",
"bA	c #FFFFFF",
"cA	c #FFFFFF",
"dA	c #FFFFFF",
"eA	c #FFFFFF",
"fA	c #FFFFFF",
"gA	c #FFFFFF",
"hA	c #FFFFFF",
"iA	c #FFFFFF",
"jA	c #FFFFFF",
"kA	c #FFFFFF",
"lA	c #000000",
"mA	c #D2D2D2",
"nA	c #FFFFFF",
"oA	c #FFFFFF",
"pA	c #D2D2D2",
"qA	c #000000",
"rA	c #FFFFFF",
"sA	c #FFFFFF",
"tA	c #FFFFFF",
"uA	c #FFFFFF",
"vA	c #FFFFFF",
"wA	c #FFFFFF",
"xA	c #FFFFFF",
"yA	c #FFFFFF",
"zA	c #FFFFFF",
"0A	c #FFFFFF",
"1A	c #000000",
"2A	c #FFFFFF",
"3A	c #FFFFFF",
"4A	c #FFFFFF",
"5A	c #FFFFFF",
"6A	c #000000",
"7A	c #FFFFFF",
"8A	c #FFFFFF",
"9A	c #FFFFFF",
"+A	c #FFFFFF",
"/A	c #FFFFFF",
"AB	c #FFFFFF",
"BB	c #FFFFFF",
"CB	c #FFFFFF",
"DB	c #FFFFFF",
"EB	c #FFFFFF",
"FB	c #000000",
"GB	c #FFFFFF",
"HB	c #FFFFFF",
"IB	c #FFFFFF",
"JB	c #FFFFFF",
"KB	c #000000",
"LB	c #FFFFFF",
"MB	c #FFFFFF",
"NB	c #FFFFFF",
"OB	c #FFFFFF",
"PB	c #FFFFFF",
"QB	c #FFFFFF",
"RB	c #FFFFFF",
"SB	c #FFFFFF",
"TB	c #FFFFFF",
"UB	c #FFFFFF",
"VB	c #000000",
"WB	c #FFFFFF",
"XB	c #FFFFFF",
"YB	c #FFFFFF",
"ZB	c #FFFFFF",
"aB	c #000000",
"bB	c #FFFFFF",
"cB	c #FFFFFF",
"dB	c #FFFFFF",
"eB	c #FFFFFF",
"fB	c #FFFFFF",
"gB	c #FFFFFF",
"hB	c #FFFFFF",
"iB	c #FFFFFF",
"jB	c #050505",
"kB	c #000000",
"lB	c #000000",
"mB	c #000000",
"nB	c #000000",
"oB	c #000000",
"pB	c #000000",
"qB	c #000000",
"rB	c #000000",
"sB	c #050505",
"tB	c #FFFFFF",
"uB	c #FFFFFF",
"vB	c #FFFFFF",
"wB	c #FFFFFF",
"xB	c #FFFFFF",
"yB	c #FFFFFF",
"zB	c #000000",
"0B	c #000000",
"1B	c #000000",
"2B	c #000000",
"3B	c #000000",
"4B	c #000000",
"5B	c #000000",
"6B	c #000000",
"7B	c #000000",
"8B	c #000000",
"9B	c #FFFFFF",
"+B	c #FFFFFF",
"/B	c #FFFFFF",
"AC	c #FFFFFF",
"BC	c #FFFFFF",
"CC	c #FFFFFF",
"DC	c #000000",
"EC	c #000000",
"FC	c #000000",
"GC	c #000000",
"HC	c #000000",
"IC	c #000000",
"JC	c #000000",
"KC	c #000000",
"LC	c #000000",
"MC	c #000000",
"NC	c #FFFFFF",
"OC	c #FFFFFF",
"PC	c #FFFFFF",
"QC	c #FFFFFF",
"RC	c #FFFFFF",
"SC	c #FFFFFF",
"TC	c #000000",
"UC	c #000000",
"VC	c #000000",
"WC	c #000000",
"XC	c #000000",
"YC	c #000000",
"ZC	c #000000",
"aC	c #000000",
"bC	c #000000",
"cC	c #000000",
"dC	c #FFFFFF",
"eC	c #FFFFFF",
"fC	c #FFFFFF",
"gC	c #FFFFFF",
"hC	c #FFFFFF",
"iC	c #FFFFFF",
"jC	c #000000",
"kC	c #000000",
"lC	c #000000",
"mC	c #000000",
"nC	c #000000",
"oC	c #000000",
"pC	c #000000",
"qC	c #000000",
"rC	c #000000",
"sC	c #000000",
"tC	c #FFFFFF",
"uC	c #FFFFFF",
"vC	c #FFFFFF",
"wC	c #FFFFFF",
"xC	c #FFFFFF",
"yC	c #FFFFFF",
"zC	c #000000",
"0C	c #000000",
"1C	c #000000",
"2C	c #000000",
"3C	c #000000",
"4C	c #000000",
"5C	c #000000",
"6C	c #000000",
"7C	c #000000",
"8C	c #000000",
"9C	c #FFFFFF",
"+C	c #FFFFFF",
"/C	c #FFFFFF",
"AD	c #FFFFFF",
"BD	c #FFFFFF",
"CD	c #FFFFFF",
"DD	c #000000",
"ED	c #000000",
"FD	c #000000",
"GD	c #000000",
"HD	c #000000",
"ID	c #000000",
"JD	c #000000",
"KD	c #000000",
"LD	c #000000",
"MD	c #000000",
"ND	c #FFFFFF",
"OD	c #FFFFFF",
"PD	c #FFFFFF",
"QD	c #FFFFFF",
"RD	c #FFFFFF",
"SD	c #FFFFFF",
"TD	c #404040",
"UD	c #000000",
"VD	c #000000",
"WD	c #000000",
"XD	c #000000",
"YD	c #000000",
"ZD	c #000000",
"aD	c #000000",
"bD	c #000000",
"cD	c #404040",
"dD	c #FFFFFF",
"eD	c #FFFFFF",
"fD	c #FFFFFF",
"gD	c #FFFFFF",
"hD	c #FFFFFF",
"iD	c #FFFFFF",
"jD	c #FFFFFF",
"kD	c #FFFFFF",
"lD	c #FFFFFF",
"mD	c #FFFFFF",
"nD	c #FFFFFF",
"oD	c #FFFFFF",
"pD	c #FFFFFF",
"qD	c #FFFFFF",
"rD	c #FFFFFF",
"sD	c #FFFFFF",
"tD	c #FFFFFF",
"uD	c #FFFFFF",
"vD	c #FFFFFF",
"wD	c #FFFFFF",
"xD	c #FFFFFF",
"yD	c #FFFFFF",
"zD	c #FFFFFF",
"0D	c #FFFFFF",
"1D	c #FFFFFF",
"2D	c #FFFFFF",
"3D	c #FFFFFF",
"4D	c #FFFFFF",
"5D	c #FFFFFF",
"6D	c #FFFFFF",
"7D	c #FFFFFF",
"8D	c #FFFFFF",
"9D	c #FFFFFF",
"+D	c #FFFFFF",
"/D	c #FFFFFF",
"                                ",
"          VAWAXAYAZAaA          ",
"          lA        qA          ",
"          1A        6A          ",
"          FB        KB          ",
"          VB        aB          ",
"      jBkBlBmBnBoBpBqBrBsB      ",
"      zB0B1B2B3B4B5B6B7B8B      ",
"      DCECFCGCHCICJCKCLCMC      ",
"      TCUCVCWCXCYCZCaCbCcC      ",
"      jCkClCmCnCoCpCqCrCsC      ",
"      zC0C1C2C3C4C5C6C7C8C      ",
"      DDEDFDGDHDIDJDKDLDMD      ",
"      VAUDVDWDXDYDZDaDbDVA      ",
"                                ",
"                                "
};
