/* XPM */
static char *top_xpm[] = {
"22 22 5 1",
" 	c None",
"1	c #FFFFFF",
"2	c #909090",
"3	c #F5F5F5",
"4	c #F9F9F9",
"                      ",
"                      ",
"                      ",
"     111111111111     ",
"     111111111111     ",
"          22          ",
"          11          ",
"         3114         ",
"         1111         ",
"        111111        ",
"       41111114       ",
"       11111111       ",
"      1111111111      ",
"     341111111443     ",
"        111111        ",
"        111111        ",
"        111111        ",
"        111111        ",
"                      ",
"                      ",
"                      ",
"                      "
};
