/* XPM */
static char *terminal_xpm[] = {
"24 24 3 1",
" 	c None",
"1	c #000000",
"2	c #FFFFFF",
"                        ",
"  11111111111111111111  ",
" 1                    1 ",
" 1 111111111111111111 1 ",
" 1 111111111111111111 1 ",
" 1 111111111111111111 1 ",
" 1 111111111111111111 1 ",
" 1 11 111111111111111 1 ",
" 1 111 11111111111111 1 ",
" 1 1111 1111111111111 1 ",
" 1 11111 111111111111 1 ",
" 1 111111 11111111111 1 ",
" 1 1111111 1111111111 1 ",
" 1 111111 11111111111 1 ",
" 1 11111 111111111111 1 ",
" 1 1111 1111111111111 1 ",
" 1 111 11111111111111 1 ",
" 1 11 11111    111111 1 ",
" 1 111111111111111111 1 ",
" 1 111111111111111111 1 ",
" 1 111111111111111111 1 ",
" 1                    1 ",
"  11111111111111111111  ",
"                        "
};
