/* XPM */
static char * locked_xpm[] = {
"24 24 3 1",
" 	c None",
".	c #FFFFFF",
"+	c #FBFBFB",
"                        ",
"                        ",
"                        ",
"                        ",
"         ......         ",
"        +......+        ",
"        ..    ..        ",
"        ..    ..        ",
"        ..    ..        ",
"        ..    ..        ",
"       +........+       ",
"      +..........+      ",
"      ............      ",
"      ............      ",
"      ............      ",
"      ............      ",
"      ............      ",
"      ............      ",
"       ..........       ",
"                        ",
"                        ",
"                        ",
"                        ",
"                        "};
