/* XPM */
static char * x_xpm[] = {
"24 24 10 1",
" 	c None",
".	c #FFFFFF",
"+	c #EDEDED",
"@	c #F9F9F9",
"#	c #F6F6F6",
"$	c #B2B2B2",
"%	c #DADADA",
"&	c #DEDEDE",
"*	c #D9D9D9",
"=	c #F3F3F3",
"                        ",
"                        ",
"                        ",
"                        ",
"       .        .       ",
"     +...+    +...+     ",
"    @.....@  @.....@    ",
"   @................#   ",
"    $..............$    ",
"      #....  ....#      ",
"       +...  ...+       ",
"      %@...  ...@%      ",
"     #.....  .....#     ",
"    .......  .......    ",
"   &.......  .......&   ",
"     #............#     ",
"      *....  ....*      ",
"        ...  ...        ",
"         =....=         ",
"           ..           ",
"                        ",
"                        ",
"                        ",
"                        "};
