/* XPM */
static char * x_xpm[] = {
"22 22 10 1",
" 	c None",
".	c #FFFFFF",
"+	c #F9F9F9",
"@	c #EDEDED",
"#	c #B2B2B2",
"$	c #F3F3F3",
"%	c #E9E9E9",
"&	c #DADADA",
"*	c #DEDEDE",
"=	c #D9D9D9",
"                      ",
"                      ",
"                      ",
"      .        +      ",
"    @...@    @...@    ",
"   +.....+  +.....+   ",
"  +................+  ",
"   #..............#   ",
"     $....  ....$     ",
"      %...  ...%      ",
"     &....  ....&     ",
"    $.....  .....$    ",
"   .......  .......   ",
"  *.......  .......*  ",
"    $............$    ",
"     =....  ....&     ",
"       ...  ...       ",
"        $....$        ",
"          ..          ",
"                      ",
"                      ",
"                      "};
