/* XPM */
static char *bluefish_xpm[] = {
"16 16 3 1",
" 	c None",
"1	c #000000",
"2	c #FFFFFF",
"1111111111111111",
"1111111111111111",
"111    111111111",
"11       1111111",
"11        111111",
"11    11   11111",
"11    11    1111",
"11          1111",
"11          1111",
"11          1111",
"11  1      11111",
"11   1111 111111",
"11       1111111",
"111    111111111",
"1111111111111111",
"1111111111111111"
};
