/* XPM */
static char *browser_xpm[] = {
"16 16 3 1",
" 	c None",
"1	c #000000",
"2	c #FFFFFF",
"1111111111111111",
"1111111111111111",
"11111111 1111111",
"11111111 1111111",
"1111111  1111111",
"1111111  1111111",
"111111    111111",
"11     11   1111",
"1111   11     11",
"111111    111111",
"1111111  1111111",
"1111111  1111111",
"1111111  1111111",
"1111111 11111111",
"1111111 11111111",
"1111111111111111"
};
