/* XPM */
static char *gnome_xpm[] = {
"16 16 2 1",
"0	c #000000",
"1	c #FFFFFF",
"0000000000000000",
"0111111111111110",
"0100000000000010",
"0100000000000010",
"0100000000000010",
"0100110000000010",
"0100011000000010",
"0100001100000010",
"0100011000000010",
"0100110000000010",
"0100000011110010",
"0100000000000010",
"0100000000000010",
"0100000000000010",
"0111111111111110",
"0000000000000000"
};
