/* XPM */
static char *opera_xpm[] = {
"16 16 2 1",
"0	c #000000",
"1	c #FF0000",
"0000000000000000",
"0111111111111110",
"0111110000111110",
"0111100110011110",
"0111001111001110",
"0110001111000110",
"0110001111000110",
"0110001111000110",
"0110001111000110",
"0110001111000110",
"0110001111000110",
"0111001111001110",
"0111100110011110",
"0111110000111110",
"0111111111111110",
"0000000000000000"
};
