/* XPM */
static char *picasa_xpm[] = {
"16 16 3 1",
"0	c #000000",
"1	c #FF00FF",
"2	c #FFFFFF",
"0000000000000000",
"0222222222222220",
"0222220002222220",
"0222002000202220",
"0220000200200220",
"0220000220200220",
"0200002222200020",
"0200222222200020",
"0202022222200020",
"0220022222200020",
"0220022222222220",
"0220020000000220",
"0222020000002220",
"0222220000222220",
"0222222222222220",
"0000000000000000"
};
