/* XPM */
static char *xchat_xpm[] = {
"16 16 3 1",
"0	c #000000",
"1	c #FF0000",
"2	c #FFFFFF",
"0000000000000001",
"0222222222222200",
"0222200000222200",
"0220000000002200",
"0220000200202200",
"0200022222220200",
"0200002002000200",
"0200002002000200",
"0200222222200200",
"0220020020002200",
"0220000000002200",
"0220000000222200",
"0220222222222200",
"0222222222222200",
"0000000000000000",
"1000000000000000"
};
