<?xml version="1.0" encoding="UTF-8" standalone="no"?>
<!-- Created with Inkscape (http://www.inkscape.org/) -->

<svg
   xmlns:dc="http://purl.org/dc/elements/1.1/"
   xmlns:cc="http://creativecommons.org/ns#"
   xmlns:rdf="http://www.w3.org/1999/02/22-rdf-syntax-ns#"
   xmlns:svg="http://www.w3.org/2000/svg"
   xmlns="http://www.w3.org/2000/svg"
   xmlns:xlink="http://www.w3.org/1999/xlink"
   xmlns:sodipodi="http://sodipodi.sourceforge.net/DTD/sodipodi-0.dtd"
   xmlns:inkscape="http://www.inkscape.org/namespaces/inkscape"
   width="256"
   height="256"
   id="svg2"
   sodipodi:version="0.32"
   inkscape:version="0.47pre4 r22446"
   version="1.0"
   sodipodi:docname="gnome-fs-client.svg"
   inkscape:output_extension="org.inkscape.output.svg.inkscape">
  <sodipodi:namedview
     id="base"
     pagecolor="#dddddd"
     bordercolor="#666666"
     borderopacity="1.0"
     inkscape:pageopacity="0.0"
     inkscape:pageshadow="2"
     inkscape:zoom="1.6992188"
     inkscape:cx="65.324138"
     inkscape:cy="147.61404"
     inkscape:document-units="px"
     inkscape:current-layer="layer1"
     width="256px"
     height="256px"
     inkscape:window-width="1280"
     inkscape:window-height="977"
     inkscape:window-x="0"
     inkscape:window-y="24"
     showgrid="false"
     inkscape:window-maximized="1" />
  <defs
     id="defs4">
    <linearGradient
       id="linearGradient3387">
      <stop
         style="stop-color:#dddddd;stop-opacity:1;"
         offset="0"
         id="stop3389" />
      <stop
         style="stop-color:#dddddd;stop-opacity:1;"
         offset="1"
         id="stop3391" />
    </linearGradient>
    <linearGradient
       id="linearGradient3369">
      <stop
         style="stop-color:#dddddd;stop-opacity:1;"
         offset="0"
         id="stop3371" />
      <stop
         style="stop-color:#dddddd;stop-opacity:0.73333335;"
         offset="1"
         id="stop3373" />
    </linearGradient>
    <linearGradient
       id="linearGradient3578">
      <stop
         style="stop-color:#000000;stop-opacity:1;"
         offset="0"
         id="stop3580" />
      <stop
         style="stop-color:#fffcfc;stop-opacity:1;"
         offset="1"
         id="stop3582" />
    </linearGradient>
    <inkscape:perspective
       id="perspective2503"
       inkscape:persp3d-origin="128 : 85.333333 : 1"
       inkscape:vp_z="256 : 128 : 1"
       inkscape:vp_y="0 : 1000 : 0"
       inkscape:vp_x="0 : 128 : 1"
       sodipodi:type="inkscape:persp3d" />
    <linearGradient
       inkscape:collect="always"
       xlink:href="#linearGradient3578"
       id="linearGradient3584"
       x1="13.514812"
       y1="-7.4748664"
       x2="16.093008"
       y2="-7.4748664"
       gradientUnits="userSpaceOnUse"
       spreadMethod="reflect" />
    <linearGradient
       inkscape:collect="always"
       xlink:href="#linearGradient3578"
       id="linearGradient3586"
       gradientUnits="userSpaceOnUse"
       spreadMethod="reflect"
       x1="16.908924"
       y1="-5.2121248"
       x2="18.616835"
       y2="-6.5828238" />
    <linearGradient
       inkscape:collect="always"
       xlink:href="#linearGradient3578"
       id="linearGradient3588"
       gradientUnits="userSpaceOnUse"
       spreadMethod="reflect"
       x1="13.514812"
       y1="-7.4748664"
       x2="17.07476"
       y2="-8.018795" />
    <linearGradient
       inkscape:collect="always"
       xlink:href="#linearGradient3578"
       id="linearGradient3590"
       gradientUnits="userSpaceOnUse"
       spreadMethod="reflect"
       x1="16.386753"
       y1="-5.9083529"
       x2="17.74655"
       y2="-6.9526954" />
    <linearGradient
       inkscape:collect="always"
       xlink:href="#linearGradient3578"
       id="linearGradient3592"
       gradientUnits="userSpaceOnUse"
       spreadMethod="reflect"
       x1="12.905613"
       y1="-10.150993"
       x2="11.371711"
       y2="-5.7778101" />
    <linearGradient
       inkscape:collect="always"
       xlink:href="#linearGradient3578"
       id="linearGradient3594"
       gradientUnits="userSpaceOnUse"
       spreadMethod="reflect"
       x1="12.035328"
       y1="-11.586965"
       x2="8.6955833"
       y2="-2.6882975" />
    <linearGradient
       inkscape:collect="always"
       xlink:href="#linearGradient3578"
       id="linearGradient3596"
       gradientUnits="userSpaceOnUse"
       spreadMethod="reflect"
       x1="16.386753"
       y1="-11.39115"
       x2="11.132382"
       y2="-11.199143" />
    <linearGradient
       inkscape:collect="always"
       xlink:href="#linearGradient3578"
       id="linearGradient3598"
       gradientUnits="userSpaceOnUse"
       spreadMethod="reflect"
       x1="16.691353"
       y1="-10.977764"
       x2="16.093008"
       y2="-7.4748664" />
    <linearGradient
       inkscape:collect="always"
       xlink:href="#linearGradient3578"
       id="linearGradient3600"
       gradientUnits="userSpaceOnUse"
       spreadMethod="reflect"
       x1="15.58174"
       y1="-6.2564669"
       x2="17.376678"
       y2="-1.9920692" />
    <linearGradient
       inkscape:collect="always"
       xlink:href="#linearGradient3578"
       id="linearGradient3602"
       gradientUnits="userSpaceOnUse"
       spreadMethod="reflect"
       x1="17.082983"
       y1="-2.2749119"
       x2="14.93988"
       y2="-3.7326398" />
    <linearGradient
       inkscape:collect="always"
       xlink:href="#linearGradient3578"
       id="linearGradient3604"
       gradientUnits="userSpaceOnUse"
       spreadMethod="reflect"
       x1="7.7709298"
       y1="-3.7543969"
       x2="12.916467"
       y2="-4.5158963" />
    <linearGradient
       inkscape:collect="always"
       xlink:href="#linearGradient3578"
       id="linearGradient3606"
       gradientUnits="userSpaceOnUse"
       spreadMethod="reflect"
       x1="11.186799"
       y1="-5.8865957"
       x2="9.7181683"
       y2="-1.5134122" />
    <linearGradient
       inkscape:collect="always"
       xlink:href="#linearGradient3578"
       id="linearGradient3608"
       gradientUnits="userSpaceOnUse"
       spreadMethod="reflect"
       x1="10.621114"
       y1="-6.4087667"
       x2="16.093008"
       y2="-7.4748664" />
    <linearGradient
       inkscape:collect="always"
       xlink:href="#linearGradient3578"
       id="linearGradient3610"
       gradientUnits="userSpaceOnUse"
       spreadMethod="reflect"
       x1="15.650429"
       y1="-2.2096405"
       x2="16.093008"
       y2="-7.4748664" />
    <linearGradient
       inkscape:collect="always"
       xlink:href="#linearGradient3578"
       id="linearGradient2551"
       gradientUnits="userSpaceOnUse"
       spreadMethod="reflect"
       x1="13.514812"
       y1="-7.4748664"
       x2="16.093008"
       y2="-7.4748664" />
    <linearGradient
       inkscape:collect="always"
       xlink:href="#linearGradient3578"
       id="linearGradient2553"
       gradientUnits="userSpaceOnUse"
       spreadMethod="reflect"
       x1="13.514812"
       y1="-7.4748664"
       x2="16.093008"
       y2="-7.4748664" />
    <linearGradient
       inkscape:collect="always"
       xlink:href="#linearGradient3578"
       id="linearGradient2555"
       gradientUnits="userSpaceOnUse"
       spreadMethod="reflect"
       x1="13.514812"
       y1="-7.4748664"
       x2="16.093008"
       y2="-7.4748664" />
    <linearGradient
       inkscape:collect="always"
       xlink:href="#linearGradient3578"
       id="linearGradient2557"
       gradientUnits="userSpaceOnUse"
       spreadMethod="reflect"
       x1="13.514812"
       y1="-7.4748664"
       x2="16.093008"
       y2="-7.4748664" />
    <linearGradient
       inkscape:collect="always"
       xlink:href="#linearGradient3578"
       id="linearGradient2559"
       gradientUnits="userSpaceOnUse"
       spreadMethod="reflect"
       x1="13.514812"
       y1="-7.4748664"
       x2="16.093008"
       y2="-7.4748664" />
    <linearGradient
       inkscape:collect="always"
       xlink:href="#linearGradient3578"
       id="linearGradient2561"
       gradientUnits="userSpaceOnUse"
       spreadMethod="reflect"
       x1="13.514812"
       y1="-7.4748664"
       x2="16.093008"
       y2="-7.4748664" />
    <linearGradient
       inkscape:collect="always"
       xlink:href="#linearGradient3578"
       id="linearGradient2563"
       gradientUnits="userSpaceOnUse"
       spreadMethod="reflect"
       x1="13.514812"
       y1="-7.4748664"
       x2="16.093008"
       y2="-7.4748664" />
    <linearGradient
       inkscape:collect="always"
       xlink:href="#linearGradient3578"
       id="linearGradient2565"
       gradientUnits="userSpaceOnUse"
       spreadMethod="reflect"
       x1="13.514812"
       y1="-7.4748664"
       x2="16.093008"
       y2="-7.4748664" />
    <linearGradient
       inkscape:collect="always"
       xlink:href="#linearGradient3578"
       id="linearGradient2567"
       gradientUnits="userSpaceOnUse"
       spreadMethod="reflect"
       x1="13.514812"
       y1="-7.4748664"
       x2="16.093008"
       y2="-7.4748664" />
    <linearGradient
       inkscape:collect="always"
       xlink:href="#linearGradient3578"
       id="linearGradient2569"
       gradientUnits="userSpaceOnUse"
       spreadMethod="reflect"
       x1="13.514812"
       y1="-7.4748664"
       x2="16.093008"
       y2="-7.4748664" />
    <linearGradient
       inkscape:collect="always"
       xlink:href="#linearGradient3578"
       id="linearGradient2571"
       gradientUnits="userSpaceOnUse"
       spreadMethod="reflect"
       x1="13.514812"
       y1="-7.4748664"
       x2="16.093008"
       y2="-7.4748664" />
    <linearGradient
       inkscape:collect="always"
       xlink:href="#linearGradient3578"
       id="linearGradient2573"
       gradientUnits="userSpaceOnUse"
       spreadMethod="reflect"
       x1="13.514812"
       y1="-7.4748664"
       x2="16.093008"
       y2="-7.4748664" />
    <linearGradient
       inkscape:collect="always"
       xlink:href="#linearGradient3578"
       id="linearGradient2575"
       gradientUnits="userSpaceOnUse"
       spreadMethod="reflect"
       x1="13.514812"
       y1="-7.4748664"
       x2="16.093008"
       y2="-7.4748664" />
    <linearGradient
       inkscape:collect="always"
       xlink:href="#linearGradient3578"
       id="linearGradient2577"
       gradientUnits="userSpaceOnUse"
       spreadMethod="reflect"
       x1="13.514812"
       y1="-7.4748664"
       x2="16.093008"
       y2="-7.4748664" />
    <linearGradient
       inkscape:collect="always"
       xlink:href="#linearGradient3578"
       id="linearGradient2579"
       gradientUnits="userSpaceOnUse"
       spreadMethod="reflect"
       x1="13.514812"
       y1="-7.4748664"
       x2="16.093008"
       y2="-7.4748664" />
    <linearGradient
       inkscape:collect="always"
       xlink:href="#linearGradient3578"
       id="linearGradient2581"
       gradientUnits="userSpaceOnUse"
       spreadMethod="reflect"
       x1="13.514812"
       y1="-7.4748664"
       x2="16.093008"
       y2="-7.4748664" />
    <linearGradient
       inkscape:collect="always"
       xlink:href="#linearGradient3578"
       id="linearGradient2583"
       gradientUnits="userSpaceOnUse"
       spreadMethod="reflect"
       x1="13.514812"
       y1="-7.4748664"
       x2="16.093008"
       y2="-7.4748664" />
    <linearGradient
       inkscape:collect="always"
       xlink:href="#linearGradient3578"
       id="linearGradient2585"
       gradientUnits="userSpaceOnUse"
       spreadMethod="reflect"
       x1="13.514812"
       y1="-7.4748664"
       x2="16.093008"
       y2="-7.4748664" />
    <linearGradient
       inkscape:collect="always"
       xlink:href="#linearGradient3578"
       id="linearGradient2587"
       gradientUnits="userSpaceOnUse"
       spreadMethod="reflect"
       x1="13.514812"
       y1="-7.4748664"
       x2="16.093008"
       y2="-7.4748664" />
    <linearGradient
       inkscape:collect="always"
       xlink:href="#linearGradient3578"
       id="linearGradient2589"
       gradientUnits="userSpaceOnUse"
       spreadMethod="reflect"
       x1="13.514812"
       y1="-7.4748664"
       x2="16.093008"
       y2="-7.4748664" />
    <linearGradient
       inkscape:collect="always"
       xlink:href="#linearGradient3578"
       id="linearGradient2591"
       gradientUnits="userSpaceOnUse"
       spreadMethod="reflect"
       x1="13.514812"
       y1="-7.4748664"
       x2="16.093008"
       y2="-7.4748664" />
    <linearGradient
       inkscape:collect="always"
       xlink:href="#linearGradient3578"
       id="linearGradient2593"
       gradientUnits="userSpaceOnUse"
       spreadMethod="reflect"
       x1="13.514812"
       y1="-7.4748664"
       x2="16.093008"
       y2="-7.4748664" />
    <linearGradient
       inkscape:collect="always"
       xlink:href="#linearGradient3578"
       id="linearGradient2595"
       gradientUnits="userSpaceOnUse"
       spreadMethod="reflect"
       x1="13.514812"
       y1="-7.4748664"
       x2="16.093008"
       y2="-7.4748664" />
    <linearGradient
       inkscape:collect="always"
       xlink:href="#linearGradient3369"
       id="linearGradient3375"
       x1="155.81395"
       y1="113.36433"
       x2="215.89148"
       y2="50.573639"
       gradientUnits="userSpaceOnUse"
       spreadMethod="reflect" />
    <linearGradient
       inkscape:collect="always"
       xlink:href="#linearGradient3387"
       id="linearGradient3393"
       x1="-81.182167"
       y1="145.67221"
       x2="-79.282944"
       y2="78.617943"
       gradientUnits="userSpaceOnUse" />
    <linearGradient
       inkscape:collect="always"
       xlink:href="#linearGradient3387"
       id="linearGradient3397"
       gradientUnits="userSpaceOnUse"
       x1="-81.182167"
       y1="145.67221"
       x2="-79.282944"
       y2="78.617943" />
    <linearGradient
       inkscape:collect="always"
       xlink:href="#linearGradient3369"
       id="linearGradient3403"
       gradientUnits="userSpaceOnUse"
       spreadMethod="reflect"
       x1="155.81395"
       y1="113.36433"
       x2="215.89148"
       y2="50.573639"
       gradientTransform="matrix(0.4584837,0,0,0.4584837,12.357625,81.058821)" />
    <linearGradient
       inkscape:collect="always"
       xlink:href="#linearGradient3578"
       id="linearGradient3290"
       gradientUnits="userSpaceOnUse"
       spreadMethod="reflect"
       x1="13.514812"
       y1="-7.4748664"
       x2="16.093008"
       y2="-7.4748664" />
    <linearGradient
       inkscape:collect="always"
       xlink:href="#linearGradient3387"
       id="linearGradient3407"
       x1="64.728302"
       y1="216.42938"
       x2="64.738937"
       y2="36.935131"
       gradientUnits="userSpaceOnUse" />
    <linearGradient
       inkscape:collect="always"
       xlink:href="#linearGradient3369"
       id="linearGradient3415"
       x1="77.38118"
       y1="215.25237"
       x2="77.391808"
       y2="38.406395"
       gradientUnits="userSpaceOnUse" />
    <linearGradient
       inkscape:collect="always"
       xlink:href="#linearGradient3387"
       id="linearGradient3423"
       x1="194.4944"
       y1="213.92249"
       x2="196.5737"
       y2="60.910992"
       gradientUnits="userSpaceOnUse"
       gradientTransform="translate(-0.5885057,-2.9425287)" />
    <linearGradient
       inkscape:collect="always"
       xlink:href="#linearGradient3369"
       id="linearGradient3431"
       x1="212.73807"
       y1="213.33398"
       x2="210.9921"
       y2="62.97076"
       gradientUnits="userSpaceOnUse"
       gradientTransform="translate(-0.5885057,-2.9425287)" />
    <filter
       inkscape:collect="always"
       id="filter3440">
      <feGaussianBlur
         inkscape:collect="always"
         stdDeviation="3.2042007"
         id="feGaussianBlur3442" />
    </filter>
    <linearGradient
       inkscape:collect="always"
       xlink:href="#linearGradient3387"
       id="linearGradient3448"
       gradientUnits="userSpaceOnUse"
       x1="64.728302"
       y1="216.42938"
       x2="64.738937"
       y2="36.935131" />
    <linearGradient
       inkscape:collect="always"
       xlink:href="#linearGradient3369"
       id="linearGradient3450"
       gradientUnits="userSpaceOnUse"
       x1="77.38118"
       y1="215.25237"
       x2="77.391808"
       y2="38.406395" />
    <linearGradient
       inkscape:collect="always"
       xlink:href="#linearGradient3387"
       id="linearGradient2914"
       gradientUnits="userSpaceOnUse"
       x1="64.728302"
       y1="216.42938"
       x2="64.738937"
       y2="36.935131"
       gradientTransform="matrix(0.94408667,0,0,0.94408667,3.4303411,5.500137)" />
    <linearGradient
       inkscape:collect="always"
       xlink:href="#linearGradient3369"
       id="linearGradient2916"
       gradientUnits="userSpaceOnUse"
       x1="77.38118"
       y1="215.25237"
       x2="77.391808"
       y2="38.406395"
       gradientTransform="matrix(0.94408667,0,0,0.94408667,3.4303411,5.500137)" />
    <filter
       inkscape:collect="always"
       id="filter3701">
      <feGaussianBlur
         inkscape:collect="always"
         stdDeviation="5.3355516"
         id="feGaussianBlur3703" />
    </filter>
  </defs>
  <metadata
     id="metadata7">
    <rdf:RDF>
      <cc:Work
         rdf:about="">
        <dc:format>image/svg+xml</dc:format>
        <dc:type
           rdf:resource="http://purl.org/dc/dcmitype/StillImage" />
      </cc:Work>
    </rdf:RDF>
  </metadata>
  <g
     inkscape:groupmode="layer"
     id="layer2"
     inkscape:label="shaddow">
    <path
       id="path3434"
       d="m 23.23857,39.740707 c -9.6139,0 -17.349372,8.013846 -17.349372,17.973725 l 0,143.526458 c 0,9.95986 7.735472,17.97372 17.349372,17.97372 l 55.670514,0 c 9.613901,0 17.349377,-8.01386 17.349374,-17.97372 l 0,-143.526458 c 0,-9.959877 -7.735472,-17.973725 -17.349374,-17.973725 l -55.670514,0 z m -1.175689,13.957618 55.352759,0 c 3.315137,0 5.973777,2.754315 5.973777,6.188755 l 0,9.612323 c 0,3.434442 -2.658638,6.188754 -5.973777,6.188754 l -55.352759,0 c -3.315139,-2e-6 -6.005552,-2.754315 -6.005552,-6.188754 l 0,-9.612323 c 0,-3.434442 2.690413,-6.188755 6.005552,-6.188755 z m 79.565619,10.534052 0,121.503693 52.96961,0 0,-11.78496 51.76214,0 0,11.78496 47.2818,0 0,-121.503693 -152.01355,0 z m 104.73175,121.503693 -51.76214,0 0,9.9086 51.76214,0 0,-9.9086 z m 0,9.9086 0,9.31605 -51.76214,0 0,-9.31605 -16.45967,0 c -5.13846,1e-5 -9.27841,4.28894 -9.27841,9.61232 1e-5,5.3234 4.13994,9.61232 9.27841,9.61232 l 86.17492,0 c 5.13847,10e-6 9.27841,-4.28893 9.27842,-9.61232 1e-5,-5.32337 -4.13997,-9.61232 -9.27842,-9.61232 l -17.95311,0 z M 22.666613,85.004209 l 55.35276,0 c 3.315142,0 5.973776,2.754315 5.973776,6.188756 l 0,9.612325 c -2e-6,3.43443 -2.658637,6.18875 -5.973776,6.18875 l -55.35276,0 c -3.315137,0 -6.005552,-2.75432 -6.005552,-6.18875 l 0,-9.612325 c 0,-3.434439 2.690415,-6.188756 6.005552,-6.188756 z"
       style="fill:#dddddd;fill-opacity:1;stroke:none;filter:url(#filter3701)"
       transform="matrix(0.93547534,0,0,0.94631294,5.7248071,5.5463204)" />
  </g>
  <g
     id="layer1"
     inkscape:groupmode="layer"
     inkscape:label="icon">
    <path
       style="fill:url(#linearGradient2914);fill-opacity:1;stroke:url(#linearGradient2916);stroke-width:4;stroke-linecap:round;stroke-linejoin:round;stroke-miterlimit:4;stroke-opacity:1;stroke-dasharray:none"
       d="m 27.032508,44.119182 c -8.926277,0 -16.108479,7.1822 -16.108479,16.108479 l 0,128.631809 c 0,8.92627 7.182202,16.10848 16.108479,16.10848 l 51.688745,0 c 8.926277,0 16.108482,-7.18221 16.108479,-16.10848 l 0,-128.631809 c 0,-8.926277 -7.182201,-16.108479 -16.108479,-16.108479 l -51.688745,0 z m -1.0916,12.509149 51.393718,0 c 3.078024,0 5.546509,2.468482 5.546509,5.546509 l 0,8.614791 c 0,3.078029 -2.468483,5.546509 -5.546509,5.546509 l -51.393718,0 c -3.078027,-2e-6 -5.576012,-2.468483 -5.576012,-5.546509 l 0,-8.614791 c 0,-3.078029 2.497985,-5.546509 5.576012,-5.546509 z m 73.874782,9.440866 0,108.894493 49.18101,0 0,-10.56197 48.05992,0 0,10.56197 43.90003,0 0,-108.894493 -141.14096,0 z m 97.24093,108.894493 -48.05992,0 0,8.88032 48.05992,0 0,-8.88032 z m 0,8.88032 0,8.34927 -48.05992,0 0,-8.34927 -15.2824,0 c -4.77093,1e-5 -8.61479,3.84385 -8.61479,8.61479 1e-5,4.77095 3.84385,8.61479 8.61479,8.61479 l 80.01135,0 c 4.77095,1e-5 8.61478,-3.84385 8.61479,-8.61479 1e-5,-4.77093 -3.84386,-8.61479 -8.61479,-8.61479 l -16.66903,0 z M 26.501459,84.685406 l 51.393718,0 c 3.07803,0 5.546509,2.468483 5.546509,5.54651 l 0,8.61479 c -2e-6,3.078024 -2.468482,5.546514 -5.546509,5.546514 l -51.393718,0 c -3.078026,0 -5.576012,-2.46849 -5.576012,-5.546514 l 0,-8.61479 c 0,-3.078025 2.497986,-5.54651 5.576012,-5.54651 z"
       id="rect2615" />
  </g>
</svg>
